<ttFont>
          <CharString index="0">
            -91 callsubr
            rrcurveto
            -20 4 18 -12 22 hhcurveto
            22 18 12 24 -4 hvcurveto
            -46 callgsubr
            -4 -111 rmoveto
            25 52 -213 -9 -7 hvcurveto
            -45 callgsubr
            return
          </CharString>
          <CharString index="1">
            rmoveto
            -17 5 17 -11 18 hhcurveto
            17 14 10 18 hvcurveto
            -28 121 9 -34 -23 81 -92 callsubr
            -67 204 rmoveto
            -40 callsubr
            14 45 18 42 22 38 rrcurveto
            return
          </CharString>
          <CharString index="2">
            -107 callgsubr
            endchar
          </CharString>
          <CharString index="3">
            rmoveto
            36 3 25 17 15 -10 8 -19 2 hvcurveto
            -173 -3 rlineto
            -101 callgsubr
            return
          </CharString>
          <CharString index="4">
            rmoveto
            -90 callsubr
            -30 callgsubr
            vhcurveto
            -43 callsubr
            return
          </CharString>
          <CharString index="5">
            rmoveto
            14 callgsubr
          </CharString>
          <CharString index="6">
            rmoveto
            -88 callsubr
            119 -31 86 -65 58 vhcurveto
            30 -33 -40 15 -46 hhcurveto
            -7 -83 rmoveto
            -27 callsubr
            -85 callsubr
            return
          </CharString>
          <CharString index="7">
            -93 callsubr
            -86 44 79 -68 68 hhcurveto
            67 71 44 76 41 hvcurveto
            -37 callgsubr
            return
          </CharString>
          <CharString index="8">
            rmoveto
            -7 callsubr
            hvcurveto
            -11 17 20 -5 23 hhcurveto
            45 59 25 29 36 hvcurveto
            -7 callgsubr
            -13 -21 -15 -27 -28 vhcurveto
            -64 callsubr
            vhcurveto
            5 -69 rmoveto
            -34 callsubr
            29 18 22 14 25 hhcurveto
            return
          </CharString>
          <CharString index="9">
            rmoveto
            -49 -1 -29 -55 20 -17 -98 callgsubr
            rrcurveto
            return
          </CharString>
          <CharString index="10">
            -99 callsubr
            endchar
          </CharString>
          <CharString index="11">
            rmoveto
            -95 callgsubr
            return
          </CharString>
          <CharString index="12">
            rmoveto
            -54 callgsubr
            -88 callgsubr
            return
          </CharString>
          <CharString index="13">
            -100 callsubr
            74 -6 65 -11 56 vhcurveto
            -44 callsubr
            return
          </CharString>
          <CharString index="14">
            rmoveto
            -1 -7 0 -10 -1 -11 -1 -49 -7 -37 -13 -23 rrcurveto
            -65 -30 -36 -33 -42 hhcurveto
            -52 -57 59 72 -35 hvcurveto
            -36 71 -7 55 69 vvcurveto
            35 5 73 9 111 vhcurveto
            20 -3 -9 10 -15 hhcurveto
            -20 -22 -20 -21 -9 hvcurveto
            -9 -113 -5 -75 -35 vvcurveto
            -72 8 -77 44 -86 vhcurveto
            return
          </CharString>
          <CharString index="15">
            -16 59 -21 59 -27 58 rrcurveto
            59 -27 -14 30 -23 hhcurveto
            -42 -46 -91 -102 -32 hvcurveto
            -33 -103 -25 -103 -34 vvcurveto
            -17 11 -9 21 21 11 8 17 3 vhcurveto
            3 32 25 98 6 22 rrcurveto
            -9 34 47 -5 60 hhcurveto
            return
          </CharString>
          <CharString index="16">
            -36 -29 -29 -56 -29 hvcurveto
            -47 -88 -94 -360 -96 vvcurveto
            -19 16 -10 20 21 12 6 13 3 vhcurveto
            8 59 26 171 15 13 13 12 169 -24 13 -7 12 -6 20 -136 16 -71 return
          </CharString>
          <CharString index="17">
            -11 -12 -5 -12 -4 hvcurveto
            -26 -80 -59 -6 -32 vvcurveto
            -18 13 -16 25 return
          </CharString>
          <CharString index="18">
            -72 callgsubr
            -20 4 -20 3 -20 rrcurveto
            -16 5 9 -8 13 hhcurveto
            24 35 9 39 -11 hvcurveto
            return
          </CharString>
          <CharString index="19">
            -92 -71 -33 -56 -40 hvcurveto
            -41 -56 -20 -69 -86 vvcurveto
            -86 23 -123 72 -88 vhcurveto
            -43 35 53 -26 63 -31 callsubr
            111 117 vvcurveto
            return
          </CharString>
          <CharString index="20">
            rmoveto
            42 1 -2 50 -43 hhcurveto
            -15 -12 -6 -12 -9 hvcurveto
            9 -26 -27 5 -27 52 callgsubr
            -65 -81 -164 -137 40 -81 101 50 41 16 33 31 hvcurveto
            return
          </CharString>
          <CharString index="21">
            677 -103 callsubr
            return
          </CharString>
          <CharString index="22">
            -64 -13 -50 -66 -59 hhcurveto
            -30 -26 8 16 -21 hvcurveto
            -43 31 -21 45 -16 56 rrcurveto
            -16 56 -4 39 45 vvcurveto
            23 3 23 7 24 vhcurveto
            85 22 56 42 89 hhcurveto
            return
          </CharString>
          <CharString index="23">
            -86 callgsubr
            endchar
          </CharString>
          <CharString index="24">
            rmoveto
            -5 -29 -4 -19 -1 -10 -13 -64 rcurveline
            -7 -33 -4 -20 -1 -7 -30 49 -36 84 -42 119 rrcurveto
            12 -8 -10 6 -11 hhcurveto
            -17 -17 -16 -31 -18 hvcurveto
            -18 -31 -19 -40 -20 -49 -21 -49 -14 -33 -9 -15 -18 103 -18 160 -18 217 rrcurveto
            19 -5 -10 10 -15 hhcurveto
            -24 -24 -26 -27 hvcurveto
            11 -113 8 -87 7 -59 7 -60 3 -32 1 -3 rrcurveto
            -163 16 23 -82 31 hhcurveto
            15 13 8 15 12 hvcurveto
            15 28 21 43 25 58 25 58 20 44 17 29 7 -15 16 -38 27 -62 27 -62 29 -52 31 -42 rrcurveto
            -8 8 9 -4 10 hhcurveto
            37 2 18 100 21 hvcurveto
            10 50 6 31 3 11 4 22 23 109 5 39 3 19 4 32 7 45 7 44 5 54 4 63 rrcurveto
            20 -5 -9 10 -15 hhcurveto
            -20 -23 -19 -23 -5 hvcurveto
            -4 -63 -10 -81 -16 -99 rrcurveto
            endchar
          </CharString>
          <CharString index="25">
            rmoveto
            -18 -21 -22 -15 -29 126 -231 21 -31 hvcurveto
            17 -25 -6 -38 -32 vvcurveto
            1 -84 -4 -102 9 -30 rrcurveto
            -12 4 5 -12 19 hhcurveto
            13 28 5 37 -2 hvcurveto
            -1 27 -2 26 77 callsubr
            68 -2 47 1 68 rrcurveto
            16 14 28 13 25 vhcurveto
            13 25 10 18 6 11 12 22 33 57 51 71 23 32 30 36 -47 19 -10 4 -15 -6 -10 -9 -54 -65 -69 -120 -31 -55 -17 23 -82 165 -27 38 rrcurveto
            17 -13 -10 9 -9 hhcurveto
            return
          </CharString>
          <CharString index="26">
            -84 callgsubr
            endchar
          </CharString>
          <CharString index="27">
            -17 4 -23 -10 -4 -20 -2 -10 3 -15 11 -20 20 -40 46 -40 26 -15 return
          </CharString>
          <CharString index="28">
            rmoveto
            -42 callgsubr
            -8 -63 -34 -1 -24 -9 -13 22 -17 20 -19 17 rrcurveto
            30 -33 -40 15 -46 hhcurveto
            -88 callsubr
            53 -6 46 -13 40 vhcurveto
            43 8 61 38 82 vvcurveto
            -185 -405 rmoveto
            -85 callsubr
            -27 callsubr
            return
          </CharString>
          <CharString index="29">
            -83 callgsubr
            endchar
          </CharString>
          <CharString index="30">
            -51 callsubr
            -43 6 -108 7 -172 vhcurveto
            -19 1 13 -6 12 hhcurveto
            20 28 17 29 -1 hvcurveto
            14 -1 23 31 vvcurveto
            return
          </CharString>
          <CharString index="31">
            rmoveto
            -26 -15 -7 -15 -3 hvcurveto
            -9 -31 -13 -54 -19 -76 -19 -76 -15 -59 -12 -41 -7 19 -11 29 -15 35 -31 71 -25 80 -40 104 rrcurveto
            14 -9 -16 7 -11 hhcurveto
            -24 -26 -23 -24 9 hvcurveto
            54 -142 83 -225 32 -53 -4 -15 -8 -26 -13 -38 rrcurveto
            -26 -77 -23 -71 -28 vvcurveto
            -29 17 -19 20 15 11 9 18 6 vhcurveto
            49 139 162 534 41 vvcurveto
            15 -21 14 -17 vhcurveto
            return
          </CharString>
          <CharString index="32">
            -106 callgsubr
            97 -650 -99 callgsubr
          </CharString>
          <CharString index="33">
            -96 callgsubr
            95 -177 -102 callsubr
          </CharString>
          <CharString index="34">
            -100 callsubr
            -1 38 rlineto
            44 46 callsubr
            34 callgsubr
            -20 -12 -20 -7 -3 30 -4 29 -5 26 rrcurveto
            -44 callsubr
            return
          </CharString>
          <CharString index="35">
            -15 54 -17 249 86 -80 callgsubr
            return
          </CharString>
          <CharString index="36">
            -106 callgsubr
            11 -187 -97 callgsubr
          </CharString>
          <CharString index="37">
            -76 callsubr
            endchar
          </CharString>
          <CharString index="38">
            -96 callgsubr
            249 -265 -100 callgsubr
          </CharString>
          <CharString index="39">
            -106 callgsubr
            -8 -189 -97 callsubr
          </CharString>
          <CharString index="40">
            rmoveto
            -95 -3 -83 -7 -70 vhcurveto
            -19 9 -10 19 23 26 18 20 3 vhcurveto
            -47 callsubr
            return
          </CharString>
          <CharString index="41">
            652 -106 callgsubr
            return
          </CharString>
          <CharString index="42">
            -67 callsubr
            endchar
          </CharString>
          <CharString index="43">
            -42 -40 -65 -5 -22 19 -27 23 -9 37 -7 52 rrcurveto
            35 21 0 4 28 hvcurveto
            92 12 51 71 60 vvcurveto
            59 -82 45 -67 return
          </CharString>
          <CharString index="44">
            rmoveto
            34 callgsubr
            -21 -12 -20 -8 -1 25 -3 25 -2 27 rrcurveto
            24 callsubr
            -85 callgsubr
            143 41 89 199 -5 hvcurveto
            43 6 66 37 86 vvcurveto
            return
          </CharString>
          <CharString index="45">
            551 -89 callgsubr
            return
          </CharString>
          <CharString index="46">
            -41 callgsubr
            108 64 115 109 return
          </CharString>
          <CharString index="47">
            -61 callgsubr
            endchar
          </CharString>
          <CharString index="48">
            rmoveto
            -42 callgsubr
            -5 -37 -13 -15 -15 -9 -29 60 -49 39 -61 -2 rrcurveto
            -61 callsubr
            27 -3 26 -5 25 vhcurveto
            38 16 39 37 66 vvcurveto
            -244 -329 rmoveto
            -14 callgsubr
            -15 callsubr
            hvcurveto
            return
          </CharString>
          <CharString index="49">
            7 -11 10 -20 13 -29 13 -29 12 -24 11 -17 rrcurveto
            -17 11 12 -9 13 hhcurveto
            21 19 20 40 15 hvcurveto
            27 69 14 80 90 vvcurveto
            55 vlineto
            75 -10 38 -19 -16 -28 -14 -22 1 vhcurveto
            6 -152 rlineto
            -48 -9 -52 -18 -56 vhcurveto
            10 -10 -44 125 -49 hhcurveto
            -45 -17 -71 -48 -30 hvcurveto
            -35 95 -18 100 105 vvcurveto
            16 -12 11 -13 -15 -28 -11 -25 -227 53 -203 44 36 22 45 52 26 vhcurveto
            endchar
          </CharString>
          <CharString index="50">
            rmoveto
            -115 -89 -89 -143 -90 28 -66 56 -43 hvcurveto
            57 -45 81 -1 48 54 rrcurveto
            3 -34 1 -55 -77 vvcurveto
            -77 -24 -38 -48 vhcurveto
            -42 -70 44 -28 hhcurveto
            -22 -19 -13 -30 -41 96 -32 64 114 60 50 121 -2 hvcurveto
            -1 128 -14 112 5 118 rrcurveto
            170 7 -35 77 -111 hhcurveto
            -27 -80 rmoveto
            61 31 -23 -125 -65 -7 -76 -76 -76 -32 58 84 84 42 63 57 hvcurveto
            endchar
          </CharString>
          <CharString index="51">
            rmoveto
            -15 32 -112 203 -29 callsubr
            83 -104 66 -128 72 -137 rrcurveto
            -84 44 5 -26 52 hhcurveto
            27 16 35 26 hvcurveto
            33 -7 64 459 32 callsubr
            -6 -33 -57 vvcurveto
            return
          </CharString>
          <CharString index="52">
            855 -95 callsubr
            return
          </CharString>
          <CharString index="53">
            rmoveto
            -127 -98 -97 -150 -34 6 -32 12 -33 hvcurveto
            -65 25 55 -53 63 hhcurveto
            31 32 10 21 32 hvcurveto
            -22 4 8 -8 26 hhcurveto
            36 -5 43 55 45 -7 38 -8 33 hvcurveto
            -9 35 -47 16 -64 -6 rrcurveto
            -21 -2 -11 -16 -21 vvcurveto
            -26 21 -4 53 13 6 -17 -35 -39 -34 -30 -49 -50 -44 64 89 75 53 93 91 vhcurveto
            58 -12 -23 42 hhcurveto
            14 19 14 20 37 -62 25 -52 hvcurveto
            return
          </CharString>
          <CharString index="54">
            rmoveto
            -15 -24 -16 -27 hvcurveto
            -127 11 -146 -133 35 callsubr
            217 3 0 108 100 hhcurveto
            85 -9 -229 -107 -21 8 -11 16 49 2 23 162 -2 hvcurveto
            143 -23 140 -101 -54 -45 -24 -47 -36 vhcurveto
            29 callgsubr
            return
          </CharString>
          <CharString index="55">
            670 -96 callsubr
            return
          </CharString>
          <CharString index="56">
            rmoveto
            4 63 rlineto
            8 -1 12 -2 15 vhcurveto
            31 -5 -28 12 -27 hhcurveto
            -14 -8 -6 -12 -1 hvcurveto
            -2 -33 -1 -37 -43 vvcurveto
            return
          </CharString>
          <CharString index="57">
            rmoveto
            -45 4 -31 7 -29 10 rrcurveto
            -21 8 -21 -26 -17 vvcurveto
            -32 46 -12 41 -5 vhcurveto
            -39 -56 -62 -24 -21 -110 rrcurveto
            -22 8 -7 22 vhcurveto
            206 3 rlineto
            61 1 41 -3 44 vvcurveto
            36 -71 -15 -69 vhcurveto
            -121 hlineto
            30 54 41 36 56 55 rrcurveto
            44 61 -10 44 18 -8 12 -40 2 hvcurveto
            23 30 29 37 33 40 10 13 -2 33 -30 7 -56 15 -231 20 -23 -16 rrcurveto
            -12 -10 -6 -10 -13 vvcurveto
            -16 11 -9 19 106 79 -5 -11 51 vhcurveto
            -17 -25 -23 -28 -27 -31 rrcurveto
            endchar
          </CharString>
          <CharString index="58">
            21 callsubr
            -195 -81 callsubr
          </CharString>
          <CharString index="59">
            rmoveto
            13 12 callsubr
            hhcurveto
            55 55 23 30 71 hvcurveto
            -35 callgsubr
          </CharString>
          <CharString index="60">
            5 61 3 79 99 vvcurveto
            -3 231 -1 116 0 vvcurveto
            15 -3 -9 8 -13 hhcurveto
            -27 -23 -15 -19 -5 hvcurveto
            return
          </CharString>
          <CharString index="61">
            -33 -13 -41 -29 -28 hhcurveto
            -56 -24 57 91 125 44 29 69 return
          </CharString>
          <CharString index="62">
            630 -93 callgsubr
            return
          </CharString>
          <CharString index="63">
            11 -8 -10 6 -11 hhcurveto
            -23 -22 -25 -28 hvcurveto
            9 -49 5 -56 -63 vvcurveto
            return
          </CharString>
          <CharString index="64">
            22 8 -24 22 -23 hhcurveto
            return
          </CharString>
          <CharString index="65">
            -42 -48 -41 -31 -23 17 -19 17 hvcurveto
            return
          </CharString>
          <CharString index="66">
            rmoveto
            -6 callgsubr
            -43 80 -30 68 96 76 41 103 -10 callsubr
            hvcurveto
            return
          </CharString>
          <CharString index="67">
            20 -44 17 -46 13 -47 rrcurveto
            -40 -35 4 8 -29 hvcurveto
            return
          </CharString>
          <CharString index="68">
            rmoveto
            34 callsubr
            -144 63 -91 108 25 27 6 11 29 vhcurveto
            -21 callgsubr
            hvcurveto
            endchar
          </CharString>
          <CharString index="69">
            -105 callgsubr
            -4 -580 -87 callgsubr
          </CharString>
          <CharString index="70">
            rmoveto
            -98 callgsubr
            -49 -1 -29 -55 20 -17 rrcurveto
            return
          </CharString>
          <CharString index="71">
            -23 callgsubr
            7 1 -44 2 -215 -12 callsubr
            return
          </CharString>
          <CharString index="72">
            -18 27 -36 56 -62 78 -41 37 -13 12 -16 0 -9 -3 -26 -8 -4 -24 1 -71 rrcurveto
            -33 -8 -260 0 vhcurveto
            -18 1 15 -12 16 hhcurveto
            36 0 17 53 1 hvcurveto
            1 26 8 147 2 70 54 -62 55 -88 return
          </CharString>
          <CharString index="73">
            -1 callgsubr
            4 25 3 26 12 17 rrcurveto
            return
          </CharString>
          <CharString index="74">
            -104 callgsubr
            -4 -416 -87 callgsubr
          </CharString>
          <CharString index="75">
            rmoveto
            -22 callsubr
            96 19 194 4 88 vhcurveto
            38 callgsubr
            return
          </CharString>
          <CharString index="76">
            hhcurveto
            48 3 42 19 37 36 rrcurveto
            72 72 34 return
          </CharString>
          <CharString index="77">
            rmoveto
            55 callsubr
            hvcurveto
            76 callsubr
            19 callgsubr
            -5 callgsubr
            vhcurveto
            return
          </CharString>
          <CharString index="78">
            -31 49 -47 75 -91 140 -51 -43 rrcurveto
            -10 -8 -3 -29 -45 vvcurveto
            3 -108 -16 -271 -2 -105 rrcurveto
            -18 17 -11 20 23 12 8 16 2 vhcurveto
            12 84 6 142 225 vvcurveto
            return
          </CharString>
          <CharString index="79">
            -71 callgsubr
            endchar
          </CharString>
          <CharString index="80">
            105 33 -93 -137 -40 -5 -44 -11 -49 hvcurveto
            return
          </CharString>
          <CharString index="81">
            51 17 -38 -84 -42 -6 -39 -13 -37 hvcurveto
            return
          </CharString>
          <CharString index="82">
            870 -96 callsubr
            return
          </CharString>
          <CharString index="83">
            -70 vlineto
            -39 -1 -30 -3 -21 vhcurveto
            -27 10 -10 31 vhcurveto
            return
          </CharString>
          <CharString index="84">
            830 -93 callgsubr
            return
          </CharString>
          <CharString index="85">
            -71 -4 -125 13 -12 vhcurveto
            15 -13 171 3 37 2 rrcurveto
            37 1 47 13 39 vvcurveto
            23 -16 11 -31 -41 -121 -18 13 -17 vhcurveto
            -13 10 3 95 58 vvcurveto
            return
          </CharString>
          <CharString index="86">
            29 23 48 55 111 vvcurveto
            120 -72 43 -104 21 vhcurveto
            -61 11 -84 19 69 vvcurveto
            51 72 35 61 vhcurveto
            55 52 -45 33 hhcurveto
            22 8 20 17 46 -71 32 -85 return
          </CharString>
          <CharString index="87">
            -30 2 -17 -16 -37 vvcurveto
            -18 11 -9 22 -1 vhcurveto
            return
          </CharString>
          <CharString index="88">
            -17 callgsubr
            rrcurveto
            return
          </CharString>
          <CharString index="89">
            -41 -29 1 -51 -20 hvcurveto
            -10 -26 -6 -67 -2 -109 rrcurveto
            -87 3 -24 -11 -34 vvcurveto
            -38 64 5 47 -3 vhcurveto
            2 -54 3 -59 5 -63 rrcurveto
            15 callsubr
            return
          </CharString>
          <CharString index="90">
            -107 callgsubr
            170 -379 -87 callgsubr
          </CharString>
          <CharString index="91">
            628 -56 callgsubr
            return
          </CharString>
          <CharString index="92">
            79 18 -78 -86 -117 -53 -12 -42 return
          </CharString>
          <CharString index="93">
            rmoveto
            -112 20 -85 -67 -100 vvcurveto
            -133 153 -49 87 50 vhcurveto
            21 12 21 12 11 12 rrcurveto
            -32 25 33 -21 44 hhcurveto
            44 45 28 29 36 hvcurveto
            35 27 27 28 18 vvcurveto
            19 -31 23 -9 -12 -21 -14 -27 -27 vhcurveto
            -42 -39 -64 -5 -21 19 -27 22 -9 33 -6 51 28 -4 31 -3 27 1 rrcurveto
            90 2 35 71 79 vvcurveto
            58 -59 44 -66 -48 -46 -15 -31 -25 vhcurveto
            -23 32 -117 34 -64 -36 -72 -39 -10 -40 28 -27 rrcurveto
            -30 31 30 76 63 hhcurveto
            77 8 -26 -68 hvcurveto
            99 62 rmoveto
            29 18 22 13 24 hhcurveto
            36 19 -13 -28 -66 -44 -25 -91 15 hvcurveto
            4 25 1 33 11 17 rrcurveto
            -92 -140 rmoveto
            4 -39 2 -24 18 -41 -71 -66 -99 40 -12 51 -15 63 50 59 83 -29 rrcurveto
            endchar
          </CharString>
          <CharString index="94">
            rmoveto
            -1 70 2 51 4 64 -11 callgsubr
            -10 -56 4 -411 6 -74 return
          </CharString>
          <CharString index="95">
            vhcurveto
            -87 1 -88 2 -88 vhcurveto
            -16 5 9 -8 74 callgsubr
            27 22 25 hvcurveto
            -3 526 rmoveto
            9 22 30 5 37 hhcurveto
            75 69 -30 -57 -60 -148 -89 -86 -4 hvcurveto
            99 0 76 1 51 vhcurveto
            -79 -34 rmoveto
            0 0 0 0 vhcurveto
            return
          </CharString>
          <CharString index="96">
            rmoveto
            -28 11 -15 -1 -19 -54 rrcurveto
            9 -20 -32 7 -35 hhcurveto
            -70 -77 -33 -56 -40 hvcurveto
            -41 -55 -20 -70 -85 vvcurveto
            -130 36 -107 60 -65 vhcurveto
            -18 -42 -4 -11 30 -13 14 -6 18 -8 13 40 rrcurveto
            -16 27 33 -9 37 -31 callsubr
            113 109 vvcurveto
            115 -28 87 -56 57 vhcurveto
            27 62 -1 12 -24 9 rrcurveto
            -260 -531 rmoveto
            -38 61 -19 72 81 vvcurveto
            58 13 48 26 38 vhcurveto
            40 27 51 22 48 hhcurveto
            23 20 -3 -5 17 hvcurveto
            54 -47 rmoveto
            24 -35 12 -54 -73 vvcurveto
            -49 -5 -48 -11 -49 vhcurveto
            -64 -13 -50 -66 -58 hhcurveto
            -29 -25 7 14 -19 hvcurveto
            34 80 58 139 82 198 rrcurveto
            endchar
          </CharString>
          <CharString index="97">
            72 -22 13 -29 21 vhcurveto
            -43 31 -152 7 62 vvcurveto
            25 52 25 46 vhcurveto
            40 39 -32 25 78 callgsubr
            12 18 36 -51 28 -81 return
          </CharString>
          <CharString index="98">
            -103 callsubr
            -24 -183 -71 callgsubr
            return
          </CharString>
          <CharString index="99">
            -20 -27 -17 -24 -2 hvcurveto
            -3 -39 3 -94 -72 vvcurveto
            -8 -2 -1 1 -58 1 rrcurveto
            -39 1 -19 -18 -33 vvcurveto
            -32 33 -3 31 23 33 0 1 9 vhcurveto
            1 return
          </CharString>
          <CharString index="100">
            -121 -41 -105 -102 -102 34 -103 61 -39 return
          </CharString>
          <CharString index="101">
            -26 51 283 rmoveto
            -20 -3 -12 -14 -17 vvcurveto
            -16 11 -14 21 -2 vhcurveto
            24 hlineto
            3 -64 3 -50 6 -37 rrcurveto
            -6 -5 -2 -7 -7 vvcurveto
            -8 4 -6 9 -7 vhcurveto
            9 -36 rlineto
            -17 4 10 -9 16 hhcurveto
            21 24 16 23 hvcurveto
            -2 16 16 -1 16 hhcurveto
            113 77 53 112 hvcurveto
            -3 75 -33 69 -52 50 rrcurveto
            67 -69 -93 39 -44 hhcurveto
            -24 -20 -7 -25 hvcurveto
            -30 -1 -50 -70 vvcurveto
            124 -66 rmoveto
            17 10 16 17 17 -5 16 -21 hvcurveto
            -51 hlineto
            71 1 22 1 14 vhcurveto
            118 -46 72 -96 -113 vvcurveto
            -49 -48 -17 -76 -28 -18 0 2 -10 vhcurveto
            -6 45 -4 48 -1 53 rrcurveto
            endchar
          </CharString>
          <CharString index="102">
            rmoveto
            -18 4 10 -9 15 hhcurveto
            31 24 22 17 8 -1 7 -3 6 hvcurveto
            -5 25 28 -2 30 hhcurveto
            29 29 4 9 29 hvcurveto
            97 30 49 74 117 vvcurveto
            54 callsubr
            1 -3 -6 0 -9 hhcurveto
            -17 -25 -16 -21 -7 hvcurveto
            -3 -97 -2 -73 -48 vvcurveto
            -121 6 -109 13 -98 vhcurveto
            58 callgsubr
            65 544 62 callsubr
            -9 -1 -15 -2 -19 vhcurveto
            -53 -4 -87 -22 -92 hhcurveto
            -25 -21 2 5 -17 hvcurveto
            -13 102 -7 111 119 vvcurveto
            37 2 53 3 71 vhcurveto
            endchar
          </CharString>
          <CharString index="103">
            -86 -42 97 86 78 42 53 81 return
          </CharString>
          <CharString index="104">
            -106 callgsubr
            1 -192 -102 callsubr
          </CharString>
          <CharString index="105">
            -18 callsubr
            25 -1 13 0 14 1 rrcurveto
            return
          </CharString>
          <CharString index="106">
            83 348 rmoveto
            -20 -10 10 21 29 72 60 44 24 12 -16 -33 -19 -3 -29 -5 -37 hvcurveto
            -5 -38 -3 -24 -9 vvcurveto
            -19 -1 -16 -28 -20 hhcurveto
            -21 -12 12 24 -4 hvcurveto
            1 39 12 64 3 13 -3 -3 -8 -3 -11 -4 -11 -4 -9 -3 -6 -3 rrcurveto
            350 39 rmoveto
            -13 -19 -23 -30 -32 -43 -123 -166 -67 -90 -10 -15 rrcurveto
            -15 -11 -11 -8 -11 hhcurveto
            -23 -17 17 16 7 2 7 3 5 hvcurveto
            52 67 73 94 44 58 15 23 rlinecurve
            67 104 44 56 21 9 rrcurveto
            3 5 6 1 7 hhcurveto
            14 13 -15 -21 -11 -4 -9 -9 -8 hvcurveto
            return
          </CharString>
          <CharString index="107">
            837 -96 callgsubr
            return
          </CharString>
          <CharString index="108">
            -99 callsubr
            9 -423 -87 callgsubr
          </CharString>
          <CharString index="109">
            rmoveto
            -14 -12 -10 -20 -10 hvcurveto
            10 -18 -21 5 -23 hhcurveto
            -47 -54 -32 -46 -33 hvcurveto
            -33 -46 -21 -64 -45 vvcurveto
            -66 24 -58 48 -51 vhcurveto
            -5 -9 -16 -28 -18 vvcurveto
            -12 14 -12 24 12 12 12 25 13 vhcurveto
            -11 24 24 -6 25 hhcurveto
            49 44 35 47 25 hvcurveto
            25 49 13 48 45 vvcurveto
            75 -17 61 -35 47 vhcurveto
            12 24 6 18 11 vvcurveto
            15 -12 7 -23 vhcurveto
            -175 -338 rmoveto
            -23 38 -12 34 30 vvcurveto
            88 80 81 58 -47 vhcurveto
            44 -64 rmoveto
            11 -31 6 -32 -34 vvcurveto
            -69 -20 -46 -39 -21 vhcurveto
            -23 -19 7 13 -15 hvcurveto
            endchar
          </CharString>
          <CharString index="110">
            798 -74 callgsubr
            return
          </CharString>
          <CharString index="111">
            -6 -47 26 -60 62 -7 23 -4 33 7 20 16 return
          </CharString>
          <CharString index="112">
            rmoveto
            -20 -14 -11 -21 -8 hvcurveto
            -53 21 -104 -15 -49 -60 rrcurveto
            -32 -39 -16 -50 -59 vvcurveto
            -61 18 -90 48 -48 vhcurveto
            -13 -23 -5 -30 24 -10 13 -8 29 7 10 22 61 -26 53 11 51 44 rrcurveto
            57 51 29 78 73 vvcurveto
            76 -20 58 -39 42 vhcurveto
            8 10 4 12 11 vvcurveto
            24 -14 11 -18 vhcurveto
            -67 -97 rmoveto
            -59 -128 -52 -114 -10 -21 rrcurveto
            -23 36 -14 58 39 vvcurveto
            111 83 36 75 -17 vhcurveto
            51 -39 rmoveto
            32 -53 -9 -83 -14 -60 -17 -68 -64 -34 -54 29 49 101 55 120 22 48 rrcurveto
            endchar
          </CharString>
          <CharString index="113">
            -33 216 665 rmoveto
            -94 -4 -72 -46 4 -84 2 -65 47 -71 57 -30 -80 -63 -37 -71 2 -82 2 -90 65 -63 107 4 107 4 76 60 -3 100 -3 87 -35 49 -69 74 55 37 44 47 -1 75 rrcurveto
            -1 87 -79 48 -94 -3 rrcurveto
            4 -70 rmoveto
            41 3 50 -26 1 -41 1 -45 -26 -18 -65 -49 -33 25 -62 26 -2 52 -2 52 45 17 52 4 rrcurveto
            -1 -272 rmoveto
            64 -65 33 -44 2 -53 rrcurveto
            -41 -22 -40 -54 -3 vhcurveto
            -72 -2 -49 31 -2 52 -4 56 34 62 70 47 rrcurveto
            endchar
          </CharString>
          <CharString index="114">
            rmoveto
            77 18 37 61 81 3 -83 -67 vhcurveto
            -3 -207 rlineto
            -18 4 9 -11 15 hhcurveto
            20 29 15 23 hvcurveto
            145 vlineto
            117 1 2 83 73 hhcurveto
            95 22 -104 -121 hvcurveto
            -3 -125 rlineto
            -22 9 -11 17 47 5 48 53 166 -14 78 -35 54 vhcurveto
            39 -24 -45 27 -53 hhcurveto
            -57 -44 -24 -48 -33 hvcurveto
            51 -29 -41 25 -52 hhcurveto
            -41 -33 -16 -33 -25 hvcurveto
            14 -6 -9 7 -12 hhcurveto
            -25 -23 -25 -27 hvcurveto
            16 -105 8 -120 -135 vvcurveto
            -19 3 11 -10 17 hhcurveto
            31 16 29 57 hvcurveto
            endchar
          </CharString>
          <CharString index="115">
            -81 -69 -27 -53 -56 hvcurveto
            -55 -52 -33 -88 -103 vvcurveto
            -103 27 -105 64 -69 vhcurveto
            -32 31 44 -21 48 hhcurveto
            return
          </CharString>
          <CharString index="116">
            -2 -59 4 -95 8 -76 rlinecurve
            -13 2 12 -12 10 hhcurveto
            20 24 7 24 -2 hvcurveto
            -3 49 -5 55 48 vvcurveto
            21 vlineto
            57 -6 76 -3 30 3 rrcurveto
            -32 -1 -97 -3 -40 vhcurveto
            -21 -1 12 -8 22 hhcurveto
            35 1 34 22 hvcurveto
            31 1 16 101 vvcurveto
            return
          </CharString>
          <CharString index="117">
            57 73 36 rmoveto
            -23 -1 9 -12 19 hhcurveto
            37 13 34 31 3 hvcurveto
            3 40 -2 92 -2 43 19 14 28 25 37 36 rrcurveto
            -149 134 53 -165 42 hhcurveto
            23 16 26 19 47 -32 33 -28 51 hvcurveto
            -30 55 -57 82 -57 57 rrcurveto
            59 69 117 146 48 vvcurveto
            16 -16 13 -21 -21 -15 -9 -18 -11 vhcurveto
            -75 -125 -52 -60 -117 -108 -3 128 -7 96 -10 64 rrcurveto
            20 -5 -11 10 -16 hhcurveto
            -25 -24 -26 -29 hvcurveto
            9 -66 17 -324 -103 vvcurveto
            return
          </CharString>
          <CharString index="118">
            rmoveto
            -24 -23 -15 -30 -38 5 -161 9 -119 hvcurveto
            2 callgsubr
            58 callsubr
            -5 86 4 57 -8 77 rrcurveto
            37 -5 -14 16 -16 hhcurveto
            endchar
          </CharString>
          <CharString index="119">
            -39 -38 6 -38 hhcurveto
            -130 -98 -85 -145 -52 13 -50 26 -46 hvcurveto
            -47 25 48 -32 46 return
          </CharString>
          <CharString index="120">
            22 41 -2 2 27 hvcurveto
            10 callgsubr
            return
          </CharString>
          <CharString index="121">
            rmoveto
            -45 -4 -48 -34 -13 hvcurveto
            -73 -26 -46 -36 -68 hhcurveto
            -47 -43 63 68 -2 hvcurveto
            19 -1 -23 7 -12 hhcurveto
            -23 -17 -23 -20 1 hvcurveto
            1 -59 -2 -271 -2 -45 rrcurveto
            -21 -1 10 -12 18 hhcurveto
            19 26 8 34 2 hvcurveto
            2 31 0 154 25 vvcurveto
            -21 22 36 -10 36 hhcurveto
            71 39 23 58 48 hvcurveto
            -135 3 63 -197 vvcurveto
            -21 8 -12 18 35 12 24 18 27 -1 269 -2 119 vhcurveto
            20 -14 8 -15 vhcurveto
            endchar
          </CharString>
          <CharString index="122">
            18 callsubr
            -5 71 -3 49 -1 26 return
          </CharString>
          <CharString index="123">
            64 31 rmoveto
            -21 -1 10 -10 20 hhcurveto
            10 34 1 32 40 -2 52 -1 39 hvcurveto
            14 10 20 15 25 22 19 -16 20 -19 18 -23 rrcurveto
            -55 44 43 -97 31 hhcurveto
            18 17 12 24 22 -70 125 -82 74 hvcurveto
            47 48 82 90 42 vvcurveto
            14 -13 11 -19 -17 -13 -7 -14 -9 vhcurveto
            -54 -80 -43 -44 -80 -66 rrcurveto
            52 -4 103 -17 37 vhcurveto
            12 -6 -7 6 -14 hhcurveto
            -15 -29 -8 -38 5 hvcurveto
            10 -74 9 -195 -63 vvcurveto
            return
          </CharString>
          <CharString index="124">
            rmoveto
            -15 -6 -7 -25 -129 vvcurveto
            -32 2 -93 19 -18 vhcurveto
            -18 20 46 22 68 hhcurveto
            67 54 -28 -107 -60 -43 -66 -60 -83 -27 85 -24 -45 hvcurveto
            -23 -12 -2 -11 -23 vvcurveto
            -53 87 -54 94 100 89 97 131 197 -165 49 -118 -43 vhcurveto
            -1 35 -2 51 58 vvcurveto
            80 5 92 -11 47 -10 rrcurveto
            18 -4 21 20 31 vvcurveto
            15 -7 12 -13 8 vhcurveto
            -96 30 -178 -11 -19 -8 rrcurveto
            endchar
          </CharString>
          <CharString index="125">
            5 -63 2 -60 -55 vvcurveto
            -21 9 -11 18 20 29 15 29 59 -2 66 -5 71 vhcurveto
            return
          </CharString>
          <CharString index="126">
            -70 299 457 rmoveto
            3 6 7 2 9 hhcurveto
            17 17 -17 -19 -10 -3 -8 -5 -7 hvcurveto
            -59 -44 -136 -98 -33 -24 23 -17 37 -25 52 -35 52 -35 39 -28 27 -22 rrcurveto
            5 -8 3 -8 -8 vvcurveto
            -16 -22 -19 -17 -9 -6 1 2 -3 vhcurveto
            -28 22 -43 31 -58 40 -58 40 -43 32 -29 23 rrcurveto
            -10 9 -5 10 12 vvcurveto
            12 6 10 11 7 vhcurveto
            95 79 86 64 75 49 rrcurveto
            return
          </CharString>
          <CharString index="127">
            rmoveto
            -98 -88 -56 -121 -80 47 -97 77 36 47 5 29 22 hvcurveto
            -109 5 -153 2 -42 vhcurveto
            -22 1 14 -19 11 hhcurveto
            22 28 16 27 -1 hvcurveto
            -2 60 1 218 -1 99 -1 63 7 93 -13 26 rrcurveto
            50 -25 -38 13 -53 hhcurveto
            45 -241 rmoveto
            -22 -17 -40 -10 -19 -5 rrcurveto
            -40 -10 -35 41 65 vvcurveto
            86 116 34 27 -20 vhcurveto
            19 -14 -6 -30 -48 vvcurveto
            endchar
          </CharString>
          <CharString index="128">
            -106 callgsubr
            19 return
          </CharString>
          <CharString index="129">
            233 427 rmoveto
            17 9 -11 -22 -20 -30 -36 -60 -52 hvcurveto
            -23 -20 -14 -13 -5 -6 7 -7 23 -20 13 -11 rrcurveto
            42 -39 21 -29 -21 vvcurveto
            -24 -14 -13 -14 -14 -33 23 22 -15 vhcurveto
            -8 11 -13 13 -17 15 rrcurveto
            -35 31 -15 16 28 vvcurveto
            28 14 25 21 21 vhcurveto
            10 11 10 10 11 9 21 19 30 25 9 12 rrcurveto
            12 9 27 13 16 hhcurveto
            return
          </CharString>
          <CharString index="130">
            -84 callgsubr
            -3 -427 -87 callgsubr
          </CharString>
          <CharString index="131">
            15 -2 -18 11 -10 hhcurveto
            return
          </CharString>
          <CharString index="132">
            -26 4 -49 -4 -39 -17 rrcurveto
            -102 -44 -36 -114 28 callsubr
            199 -4 80 vhcurveto
            return
          </CharString>
          <CharString index="133">
            rmoveto
            -25 -13 10 21 25 36 33 37 33 hvcurveto
            19 16 12 13 5 10 rrcurveto
            -51 53 -65 77 27 vvcurveto
            15 18 12 18 9 8 -4 -7 8 vhcurveto
            44 -44 85 -98 -23 vvcurveto
            -23 -12 -23 -15 -17 vhcurveto
            -15 -17 -12 -12 -14 -12 -14 -13 2 3 -15 -19 -17 -19 rcurveline
            -11 -17 -10 -6 -2 hhcurveto
            -4 hlineto
            endchar
          </CharString>
          <CharString index="134">
            715 rmoveto
            -23 -11 -18 -36 hvcurveto
            -64 1 -65 -64 vvcurveto
            25 callsubr
            -2 33 -4 257 -3 23 65 callgsubr
            return
          </CharString>
          <CharString index="135">
            -101 vvcurveto
            -101 64 -90 104 39 34 11 23 29 vhcurveto
            -31 14 -11 16 27 18 5 25 70 -8 return
          </CharString>
          <CharString index="136">
            rmoveto
            -37 -20 -43 -31 -31 29 -14 28 27 25 30 29 hvcurveto
            41 -4 -29 19 -19 hhcurveto
            endchar
          </CharString>
          <CharString index="137">
            -71 -50 vhcurveto
            -60 -41 -44 -32 -28 -23 rrcurveto
            -2 -3 -7 -1 -9 hhcurveto
            -19 -20 19 20 9 2 8 4 6 hvcurveto
            22 16 38 27 55 37 54 37 41 29 28 22 -23 17 -38 26 -52 35 -53 35 -39 28 -27 19 rrcurveto
            -9 11 -4 10 9 vvcurveto
            19 return
          </CharString>
          <CharString index="138">
            -16 -18 -12 -20 hvcurveto
            -71 -35 -18 -37 vvcurveto
            -23 11 -11 22 48 23 return
          </CharString>
          <CharString index="139">
            vvcurveto
            25 -21 20 -21 -11 -8 -2 -4 -7 vhcurveto
            -13 -8 return
          </CharString>
          <CharString index="140">
            23 -18 17 -17 -23 -13 -12 -26 -5 vhcurveto
            -2 -13 return
          </CharString>
          <CharString index="141">
            -42 -39 -9 -18 -36 hvcurveto
            -72 -36 -55 -77 -92 vvcurveto
            return
          </CharString>
          <CharString index="142">
            vvcurveto
            -21 8 -11 17 27 24 16 28 vhcurveto
            return
          </CharString>
          <CharString index="143">
            37 callgsubr
            30 return
          </CharString>
          <CharString index="144" raw="1">
            5f0afb22 fc79341d  
          </CharString>
          <CharString index="145">
            149 76 rmoveto
            -45 -7 -39 -14 41 callsubr
            2 60 callgsubr
            21 4 11 10 18 hhcurveto
            18 12 -9 -19 6 hvcurveto
            endchar
          </CharString>
          <CharString index="146">
            -62 323 196 rmoveto
            -84 -1 -83 4 -84 -4 rrcurveto
            -21 -1 -15 14 25 vvcurveto
            24 15 20 34 -1 vhcurveto
            82 -2 85 4 79 -2 rrcurveto
            27 -1 10 -19 -17 vvcurveto
            -21 -13 -22 -32 vhcurveto
            endchar
          </CharString>
          <CharString index="147">
            -36 vvcurveto
            -25 14 -12 14 7 18 -2 14 15 vhcurveto
            26 28 20 21 29 hhcurveto
            -21 28 45 -38 92 hhcurveto
            78 86 61 47 15 -12 11 -21 -11 -12 -3 -11 -9 hvcurveto
            -31 -24 -33 return
          </CharString>
          <CharString index="148">
            -35 vhcurveto
            -25 -9 -19 -20 -21 hhcurveto
            -22 -11 12 23 7 1 7 return
          </CharString>
          <CharString index="149">
            -9 -4 -9 -5 -9 -5 -23 -14 -12 -24 -2 -35 rrcurveto
            6 11 15 3 20 hhcurveto
            39 48 -38 -56 -57 -48 -54 -63 -63 -42 49 89 88 61 98 79 13 hvcurveto
            return
          </CharString>
          <CharString index="150">
            -84 -65 -49 -80 -57 23 -35 37 -15 return
          </CharString>
          <CharString index="151">
            rmoveto
            20 3 15 11 16 hhcurveto
            35 0 -45 -23 -11 -1 -14 -2 -16 hvcurveto
            -2 -16 -2 -23 -1 -31 rrcurveto
            -23 -1 -16 -14 -16 hhcurveto
            -17 -15 13 23 -4 hvcurveto
            return
          </CharString>
          <CharString index="152">
            -36 callgsubr
            hvcurveto
            52 56 13 24 vvcurveto
            return
          </CharString>
          <CharString index="153">
            6 64 37 85 vvcurveto
            return
          </CharString>
          <CharString index="154">
            655 -106 callgsubr
            return
          </CharString>
          <CharString index="155">
            -22 2 13 -11 17 hhcurveto
            21 25 -2 42 hvcurveto
            return
          </CharString>
          <CharString index="156">
            39 hhcurveto
            38 33 -19 -18 28 hvcurveto
            28 -18 35 -3 8 39 5 25 -25 22 -27 15 rrcurveto
            22 -40 -43 11 -45 hhcurveto
            return
          </CharString>
          <CharString index="157">
            -1 114 0 4 3 20 45 callgsubr
            return
          </CharString>
          <CharString index="158">
            2 vhcurveto
            27 1 -23 11 -15 hhcurveto
            return
          </CharString>
          <CharString index="159">
            86 -5 56 -1 64 4 rrcurveto
            43 3 34 -2 40 vvcurveto
            27 -30 12 -44 -82 -53 -4 7 -74 vhcurveto
            -31 3 return
          </CharString>
          <CharString index="160">
            -18 -21 -31 -1 -12 27 -16 36 -28 -11 -14 -9 -22 -14 12 -38 18 -22 45 -54 55 8 41 26 return
          </CharString>
          <CharString index="161">
            -3 105 -43 100 -67 72 -69 74 -82 51 -96 27 rrcurveto
            return
          </CharString>
          <CharString index="162">
            -32 -10 -16 -33 -2 return
          </CharString>
          <CharString index="163">
            -23 hhcurveto
            endchar
          </CharString>
          <CharString index="164">
            19 -3 69 callgsubr
            -21 -18 -22 -23 -7 vhcurveto
            return
          </CharString>
          <CharString index="165">
            83 -25 -58 19 -64 hhcurveto
            -33 -34 -9 -17 -33 hvcurveto
            return
          </CharString>
          <CharString index="166">
            -5 127 5 177 63 vvcurveto
            return
          </CharString>
          <CharString index="167">
            -11 -3 -2 4 2 return
          </CharString>
          <CharString index="168">
            -55 -32 59 71 74 41 111 95 -18 return
          </CharString>
          <CharString index="169">
            rmoveto
            165 -69 99 -138 -175 vvcurveto
            return
          </CharString>
          <CharString index="170">
            rrcurveto
            24 4 14 18 24 return
          </CharString>
          <CharString index="171">
            rmoveto
            65 callsubr
            return
          </CharString>
          <CharString index="172">
            16 callgsubr
            hvcurveto
            52 56 13 24 vvcurveto
            return
          </CharString>
          <CharString index="173">
            -17 22 hhcurveto
            26 9 20 37 -1 hvcurveto
            -2 76 -1 85 -1 95 return
          </CharString>
          <CharString index="174">
            18 -13 9 -15 -19 -28 -10 -29 return
          </CharString>
          <CharString index="175">
            -3 -139 7 -118 8 -91 return
          </CharString>
          <CharString index="176">
            vhcurveto
            11 -8 return
          </CharString>
          <CharString index="177">
            rrcurveto
            -33 1 -16 -21 -23 vvcurveto
            -19 13 -13 24 -1 vhcurveto
            return
          </CharString>
          <CharString index="178">
            -26 -15 -12 -13 17 -27 10 -16 18 -7 20 9 return
          </CharString>
          <CharString index="179">
            15 -1 7 -8 -16 vvcurveto
            -17 -11 -19 -15 -3 vhcurveto
            return
          </CharString>
          <CharString index="180">
            244 278 rmoveto
            37 54 0 -1 72 hvcurveto
            return
          </CharString>
          <CharString index="181">
            -16 -8 8 16 17 13 21 16 3 hvcurveto
            return
          </CharString>
          <CharString index="182">
            2 7 vhcurveto
            25 28 5 30 49 vvcurveto
            return
          </CharString>
          <CharString index="183">
            -4 -72 3 -245 3 -113 rrcurveto
            return
          </CharString>
          <CharString index="184">
            24 vvcurveto
            1 return
          </CharString>
          <CharString index="185">
            hvcurveto
            175 return
          </CharString>
          <CharString index="186">
            rmoveto
            60 callsubr
            31 rrcurveto
            return
          </CharString>
        <CharString name=".notdef">
          -238 endchar
        </CharString>
        <CharString name="A">
          22 259 659 -102 callsubr
        </CharString>
        <CharString name="A.smcp">
          9 320 28 -102 callgsubr
        </CharString>
        <CharString name="AE">
          195 487 560 -19 callgsubr
        </CharString>
        <CharString name="AE.smcp">
          134 324 460 rmoveto
          -50 -40 -13 -51 -49 hvcurveto
          -44 -44 -55 -78 -20 -152 rrcurveto
          -5 -38 -3 -32 -26 vvcurveto
          -16 11 -10 21 17 15 10 10 1 vhcurveto
          8 50 11 87 14 47 26 -3 51 2 44 1 rrcurveto
          -176 vlineto
          -18 1 18 -11 35 hhcurveto
          159 -2 rlineto
          28 11 13 32 17 -10 9 -20 2 hvcurveto
          -142 -4 -4 138 38 -1 40 2 38 -1 rlinecurve
          18 4 17 17 15 vvcurveto
          29 -47 2 -29 vhcurveto
          -26 -26 1 -25 hhcurveto
          -2 12 -1 25 83 vvcurveto
          39 40 -3 1 28 hvcurveto
          44 hlineto
          23 2 15 20 16 vvcurveto
          16 -9 13 -24 vhcurveto
          -231 -68 rmoveto
          2 -27 2 -79 -13 vvcurveto
          -21 -3 -60 3 -19 2 30 56 51 55 15 6 rrcurveto
          endchar
        </CharString>
        <CharString name="AEacute">
          195 378 878 -103 callsubr
          109 -318 -19 callgsubr
        </CharString>
        <CharString name="Aacute">
          22 289 876 -103 callsubr
          -30 -217 -102 callsubr
        </CharString>
        <CharString name="Aacute.smcp">
          9 258 678 -103 callsubr
          62 -650 -102 callgsubr
        </CharString>
        <CharString name="Abreve">
          22 164 836 -74 callsubr
        </CharString>
        <CharString name="Abreve.smcp">
          9 133 638 -70 callgsubr
        </CharString>
        <CharString name="Abreveacute">
          22 291 1013 -103 callsubr
          -127 -177 -74 callsubr
        </CharString>
        <CharString name="Abreveacute.smcp">
          9 260 815 -103 callsubr
          -127 -177 -70 callgsubr
        </CharString>
        <CharString name="Abrevedotbelow">
          22 164 836 -96 callgsubr
          95 -177 -38 callsubr
        </CharString>
        <CharString name="Abrevedotbelow.smcp">
          9 133 638 -96 callgsubr
          187 -610 -33 callgsubr
        </CharString>
        <CharString name="Abrevegrave">
          22 221 1006 -96 callsubr
          -57 -170 -74 callsubr
        </CharString>
        <CharString name="Abrevegrave.smcp">
          9 190 808 -96 callsubr
          -57 -170 -70 callgsubr
        </CharString>
        <CharString name="Abrevehookabove">
          22 257 995 -98 callsubr
          -93 -159 -74 callsubr
        </CharString>
        <CharString name="Abrevehookabove.smcp">
          9 226 797 -98 callsubr
          -93 -159 -70 callgsubr
        </CharString>
        <CharString name="Abrevetilde">
          22 212 966 -93 callgsubr
          -48 -130 -74 callsubr
        </CharString>
        <CharString name="Abrevetilde.smcp">
          9 181 768 -93 callgsubr
          -48 -130 -70 callgsubr
        </CharString>
        <CharString name="Acaron">
          22 169 854 -95 callsubr
          90 -195 -102 callsubr
        </CharString>
        <CharString name="Acaron.smcp">
          9 138 656 -95 callsubr
          182 -628 -102 callgsubr
        </CharString>
        <CharString name="Acircumflex">
          22 258 851 -3 callsubr
        </CharString>
        <CharString name="Acircumflex.smcp">
          9 227 653 -66 callgsubr
        </CharString>
        <CharString name="Acircumflexacute">
          22 450 982 -103 callsubr
          -192 -131 -3 callsubr
        </CharString>
        <CharString name="Acircumflexacute.smcp">
          9 419 784 -103 callsubr
          -192 -131 -66 callgsubr
        </CharString>
        <CharString name="Acircumflexdotbelow">
          22 258 851 -106 callgsubr
          1 -192 -38 callsubr
        </CharString>
        <CharString name="Acircumflexdotbelow.smcp">
          9 227 653 -106 callgsubr
          93 -625 -33 callgsubr
        </CharString>
        <CharString name="Acircumflexgrave">
          22 327 953 -96 callsubr
          -69 -102 -3 callsubr
        </CharString>
        <CharString name="Acircumflexgrave.smcp">
          9 296 755 -96 callsubr
          -69 -102 -66 callgsubr
        </CharString>
        <CharString name="Acircumflexhookabove">
          22 366 983 -98 callsubr
          -108 -132 -3 callsubr
        </CharString>
        <CharString name="Acircumflexhookabove.smcp">
          9 335 785 -98 callsubr
          -108 -132 -66 callgsubr
        </CharString>
        <CharString name="Acircumflextilde">
          22 212 981 -93 callgsubr
          46 -130 -3 callsubr
        </CharString>
        <CharString name="Acircumflextilde.smcp">
          9 181 783 -93 callgsubr
          46 -130 -66 callgsubr
        </CharString>
        <CharString name="Adieresis">
          22 122 750 -89 callgsubr
          -88 -148 -102 callsubr
        </CharString>
        <CharString name="Adieresis.smcp">
          9 91 552 -89 callgsubr
          4 -581 -102 callgsubr
        </CharString>
        <CharString name="Adotbelow">
          22 259 659 -38 callsubr
        </CharString>
        <CharString name="Adotbelow.smcp">
          9 320 28 -33 callgsubr
        </CharString>
        <CharString name="Agrave">
          22 219 869 -96 callsubr
          40 -210 -102 callsubr
        </CharString>
        <CharString name="Agrave.smcp">
          9 188 671 -96 callsubr
          132 -643 -102 callgsubr
        </CharString>
        <CharString name="Ahookabove">
          22 255 858 -98 callsubr
          4 -199 -102 callsubr
        </CharString>
        <CharString name="Ahookabove.smcp">
          9 224 660 -98 callsubr
          96 -632 -102 callgsubr
        </CharString>
        <CharString name="Amacron">
          22 381 797 -74 callgsubr
          -122 -138 -102 callsubr
        </CharString>
        <CharString name="Amacron.smcp">
          9 350 599 -74 callgsubr
          -30 -571 -102 callgsubr
        </CharString>
        <CharString name="Aogonek">
          22 534 -93 64 callsubr
          1 vlineto
          1 4 0 4 -1 5 -46 callgsubr
          -91 callsubr
          1 -3 0 -3 2 -2 -18 -17 -14 -26 -4 -33 4 callsubr
          rrcurveto
          8 5 34 26 -21 24 rrcurveto
          -209 419 rmoveto
          -45 callgsubr
          25 52 -213 -9 -7 hvcurveto
          endchar
        </CharString>
        <CharString name="Aogonek.smcp">
          9 319 31 rmoveto
          -19 -17 -16 -27 -5 -36 45 callsubr
          5 -1 6 -3 5 vhcurveto
          -24 106 7 -29 -22 78 -92 callsubr
          -121 79 rmoveto
          14 45 18 42 22 38 -40 callsubr
          endchar
        </CharString>
        <CharString name="Aring">
          22 261 859 -71 callgsubr
          -150 vmoveto
          14 callgsubr
        </CharString>
        <CharString name="Aring.smcp">
          9 230 661 -71 callgsubr
          92 -583 -102 callgsubr
        </CharString>
        <CharString name="Aringacute">
          22 285 1042 -9 callsubr
          -150 vmoveto
          14 callgsubr
        </CharString>
        <CharString name="Aringacute.smcp">
          9 254 844 -9 callsubr
          92 -583 -102 callgsubr
        </CharString>
        <CharString name="Aringbelow">
          22 259 659 -105 callgsubr
          -2 -577 -28 callsubr
        </CharString>
        <CharString name="Aringbelow.smcp">
          9 320 28 -106 callsubr
          -1 -377 -28 callsubr
        </CharString>
        <CharString name="Atilde">
          22 210 829 -93 callgsubr
          49 -170 -102 callsubr
        </CharString>
        <CharString name="Atilde.smcp">
          9 179 631 -93 callgsubr
          141 -603 -102 callgsubr
        </CharString>
        <CharString name="B">
          41 56 383 rmoveto
          1 -223 4 -126 8 -29 rrcurveto
          -1 53 44 -2 32 hhcurveto
          175 92 51 148 19 -2 53 -24 37 hvcurveto
          -15 22 -36 40 -36 5 rrcurveto
          35 31 12 40 60 vvcurveto
          77 -20 57 -96 20 vhcurveto
          -40 8 -70 2 -34 -17 rrcurveto
          -72 -38 -11 -60 -103 vvcurveto
          156 136 rmoveto
          78 7 37 -34 -59 vvcurveto
          -77 -50 -26 -51 -12 vhcurveto
          -37 -9 -36 -2 -15 -3 rrcurveto
          34 -2 52 28 vvcurveto
          36 -12 57 88 8 vhcurveto
          67 -285 rmoveto
          105 0 -76 -37 -96 -97 -15 -147 hvcurveto
          -7 77 2 83 51 vvcurveto
          10 73 49 3 22 hhcurveto
          endchar
        </CharString>
        <CharString name="B.smcp">
          -66 156 463 rmoveto
          -103 -13 -55 -109 hvcurveto
          -183 4 -93 -23 vvcurveto
          41 194 -1 35 33 hvcurveto
          30 29 15 29 50 vvcurveto
          49 -32 58 -49 11 vhcurveto
          21 22 10 29 36 vvcurveto
          70 -68 46 -83 vhcurveto
          -46 -113 rmoveto
          31 9 19 45 44 38 -22 -33 -63 -75 -17 -61 vhcurveto
          102 -53 rmoveto
          56 27 -23 -47 -43 -32 -22 -59 -10 hvcurveto
          -43 -7 -30 0 -18 1 -2 22 -3 95 1 26 rrcurveto
          6 43 34 2 26 hhcurveto
          endchar
        </CharString>
        <CharString name="C">
          82 336 654 -60 callgsubr
        </CharString>
        <CharString name="C.smcp">
          382 439 -48 callsubr
        </CharString>
        <CharString name="CR">
          -133 endchar
        </CharString>
        <CharString name="Cacute">
          82 354 -53 callgsubr
          -18 -223 -60 callgsubr
        </CharString>
        <CharString name="Cacute.smcp">
          271 -86 callsubr
          111 -238 -48 callsubr
        </CharString>
        <CharString name="Ccaron">
          82 234 -55 callsubr
          102 -201 -60 callgsubr
        </CharString>
        <CharString name="Ccaron.smcp">
          151 -78 callgsubr
          231 -216 -48 callsubr
        </CharString>
        <CharString name="Ccedilla">
          82 472 149 rmoveto
          -9 -16 -6 -11 -23 hvcurveto
          -31 callgsubr
          8 callsubr
          6 6 0 1 6 hvcurveto
          -14 vlineto
          36 callsubr
          3 1 rcurveline
          25 callgsubr
          vhcurveto
          endchar
        </CharString>
        <CharString name="Ccedilla.smcp">
          382 438 rmoveto
          14 12 callsubr
          3 3 0 4 hhcurveto
          -1 -17 rlineto
          36 callsubr
          34 10 37 15 42 18 rrcurveto
          -35 callgsubr
        </CharString>
        <CharString name="Ccircumflex">
          82 323 -38 callgsubr
          13 -198 -60 callgsubr
        </CharString>
        <CharString name="Ccircumflex.smcp">
          240 -66 callsubr
          142 -213 -48 callsubr
        </CharString>
        <CharString name="Cdotaccent">
          82 320 28 callgsubr
          16 -174 -60 callgsubr
        </CharString>
        <CharString name="Cdotaccent.smcp">
          237 -16 callsubr
          145 -189 -48 callsubr
        </CharString>
        <CharString name="D">
          9 72 -28 -5 callsubr
        </CharString>
        <CharString name="D.smcp">
          -26 74 -10 17 callgsubr
        </CharString>
        <CharString name="Dcaron">
          9 141 -55 callsubr
          -69 -883 -5 callsubr
        </CharString>
        <CharString name="Dcaron.smcp">
          -26 72 -78 callgsubr
          2 -665 17 callgsubr
        </CharString>
        <CharString name="Dcroat">
          84 165 661 rmoveto
          -19 7 -39 -12 -9 -31 rrcurveto
          -3 -48 -1 -78 -107 vvcurveto
          -61 -1 -12 -8 -28 vvcurveto
          -25 7 -10 66 -3 vhcurveto
          3 -91 6 -80 9 -67 rrcurveto
          58 callgsubr
          -80 17 1 -7 24 hhcurveto
          39 26 31 29 -14 hvcurveto
          -5 25 28 -2 30 hhcurveto
          126 107 64 170 hvcurveto
          54 callsubr
          16 -85 62 callsubr
          -81 -46 -37 -140 -25 -21 2 5 -17 vhcurveto
          -9 73 -6 78 -3 83 rrcurveto
          96 4 6 1 32 vvcurveto
          29 -2 4 -101 5 vhcurveto
          86 1 61 3 37 vhcurveto
          endchar
        </CharString>
        <CharString name="Dcroat.smcp">
          -6 callsubr
        </CharString>
        <CharString name="E">
          -24 59 197 -105 callsubr
        </CharString>
        <CharString name="E.smcp">
          -86 285 2 -99 callgsubr
        </CharString>
        <CharString name="Eacute">
          -24 265 -53 callgsubr
          -206 -680 -105 callsubr
        </CharString>
        <CharString name="Eacute.smcp">
          -86 219 -86 callsubr
          66 -675 -99 callgsubr
        </CharString>
        <CharString name="Ebreve">
          -24 140 0 callsubr
          -81 -640 -105 callsubr
        </CharString>
        <CharString name="Ebreve.smcp">
          -86 94 -44 callgsubr
          191 -635 -99 callgsubr
        </CharString>
        <CharString name="Ecaron">
          -24 145 -55 callsubr
          -86 -658 -105 callsubr
        </CharString>
        <CharString name="Ecaron.smcp">
          -86 99 -78 callgsubr
          186 -653 -99 callgsubr
        </CharString>
        <CharString name="Ecircumflex">
          -24 234 852 -81 callgsubr
        </CharString>
        <CharString name="Ecircumflex.smcp">
          -86 188 652 -75 callsubr
        </CharString>
        <CharString name="Ecircumflexacute">
          -24 426 983 -103 callsubr
          -192 -131 -81 callgsubr
        </CharString>
        <CharString name="Ecircumflexacute.smcp">
          -86 380 783 -103 callsubr
          -192 -131 -75 callsubr
        </CharString>
        <CharString name="Ecircumflexdotbelow">
          -24 234 -38 callgsubr
          -175 -655 -17 callsubr
        </CharString>
        <CharString name="Ecircumflexdotbelow.smcp">
          -86 188 -66 callsubr
          97 -650 -104 callsubr
          100 -32 -87 callgsubr
        </CharString>
        <CharString name="Ecircumflexgrave">
          -24 303 954 -96 callsubr
          -69 -102 -81 callgsubr
        </CharString>
        <CharString name="Ecircumflexgrave.smcp">
          -86 257 754 -96 callsubr
          -69 -102 -75 callsubr
        </CharString>
        <CharString name="Ecircumflexhookabove">
          -24 342 984 -98 callsubr
          -108 -132 -81 callgsubr
        </CharString>
        <CharString name="Ecircumflexhookabove.smcp">
          -86 296 784 -98 callsubr
          -108 -132 -75 callsubr
        </CharString>
        <CharString name="Ecircumflextilde">
          -24 188 982 -93 callgsubr
          46 -130 -81 callgsubr
        </CharString>
        <CharString name="Ecircumflextilde.smcp">
          -86 142 782 -93 callgsubr
          46 -130 -75 callsubr
        </CharString>
        <CharString name="Edieresis">
          -24 98 -34 callgsubr
          -264 -611 -105 callsubr
        </CharString>
        <CharString name="Edieresis.smcp">
          -86 52 -62 callsubr
          8 -606 -99 callgsubr
        </CharString>
        <CharString name="Edotaccent">
          -24 231 28 callgsubr
          -172 -631 -105 callsubr
        </CharString>
        <CharString name="Edotaccent.smcp">
          -86 185 -16 callsubr
          100 -626 -99 callgsubr
        </CharString>
        <CharString name="Edotbelow">
          -24 59 197 -17 callsubr
        </CharString>
        <CharString name="Edotbelow.smcp">
          -86 285 2 -104 callsubr
          100 -32 -87 callgsubr
        </CharString>
        <CharString name="Egrave">
          -24 195 -25 callsubr
          -136 -673 -105 callsubr
        </CharString>
        <CharString name="Egrave.smcp">
          -86 149 -52 callsubr
          136 -668 -99 callgsubr
        </CharString>
        <CharString name="Ehookabove">
          -24 231 -28 callgsubr
          -172 -662 -105 callsubr
        </CharString>
        <CharString name="Ehookabove.smcp">
          -86 185 -55 callgsubr
          100 -657 -99 callgsubr
        </CharString>
        <CharString name="Emacron">
          -24 357 3 callsubr
          -298 -601 -105 callsubr
        </CharString>
        <CharString name="Emacron.smcp">
          -86 311 -27 callgsubr
          -26 -596 -99 callgsubr
        </CharString>
        <CharString name="Eng">
          66 417 149 rmoveto
          -15 32 -113 197 -29 callsubr
          131 -205 68 -117 82 -140 15 -25 -6 -35 -17 -18 53 callsubr
          rrcurveto
          75 48 -13 79 68 33 -7 366 157 32 callsubr
          -8 -33 2 -57 rrcurveto
          endchar
        </CharString>
        <CharString name="Eng.smcp">
          401 22 rmoveto
          28 1 218 -5 153 vhcurveto
          33 callsubr
          14 -105 3 -185 -21 44 -39 54 -35 callsubr
          35 -54 26 -40 22 -32 23 -29 rrcurveto
          -32 -23 -22 -33 -43 15 62 -11 -38 vhcurveto
          -23 -6 -4 -12 5 -25 rrcurveto
          -43 8 38 -25 44 hhcurveto
          39 77 24 105 hvcurveto
          endchar
        </CharString>
        <CharString name="Eogonek">
          -24 133 77 rmoveto
          -103 callgsubr
          4 -147 rlineto
          -24 callsubr
          189 3 -8 -14 -6 -16 -2 -19 rlinecurve
          -36 callgsubr
          45 41 16 12 18 hvcurveto
          11 10 7 13 12 vvcurveto
          15 -11 9 -21 3 vhcurveto
          endchar
        </CharString>
        <CharString name="Eogonek.smcp">
          -86 122 66 rmoveto
          -101 callgsubr
          134 1 -7 -13 -6 -16 -2 -19 rlinecurve
          -36 callgsubr
          38 30 17 16 16 hvcurveto
          12 9 1 15 11 vvcurveto
          15 -10 8 -19 2 vhcurveto
          endchar
        </CharString>
        <CharString name="Eth">
          123 72 317 rmoveto
          -23 3 -13 16 19 vvcurveto
          19 14 17 23 1 vhcurveto
          36 hlineto
          107 1 78 3 48 vhcurveto
          5 17 12 12 19 6 rrcurveto
          1 6 6 1 6 hhcurveto
          5 5 0 -1 3 hvcurveto
          96 -27 82 -51 69 -74 67 -72 43 -100 3 -105 rrcurveto
          -117 -49 -74 -97 -30 vhcurveto
          -9 -29 -29 -4 -29 hhcurveto
          -30 -28 2 5 -25 hvcurveto
          3 -6 1 -7 -8 vvcurveto
          -17 -24 -22 -31 -15 -10 9 18 -4 vhcurveto
          -13 60 rlineto
          -10 7 -5 9 9 vvcurveto
          9 4 7 7 6 vhcurveto
          -9 67 -6 80 -3 91 rrcurveto
          156 75 rmoveto
          20 -5 10 -13 -20 vvcurveto
          -21 -10 -12 -21 -4 vhcurveto
          -71 hlineto
          3 -83 6 -78 9 -73 rrcurveto
          -5 17 21 -2 25 hhcurveto
          92 87 22 53 4 hvcurveto
          2 19 1 15 9 vvcurveto
          175 -99 138 -165 69 vhcurveto
          -3 -37 -1 -61 -86 vvcurveto
          endchar
        </CharString>
        <CharString name="Eth.smcp">
          -6 callsubr
        </CharString>
        <CharString name="Etilde">
          -24 186 -23 callsubr
          -127 -633 -105 callsubr
        </CharString>
        <CharString name="Etilde.smcp">
          -86 140 -45 callsubr
          145 -628 -99 callgsubr
        </CharString>
        <CharString name="Euro">
          15 352 325 rmoveto
          19 -7 9 -14 -16 vvcurveto
          -17 -10 -14 -21 -4 vhcurveto
          -192 hlineto
          28 -64 54 -66 67 -20 65 -19 57 36 25 -16 rrcurveto
          11 -7 6 -10 -15 vvcurveto
          -37 -52 -34 -96 11 vhcurveto
          -66 8 -69 59 -29 35 -39 47 -24 60 -10 32 rrcurveto
          -30 hlineto
          -23 4 -13 16 17 vvcurveto
          16 14 16 23 3 vhcurveto
          15 hlineto
          22 1 17 1 15 vhcurveto
          -20 hlineto
          -19 -15 17 17 20 12 12 25 3 hvcurveto
          29 hlineto
          43 19 53 173 204 hhcurveto
          83 49 -16 -40 -8 hvcurveto
          -18 -4 -7 -13 -23 -18 -38 11 -51 hhcurveto
          -56 -76 -42 -103 -44 hvcurveto
          163 1 rlineto
          15 -1 38 -3 -35 vvcurveto
          -17 -10 -13 -19 -3 vhcurveto
          -92 -70 1 3 -48 hvcurveto
          -2 -18 -1 -10 -2 vvcurveto
          2 -21 rlineto
          endchar
        </CharString>
        <CharString name="Euro.smcp">
          3 150 271 rmoveto
          -2 0 -2 1 -2 vhcurveto
          179 hlineto
          19 -7 9 -12 -19 vvcurveto
          -19 -11 -10 -21 -2 vhcurveto
          -156 hlineto
          24 -45 28 -33 33 -22 rrcurveto
          -11 17 16 -6 14 hhcurveto
          14 16 4 7 19 hvcurveto
          7 18 13 3 9 hhcurveto
          16 18 -17 -17 -9 -3 -7 -6 -6 hvcurveto
          -9 -11 -17 -8 -25 -7 rrcurveto
          -5 -31 -18 -3 -5 hhcurveto
          -8 hlineto
          -111 -73 117 69 -27 hvcurveto
          -24 hlineto
          -15 1 -11 7 -6 11 rrcurveto
          -3 5 -1 5 5 vvcurveto
          19 15 15 24 1 vhcurveto
          7 hlineto
          13 0 9 1 6 vhcurveto
          -11 hlineto
          -19 -17 16 17 20 13 12 25 3 hvcurveto
          24 hlineto
          49 97 36 33 57 21 rrcurveto
          11 28 32 5 36 hhcurveto
          79 39 -18 -36 -19 -16 -9 -19 -10 -15 4 7 -20 hvcurveto
          7 -21 -17 3 -13 hhcurveto
          -27 -33 -13 -35 -35 hvcurveto
          -17 -17 -15 -21 -12 -25 18 -1 rcurveline
          85 hlineto
          39 1 24 -5 9 -10 rrcurveto
          4 -5 2 -7 -9 vvcurveto
          -20 -10 -11 -20 -2 vhcurveto
          -77 -59 1 1 -43 hvcurveto
          endchar
        </CharString>
        <CharString name="F">
          -91 307 310 rmoveto
          28 11 18 28 16 -16 16 -14 hvcurveto
          -204 184 hlineto
          52 callsubr
          -25 4 -25 -2 rrcurveto
          -18 -3 -15 -26 -14 vvcurveto
          -32 14 -13 23 3 vhcurveto
          5 -77 -5 -424 6 -29 rrcurveto
          -29 4 15 66 callsubr
          rrcurveto
          endchar
        </CharString>
        <CharString name="F.smcp">
          -116 248 211 rmoveto
          23 10 18 19 15 -15 16 -12 hvcurveto
          -130 108 hlineto
          53 -3 37 -1 43 3 rrcurveto
          27 2 32 -1 36 vvcurveto
          23 -29 9 -29 -56 -35 -2 4 -50 vhcurveto
          -21 2 -18 3 -18 -1 rrcurveto
          -15 -3 -14 -22 -10 vvcurveto
          -23 11 -13 15 -2 vhcurveto
          2 -66 -3 -266 4 -20 rrcurveto
          -22 3 13 -16 20 hhcurveto
          22 9 20 27 hvcurveto
          -2 49 -1 55 62 vvcurveto
          endchar
        </CharString>
        <CharString name="G">
          14 331 664 -52 callgsubr
          endchar
        </CharString>
        <CharString name="G.smcp">
          -46 262 461 -54 callsubr
          endchar
        </CharString>
        <CharString name="Gbreve">
          14 192 841 -96 callgsubr
          139 -177 -52 callgsubr
          endchar
        </CharString>
        <CharString name="Gbreve.smcp">
          -46 131 -44 callgsubr
          131 -176 -54 callsubr
          endchar
        </CharString>
        <CharString name="Gcircumflex">
          14 286 856 -106 callgsubr
          45 -192 -52 callgsubr
          endchar
        </CharString>
        <CharString name="Gcircumflex.smcp">
          -46 225 -66 callsubr
          37 -191 -54 callsubr
          endchar
        </CharString>
        <CharString name="Gcommaaccent">
          14 331 664 -52 callgsubr
          -29 -704 -82 callgsubr
        </CharString>
        <CharString name="Gcommaaccent.smcp">
          -46 262 461 -54 callsubr
          -8 -491 -82 callgsubr
        </CharString>
        <CharString name="Gdotaccent">
          14 283 832 -56 callgsubr
          48 -168 -52 callgsubr
          endchar
        </CharString>
        <CharString name="Gdotaccent.smcp">
          -46 222 -16 callsubr
          40 -167 -54 callsubr
          endchar
        </CharString>
        <CharString name="H">
          2 403 662 7 callgsubr
        </CharString>
        <CharString name="H.smcp">
          -86 238 264 13 callgsubr
        </CharString>
        <CharString name="Hbar">
          34 482 514 rmoveto
          24 callgsubr
          rrcurveto
          -2 -3 0 -2 hhcurveto
          90 vlineto
          24 -15 9 -15 -46 -1 -19 -18 vhcurveto
          -89 vlineto
          -69 -84 3 5 -68 hvcurveto
          1 79 rlineto
          67 callsubr
          vhcurveto
          -20 0 -20 -20 vvcurveto
          -4 hlineto
          -30 4 -17 -18 -37 vvcurveto
          -18 13 -11 22 -2 vhcurveto
          4 5 -1 5 hhcurveto
          -3 -101 68 callsubr
          rlinecurve
          12 callgsubr
          61 1 62 63 vvcurveto
          4 hlineto
          28 1 13 15 -2 40 rrcurveto
          -118 -143 rmoveto
          -47 -4 -107 4 -72 12 1 79 rcurveline
          -4 72 81 -2 70 hhcurveto
          1 -32 0 -29 1 -24 rrcurveto
          endchar
        </CharString>
        <CharString name="Hbar.smcp">
          -6 374 421 rmoveto
          63 callgsubr
          hvcurveto
          -57 vlineto
          -51 -57 3 4 -51 hvcurveto
          49 vlineto
          15 1 -11 7 -15 hhcurveto
          -18 -21 -12 -17 -1 hvcurveto
          -36 -1 vlineto
          -26 4 -15 -16 -33 vvcurveto
          -15 11 -10 20 -2 vhcurveto
          8 -1 -1 -58 9 callsubr
          100 4 vlineto
          25 1 11 14 -1 35 rrcurveto
          13 -1 -14 9 -17 hhcurveto
          -7 -1 rlineto
          -97 -111 rmoveto
          -54 -1 -43 3 -35 6 rrcurveto
          36 vlineto
          -4 54 55 -1 53 hhcurveto
          1 -39 rlineto
          endchar
        </CharString>
        <CharString name="Hcircumflex">
          2 237 -38 callgsubr
          166 -190 7 callgsubr
        </CharString>
        <CharString name="Hcircumflex.smcp">
          -86 187 -66 callsubr
          51 -388 13 callgsubr
        </CharString>
        <CharString name="I">
          -231 86 276 -65 callsubr
        </CharString>
        <CharString name="I.smcp">
          -316 72 462 -50 callgsubr
        </CharString>
        <CharString name="IJ">
          139 527 668 8 callgsubr
          -441 -392 -65 callsubr
        </CharString>
        <CharString name="IJ.smcp">
          377 467 -10 callgsubr
          -305 -5 -50 callgsubr
        </CharString>
        <CharString name="Iacute">
          -231 152 -53 callgsubr
          -66 -601 -65 callsubr
        </CharString>
        <CharString name="Iacute.smcp">
          -316 106 679 -103 callsubr
          -34 -217 -50 callgsubr
        </CharString>
        <CharString name="Ibreve">
          -231 27 0 callsubr
          59 -561 -65 callsubr
        </CharString>
        <CharString name="Ibreve.smcp">
          -316 -19 639 -96 callgsubr
          91 -177 -50 callgsubr
        </CharString>
        <CharString name="Icaron">
          -231 32 -55 callsubr
          54 -579 -65 callsubr
        </CharString>
        <CharString name="Icaron.smcp">
          -316 -14 657 -95 callsubr
          86 -195 -50 callgsubr
        </CharString>
        <CharString name="Icircumflex">
          -231 121 -38 callgsubr
          -35 -576 -65 callsubr
        </CharString>
        <CharString name="Icircumflex.smcp">
          -316 75 654 -106 callgsubr
          -3 -192 -50 callgsubr
        </CharString>
        <CharString name="Idieresis">
          -231 -15 -34 callgsubr
          -124 -532 -65 callsubr
        </CharString>
        <CharString name="Idieresis.smcp">
          -316 -61 553 -89 callgsubr
          -92 -148 -50 callgsubr
        </CharString>
        <CharString name="Idotaccent">
          -231 118 28 callgsubr
          -32 -552 -65 callsubr
        </CharString>
        <CharString name="Idotaccent.smcp">
          -316 72 630 -56 callgsubr
          -168 vmoveto
          -60 callsubr
        </CharString>
        <CharString name="Idotbelow">
          -231 86 276 -67 callsubr
          31 -658 -87 callgsubr
        </CharString>
        <CharString name="Idotbelow.smcp">
          -316 72 462 rmoveto
          -61 callgsubr
          -4 -498 -87 callgsubr
        </CharString>
        <CharString name="Igrave">
          -231 82 -25 callsubr
          4 -594 -65 callsubr
        </CharString>
        <CharString name="Igrave.smcp">
          -316 36 672 -96 callsubr
          36 -210 -50 callgsubr
        </CharString>
        <CharString name="Ihookabove">
          -231 118 -28 callgsubr
          -32 -583 -65 callsubr
        </CharString>
        <CharString name="Ihookabove.smcp">
          -316 72 661 -98 callsubr
          -199 vmoveto
          -60 callsubr
        </CharString>
        <CharString name="Imacron">
          -231 244 3 callsubr
          -158 -522 -65 callsubr
        </CharString>
        <CharString name="Imacron.smcp">
          -316 198 600 -74 callgsubr
          -126 -138 -50 callgsubr
        </CharString>
        <CharString name="Iogonek">
          -231 86 276 rmoveto
          -92 -3 -81 -6 -68 vhcurveto
          -18 -17 -16 -26 -4 -35 -36 callgsubr
          45 42 16 11 19 hvcurveto
          4 5 2 5 1 5 rrcurveto
          -47 callsubr
          endchar
        </CharString>
        <CharString name="Iogonek.smcp">
          -316 171 -82 64 callsubr
          0 0 1 0 vhcurveto
          -12 callgsubr
          -19 -16 -11 -20 -62 -2 -265 -2 -65 hvcurveto
          -19 -17 -17 -27 -5 -37 -24 callgsubr
          endchar
        </CharString>
        <CharString name="Itilde">
          -231 73 -23 callsubr
          13 -554 -65 callsubr
        </CharString>
        <CharString name="Itilde.smcp">
          -316 27 632 -93 callgsubr
          45 -170 -50 callgsubr
        </CharString>
        <CharString name="J">
          -96 292 668 8 callgsubr
          endchar
        </CharString>
        <CharString name="J.smcp">
          -166 227 467 -10 callgsubr
          endchar
        </CharString>
        <CharString name="Jcircumflex">
          -96 273 -38 callgsubr
          19 -184 8 callgsubr
          endchar
        </CharString>
        <CharString name="Jcircumflex.smcp">
          -166 206 -66 callsubr
          21 -185 -10 callgsubr
          endchar
        </CharString>
        <CharString name="K">
          10 callsubr
          endchar
        </CharString>
        <CharString name="K.smcp">
          16 callsubr
          endchar
        </CharString>
        <CharString name="Kcommaaccent">
          10 callsubr
          213 -153 -82 callgsubr
        </CharString>
        <CharString name="Kcommaaccent.smcp">
          16 callsubr
          193 -123 -82 callgsubr
        </CharString>
        <CharString name="L">
          5 callgsubr
          endchar
        </CharString>
        <CharString name="L.smcp">
          -15 callgsubr
          endchar
        </CharString>
        <CharString name="Lacute">
          -94 118 -53 callgsubr
          -90 -660 30 callgsubr
        </CharString>
        <CharString name="Lacute.smcp">
          -166 110 678 -103 callsubr
          -81 -532 -26 callgsubr
          endchar
        </CharString>
        <CharString name="Lcaron">
          -94 274 662 50 callgsubr
          -246 -445 30 callgsubr
        </CharString>
        <CharString name="Lcaron.smcp">
          -15 callgsubr
          endchar
        </CharString>
        <CharString name="Lcommaaccent">
          5 callgsubr
          164 -674 -82 callgsubr
        </CharString>
        <CharString name="Lcommaaccent.smcp">
          -15 callgsubr
          164 -475 -82 callgsubr
        </CharString>
        <CharString name="Ldot">
          5 callgsubr
          220 -298 29 callsubr
        </CharString>
        <CharString name="Ldot.smcp">
          -15 callgsubr
          186 -161 29 callsubr
        </CharString>
        <CharString name="Lslash">
          126 354 rmoveto
          -26 -14 -25 -14 -25 -16 71 callsubr
          47 23 rcurveline
          -1 -47 rlineto
          -22 callsubr
          18 1 21 1 24 vhcurveto
          32 20 33 22 36 28 71 callgsubr
          -21 -17 -19 -14 -19 -13 5 82 8 86 2 51 rrcurveto
          38 callgsubr
          endchar
        </CharString>
        <CharString name="Lslash.smcp">
          -96 87 201 rmoveto
          -37 -31 rlineto
          -20 -17 -8 -9 -17 vvcurveto
          -18 14 -7 13 12 7 2 13 18 vhcurveto
          -18 -1 -35 -23 vvcurveto
          -29 10 -13 24 vhcurveto
          163 -1 11 0 22 11 rrcurveto
          13 6 7 11 15 vvcurveto
          20 -12 10 -25 vhcurveto
          -143 -9 -4 20 -2 46 4 49 rlinecurve
          44 38 28 22 22 vvcurveto
          16 -14 12 -14 -14 -24 -16 0 vhcurveto
          15 155 rlineto
          22 -19 12 -25 -26 -12 -9 -16 vhcurveto
          endchar
        </CharString>
        <CharString name="M">
          129 513 666 9 callgsubr
        </CharString>
        <CharString name="M.smcp">
          14 413 485 14 callsubr
        </CharString>
        <CharString name="Macute">
          129 313 -53 callgsubr
          200 -211 9 callgsubr
        </CharString>
        <CharString name="Macute.smcp">
          14 265 -86 callsubr
          148 -192 14 callsubr
        </CharString>
        <CharString name="N">
          66 416 143 -56 callsubr
          endchar
        </CharString>
        <CharString name="N.smcp">
          -26 388 421 -51 callgsubr
          endchar
        </CharString>
        <CharString name="Nacute">
          66 300 -53 callgsubr
          116 -734 -56 callsubr
          endchar
        </CharString>
        <CharString name="Nacute.smcp">
          -26 242 -86 callsubr
          146 -256 -51 callgsubr
          endchar
        </CharString>
        <CharString name="Ncaron">
          66 180 -55 callsubr
          236 -712 -56 callsubr
          endchar
        </CharString>
        <CharString name="Ncaron.smcp">
          -26 122 -78 callgsubr
          266 -234 -51 callgsubr
          endchar
        </CharString>
        <CharString name="Ncommaaccent">
          66 416 143 -56 callsubr
          -116 -597 -82 callgsubr
        </CharString>
        <CharString name="Ncommaaccent.smcp">
          -26 388 421 -51 callgsubr
          -131 -88 -82 callgsubr
        </CharString>
        <CharString name="Ntilde">
          66 221 -23 callsubr
          195 -687 -56 callsubr
          endchar
        </CharString>
        <CharString name="Ntilde.smcp">
          -26 163 -45 callsubr
          225 -209 -51 callgsubr
          endchar
        </CharString>
        <CharString name="O">
          90 306 665 -97 callgsubr
        </CharString>
        <CharString name="O.smcp">
          237 457 -81 callsubr
        </CharString>
        <CharString name="OE">
          309 549 571 rmoveto
          -13 -26 2 4 -38 hvcurveto
          -97 1 -66 2 -35 vhcurveto
          -2 81 54 -1 27 hhcurveto
          26 -5 13 -11 -17 vvcurveto
          -17 -18 -21 -23 -5 vhcurveto
          -126 5 rlineto
          -33 hlineto
          6 -177 rlineto
          -23 0 -17 -1 -11 vhcurveto
          192 3 rlineto
          23 -3 11 -10 -15 vvcurveto
          -21 -21 -23 -25 -7 vhcurveto
          -193 hlineto
          -59 -1 -21 21 55 vvcurveto
          -60 -40 -29 -15 -68 hhcurveto
          -34 -28 8 15 -23 hvcurveto
          -79 52 -39 136 125 vvcurveto
          63 2 42 4 21 vhcurveto
          7 42 6 31 12 22 6 11 7 11 8 12 rrcurveto
          37 25 57 32 87 hhcurveto
          74 44 -18 -36 13 hvcurveto
          7 vlineto
          29 15 8 20 6 vhcurveto
          3 10 14 1 19 hhcurveto
          18 19 0 -1 20 hvcurveto
          40 -2 60 -4 45 -1 rrcurveto
          28 -6 14 -12 -17 vvcurveto
          -31 -43 -16 -85 vhcurveto
          -229 -243 rmoveto
          83 -5 57 -10 31 vhcurveto
          -10 31 -9 20 -8 9 -23 15 -18 9 -13 1 rrcurveto
          -95 -48 -71 -142 -93 24 -76 20 -40 hvcurveto
          -41 19 29 -29 33 hhcurveto
          76 38 79 157 hvcurveto
          endchar
        </CharString>
        <CharString name="OE.smcp">
          164 519 -3 rmoveto
          21 19 15 26 19 -9 9 -20 2 hvcurveto
          -142 -3 -4 139 58 -1 21 0 38 -1 rlinecurve
          19 16 20 17 28 -28 3 -15 -49 -43 -1 2 -19 hvcurveto
          -1 39 0 40 -1 39 rrcurveto
          38 84 -1 2 35 hvcurveto
          23 1 12 18 16 vvcurveto
          15 -12 15 -25 1 vhcurveto
          1 -44 -106 4 -12 hhcurveto
          -33 -19 -9 -16 -6 hvcurveto
          16 -16 -32 9 -45 hhcurveto
          -121 -54 -54 -165 -113 42 -129 113 57 20 7 35 28 hvcurveto
          -32 8 19 -11 38 hhcurveto
          -151 396 rmoveto
          68 -8 0 -87 -73 vvcurveto
          -101 -28 -50 -55 -52 -37 96 72 94 34 65 70 -8 vhcurveto
          endchar
        </CharString>
        <CharString name="Oacute">
          90 326 -53 callgsubr
          -20 -212 -97 callgsubr
        </CharString>
        <CharString name="Oacute.smcp">
          249 -86 callsubr
          -12 -220 -81 callsubr
        </CharString>
        <CharString name="Obreve">
          90 201 0 callsubr
          105 -172 -97 callgsubr
        </CharString>
        <CharString name="Obreve.smcp">
          124 -44 callgsubr
          113 -180 -81 callsubr
        </CharString>
        <CharString name="Ocaron">
          90 206 -55 callsubr
          100 -190 -97 callgsubr
        </CharString>
        <CharString name="Ocaron.smcp">
          129 -78 callgsubr
          108 -198 -81 callsubr
        </CharString>
        <CharString name="Ocircumflex">
          90 295 852 -71 callsubr
        </CharString>
        <CharString name="Ocircumflex.smcp">
          218 652 -49 callsubr
        </CharString>
        <CharString name="Ocircumflexacute">
          90 487 983 -103 callsubr
          -192 -131 -71 callsubr
        </CharString>
        <CharString name="Ocircumflexacute.smcp">
          410 783 -103 callsubr
          -192 -131 -49 callsubr
        </CharString>
        <CharString name="Ocircumflexdotbelow">
          90 295 -38 callgsubr
          11 -187 -4 callgsubr
        </CharString>
        <CharString name="Ocircumflexdotbelow.smcp">
          218 -66 callsubr
          19 -195 23 callsubr
        </CharString>
        <CharString name="Ocircumflexgrave">
          90 364 954 -96 callsubr
          -69 -102 -71 callsubr
        </CharString>
        <CharString name="Ocircumflexgrave.smcp">
          287 754 -96 callsubr
          -69 -102 -49 callsubr
        </CharString>
        <CharString name="Ocircumflexhookabove">
          90 403 984 -98 callsubr
          -108 -132 -71 callsubr
        </CharString>
        <CharString name="Ocircumflexhookabove.smcp">
          326 784 -98 callsubr
          -108 -132 -49 callsubr
        </CharString>
        <CharString name="Ocircumflextilde">
          90 249 982 -93 callgsubr
          46 -130 -71 callsubr
        </CharString>
        <CharString name="Ocircumflextilde.smcp">
          172 782 -93 callgsubr
          46 -130 -49 callsubr
        </CharString>
        <CharString name="Odieresis">
          90 159 -34 callgsubr
          -78 -143 -97 callgsubr
        </CharString>
        <CharString name="Odieresis.smcp">
          82 -62 callsubr
          -70 -151 -81 callsubr
        </CharString>
        <CharString name="Odotbelow">
          90 306 665 -4 callgsubr
        </CharString>
        <CharString name="Odotbelow.smcp">
          237 457 23 callsubr
        </CharString>
        <CharString name="Ograve">
          90 256 -25 callsubr
          50 -205 -97 callgsubr
        </CharString>
        <CharString name="Ograve.smcp">
          179 -52 callsubr
          58 -213 -81 callsubr
        </CharString>
        <CharString name="Ohookabove">
          90 292 -28 callgsubr
          14 -194 -97 callgsubr
        </CharString>
        <CharString name="Ohookabove.smcp">
          215 -55 callgsubr
          22 -202 -81 callsubr
        </CharString>
        <CharString name="Ohorn">
          90 606 624 -79 callsubr
          endchar
        </CharString>
        <CharString name="Ohorn.smcp">
          508 407 -59 callgsubr
          endchar
        </CharString>
        <CharString name="Ohornacute">
          90 252 708 -16 callgsubr
          354 -84 -79 callsubr
          endchar
        </CharString>
        <CharString name="Ohornacute.smcp">
          175 508 -16 callgsubr
          333 -101 -59 callgsubr
          endchar
        </CharString>
        <CharString name="Ohorndotbelow">
          90 606 624 -79 callsubr
          -132 -260 -87 callgsubr
        </CharString>
        <CharString name="Ohorndotbelow.smcp">
          508 407 -59 callgsubr
          -8 -113 -87 callgsubr
        </CharString>
        <CharString name="Ohorngrave">
          90 316 704 -20 callgsubr
          290 -80 -79 callsubr
          endchar
        </CharString>
        <CharString name="Ohorngrave.smcp">
          239 504 -20 callgsubr
          269 -97 -59 callgsubr
          endchar
        </CharString>
        <CharString name="Ohornhookabove">
          90 234 786 -37 callsubr
          372 -162 -79 callsubr
          endchar
        </CharString>
        <CharString name="Ohornhookabove.smcp">
          157 586 -37 callsubr
          351 -179 -59 callgsubr
          endchar
        </CharString>
        <CharString name="Ohorntilde">
          90 191 716 -18 callgsubr
          415 -92 -79 callsubr
          endchar
        </CharString>
        <CharString name="Ohorntilde.smcp">
          114 516 -18 callgsubr
          394 -109 -59 callgsubr
          endchar
        </CharString>
        <CharString name="Ohungarumlaut">
          90 197 713 -69 callgsubr
          -49 -203 -97 callgsubr
        </CharString>
        <CharString name="Ohungarumlaut.smcp">
          120 513 -69 callgsubr
          -41 -211 -81 callsubr
        </CharString>
        <CharString name="Omacron">
          90 418 3 callsubr
          -112 -133 -97 callgsubr
        </CharString>
        <CharString name="Omacron.smcp">
          341 -27 callgsubr
          -104 -141 -81 callsubr
        </CharString>
        <CharString name="Omega">
          81 485 100 rmoveto
          18 -5 9 -13 -21 vvcurveto
          -21 -3 -13 -6 -5 vhcurveto
          -13 -12 -4 -4 -15 -1 -16 -1 -4 -1 -17 1 rrcurveto
          -16 hlineto
          -65 -29 14 57 56 9 53 9 32 hvcurveto
          4 15 5 20 7 23 rrcurveto
          13 46 8 25 45 vvcurveto
          45 -6 41 -15 39 vhcurveto
          39 -16 -29 26 -38 hhcurveto
          -38 -49 -15 -59 -21 hvcurveto
          -11 -29 -5 -30 -29 vvcurveto
          -59 5 -30 37 -111 vhcurveto
          18 -55 10 -35 3 -14 rrcurveto
          3 -15 1 -17 -21 vvcurveto
          -42 -23 -18 -53 -23 -25 2 3 -28 vhcurveto
          -17 1 -16 25 26 vvcurveto
          26 13 20 23 3 vhcurveto
          78 -7 -3 25 -11 31 -18 39 rlinecurve
          -19 39 -11 23 -3 8 rrcurveto
          -17 45 -9 54 63 vvcurveto
          62 15 54 29 46 vhcurveto
          47 29 58 29 72 hhcurveto
          72 55 -35 -52 29 hvcurveto
          29 -51 14 -57 -61 vvcurveto
          -60 -31 -73 -26 -71 vhcurveto
          -13 -35 -7 -33 -31 vvcurveto
          -5 4 -2 7 7 5 0 1 3 vhcurveto
          4 hlineto
          endchar
        </CharString>
        <CharString name="Oslash">
          102 439 695 -11 callsubr
        </CharString>
        <CharString name="Oslash.smcp">
          328 485 5 callsubr
        </CharString>
        <CharString name="Oslashacute">
          102 318 -53 callgsubr
          121 -182 -11 callsubr
        </CharString>
        <CharString name="Oslashacute.smcp">
          245 -86 callsubr
          83 -192 5 callsubr
        </CharString>
        <CharString name="Otilde">
          90 247 -23 callsubr
          59 -165 -97 callgsubr
        </CharString>
        <CharString name="Otilde.smcp">
          170 -45 callsubr
          67 -173 -81 callsubr
        </CharString>
        <CharString name="P">
          15 202 661 rmoveto
          -68 -71 -5 -48 -8 hvcurveto
          -11 -68 11 -409 2 -29 59 callgsubr
          132 -23 158 -4 224 vvcurveto
          112 -109 48 -114 vhcurveto
          -1 -75 rmoveto
          65 76 -31 -55 -150 -98 15 -110 14 hvcurveto
          -3 33 -1 100 4 65 rrcurveto
          5 11 23 4 33 hhcurveto
          endchar
        </CharString>
        <CharString name="P.smcp">
          -96 161 462 rmoveto
          -58 -56 -8 -34 -2 hvcurveto
          -1 -62 1 -123 -191 vvcurveto
          -27 7 -17 34 18 13 8 15 1 vhcurveto
          1 17 1 99 -3 62 rrcurveto
          138 -21 65 60 106 vvcurveto
          71 -63 45 -96 vhcurveto
          -46 -71 rmoveto
          55 12 80 -16 3 -37 4 -70 -39 -19 -105 11 -1 66 1 28 2 25 rrcurveto
          endchar
        </CharString>
        <CharString name="Q">
          189 307 -4 rmoveto
          -104 8 -84 70 -40 93 rrcurveto
          -20 46 -10 47 47 vvcurveto
          94 25 81 44 68 vhcurveto
          68 43 73 47 86 hhcurveto
          86 78 -43 -65 47 hvcurveto
          49 -69 25 -79 -90 vvcurveto
          -64 -13 -57 -47 -71 vhcurveto
          1 -2 11 -11 19 -20 rrcurveto
          19 -21 10 -15 -10 vvcurveto
          -20 -13 -29 -27 -28 -20 26 8 79 callgsubr
          -13 15 rcurveline
          -47 -40 -58 -24 -69 -7 rrcurveto
          58 208 rmoveto
          -21 24 -10 18 13 vvcurveto
          24 22 18 19 19 17 -13 -21 20 vhcurveto
          19 -21 13 -17 19 -25 9 -13 6 -8 3 -3 rrcurveto
          21 38 11 42 47 vvcurveto
          93 -33 89 -71 56 vhcurveto
          28 -35 -41 14 -47 hhcurveto
          -63 -46 -33 -51 -27 hvcurveto
          -25 -50 -12 -57 -64 vvcurveto
          -64 14 -57 28 -50 vhcurveto
          28 -51 52 -34 65 -4 56 5 32 8 37 28 rrcurveto
          endchar
        </CharString>
        <CharString name="Q.smcp">
          54 250 462 rmoveto
          -131 -74 -78 -147 -104 49 -132 149 62 41 19 26 27 hvcurveto
          0 47 -44 15 20 17 19 21 15 -41 40 0 vhcurveto
          27 39 14 41 43 vvcurveto
          147 -98 95 -124 vhcurveto
          -8 -65 rmoveto
          96 71 -77 -103 -31 -7 -25 -14 -21 hvcurveto
          -59 74 -24 22 -27 -21 -43 -35 52 -41 50 -52 rrcurveto
          -148 -57 -72 90 126 vvcurveto
          36 24 115 101 vhcurveto
          endchar
        </CharString>
        <CharString name="R">
          -12 113 235 -23 callgsubr
          8 1 -42 2 -218 -12 callsubr
          endchar
        </CharString>
        <CharString name="R.smcp">
          -66 115 38 -39 callgsubr
          endchar
        </CharString>
        <CharString name="Racute">
          -12 187 708 -16 callgsubr
          -74 -473 -36 callsubr
          endchar
        </CharString>
        <CharString name="Racute.smcp">
          -66 212 -86 callsubr
          -97 -639 -39 callgsubr
          endchar
        </CharString>
        <CharString name="Rcaron">
          -12 224 719 rmoveto
          -88 callgsubr
          -54 callgsubr
          rrcurveto
          -111 -484 -36 callsubr
          endchar
        </CharString>
        <CharString name="Rcaron.smcp">
          -66 92 -78 callgsubr
          23 -617 -39 callgsubr
          endchar
        </CharString>
        <CharString name="Rcommaaccent">
          -12 113 235 -36 callsubr
          213 -574 -82 callgsubr
        </CharString>
        <CharString name="Rcommaaccent.smcp">
          -66 115 38 -39 callgsubr
          104 -423 -82 callgsubr
        </CharString>
        <CharString name="S">
          -7 266 662 -57 callgsubr
          endchar
        </CharString>
        <CharString name="S.smcp">
          -66 215 463 -41 callsubr
          endchar
        </CharString>
        <CharString name="Sacute">
          -7 264 -53 callgsubr
          2 -215 -57 callgsubr
          endchar
        </CharString>
        <CharString name="Sacute.smcp">
          -66 225 -86 callsubr
          -10 -214 -41 callsubr
          endchar
        </CharString>
        <CharString name="Scaron">
          -7 144 -55 callsubr
          122 -193 -57 callgsubr
          endchar
        </CharString>
        <CharString name="Scaron.smcp">
          -66 105 -78 callgsubr
          110 -192 -41 callsubr
          endchar
        </CharString>
        <CharString name="Scedilla">
          -7 363 34 rmoveto
          -21 callsubr
          -25 callgsubr
          26 -14 45 -20 47 -7 rrcurveto
          -1 -7 0 -9 -8 vvcurveto
          -48 callgsubr
          -10 -3 -3 3 2 27 41 2 33 9 28 22 rrcurveto
          endchar
        </CharString>
        <CharString name="Scedilla.smcp">
          -66 238 -29 79 callsubr
          77 10 57 43 89 vvcurveto
          -10 callsubr
          -6 callgsubr
          -39 66 -28 63 -5 vhcurveto
          -2 -9 0 -9 -9 vvcurveto
          -48 callgsubr
          rrcurveto
          endchar
        </CharString>
        <CharString name="Scircumflex">
          -7 233 -38 callgsubr
          33 -190 -57 callgsubr
          endchar
        </CharString>
        <CharString name="Scircumflex.smcp">
          -66 194 -66 callsubr
          21 -189 -41 callsubr
          endchar
        </CharString>
        <CharString name="Scommaaccent">
          -7 266 662 -57 callgsubr
          18 -701 -82 callgsubr
        </CharString>
        <CharString name="Scommaaccent.smcp">
          -66 215 463 -41 callsubr
          34 -495 -82 callgsubr
        </CharString>
        <CharString name="T">
          2 273 387 -2 callgsubr
          endchar
        </CharString>
        <CharString name="T.smcp">
          -36 306 399 6 callgsubr
          endchar
        </CharString>
        <CharString name="Tbar">
          2 273 377 rmoveto
          26 1 29 1 34 3 -17 callgsubr
          -34 -3 -29 -1 -29 -1 1 38 1 36 3 40 -11 callgsubr
          -3 -15 -1 -43 -1 -54 rrcurveto
          -24 -25 2 1 -28 hvcurveto
          -20 callsubr
          34 -2 29 -1 27 -1 rrcurveto
          -138 2 -166 4 -45 vhcurveto
          48 callsubr
          endchar
        </CharString>
        <CharString name="Tbar.smcp">
          -9 306 399 0 callgsubr
          -2 -24 -2 -35 -1 -40 -64 2 rcurveline
          -26 2 -15 -14 -32 vvcurveto
          -16 10 -8 19 -1 vhcurveto
          75 -4 rlineto
          -65 1 -72 2 -63 vhcurveto
          51 callgsubr
          -2 59 0 70 65 vvcurveto
          25 27 1 3 33 hvcurveto
          25 2 11 12 -2 35 -1 13 -14 10 -16 -1 rrcurveto
          -2 -32 -28 -2 -27 hhcurveto
          1 102 rlineto
          endchar
        </CharString>
        <CharString name="Tcaron">
          2 157 -55 callsubr
          116 -468 -2 callgsubr
          endchar
        </CharString>
        <CharString name="Tcaron.smcp">
          -36 122 -78 callgsubr
          184 -256 6 callgsubr
          endchar
        </CharString>
        <CharString name="Tcedilla">
          2 273 387 -13 callsubr
          1 -10 3 -8 5 -5 rrcurveto
          -1 -7 0 -8 -7 vvcurveto
          -48 callgsubr
          rrcurveto
          -10 -3 -2 3 23 vvcurveto
          7 5 5 10 18 vvcurveto
          endchar
        </CharString>
        <CharString name="Tcedilla.smcp">
          -36 306 399 3 callgsubr
          -7 1 -6 3 -4 vhcurveto
          -1 -8 0 -7 -8 36 callgsubr
          33 rrcurveto
          3 5 1 5 6 vvcurveto
          59 callsubr
          endchar
        </CharString>
        <CharString name="Thorn">
          26 60 632 rmoveto
          23 7 15 12 23 hhcurveto
          12 11 -8 -15 9 hvcurveto
          -56 vlineto
          3 18 19 1 21 hhcurveto
          40 37 -6 -11 39 hvcurveto
          75 -23 57 -55 -95 vvcurveto
          -121 -85 -61 -171 -22 -17 0 1 -11 vhcurveto
          -174 vlineto
          -25 -4 -25 -22 -19 hhcurveto
          -19 -10 12 23 hvcurveto
          77 265 rmoveto
          -3 43 28 -1 12 hhcurveto
          64 71 19 80 16 hvcurveto
          91 -11 -88 28 -97 hhcurveto
          -17 -13 -1 -1 -8 hvcurveto
          endchar
        </CharString>
        <CharString name="Thorn.smcp">
          -66 50 31 rmoveto
          -20 9 -11 16 20 24 8 29 vhcurveto
          110 vlineto
          170 60 41 88 49 -26 38 -37 19 hvcurveto
          -55 26 -76 5 -36 -4 rrcurveto
          28 vlineto
          20 -21 4 -10 -18 -20 -7 -22 vhcurveto
          69 -89 rmoveto
          112 53 -3 -61 -68 -137 0 -28 3 hvcurveto
          endchar
        </CharString>
        <CharString name="U">
          84 431 313 -94 callgsubr
        </CharString>
        <CharString name="U.smcp">
          367 463 -78 callsubr
        </CharString>
        <CharString name="Uacute">
          84 305 -53 callgsubr
          126 -564 -94 callgsubr
        </CharString>
        <CharString name="Uacute.smcp">
          255 -86 callsubr
          112 -214 -78 callsubr
        </CharString>
        <CharString name="Ubreve">
          84 180 0 callsubr
          251 -524 -94 callgsubr
        </CharString>
        <CharString name="Ubreve.smcp">
          130 -44 callgsubr
          237 -174 -78 callsubr
        </CharString>
        <CharString name="Ucaron">
          84 185 -55 callsubr
          246 -542 -94 callgsubr
        </CharString>
        <CharString name="Ucaron.smcp">
          135 -78 callgsubr
          232 -192 -78 callsubr
        </CharString>
        <CharString name="Ucircumflex">
          84 274 -38 callgsubr
          157 -539 -94 callgsubr
        </CharString>
        <CharString name="Ucircumflex.smcp">
          224 -66 callsubr
          143 -189 -78 callsubr
        </CharString>
        <CharString name="Udieresis">
          84 138 -34 callgsubr
          68 -495 -94 callgsubr
        </CharString>
        <CharString name="Udieresis.smcp">
          88 -62 callsubr
          54 -145 -78 callsubr
        </CharString>
        <CharString name="Udotbelow">
          84 431 313 -94 callsubr
          -142 -485 rmoveto
          -33 -3 -9 -16 -5 -28 rrcurveto
          -32 3 18 -20 27 hhcurveto
          19 27 28 23 23 -23 27 -24 -2 hvcurveto
          endchar
        </CharString>
        <CharString name="Udotbelow.smcp">
          367 463 -83 callgsubr
          -138 -503 -87 callgsubr
        </CharString>
        <CharString name="Ugrave">
          84 235 -25 callsubr
          196 -557 -94 callgsubr
        </CharString>
        <CharString name="Ugrave.smcp">
          185 -52 callsubr
          182 -207 -78 callsubr
        </CharString>
        <CharString name="Uhookabove">
          84 271 -28 callgsubr
          160 -546 -94 callgsubr
        </CharString>
        <CharString name="Uhookabove.smcp">
          221 -55 callgsubr
          146 -196 -78 callsubr
        </CharString>
        <CharString name="Uhorn">
          84 431 313 -73 callgsubr
        </CharString>
        <CharString name="Uhorn.smcp">
          516 417 -63 callsubr
          endchar
        </CharString>
        <CharString name="Uhornacute">
          84 231 708 -16 callgsubr
          200 -395 -73 callgsubr
        </CharString>
        <CharString name="Uhornacute.smcp">
          181 508 -16 callgsubr
          335 -91 -63 callsubr
          endchar
        </CharString>
        <CharString name="Uhorndotbelow">
          84 431 313 -73 callsubr
          -142 -485 rmoveto
          -33 -3 -9 -16 -5 -28 rrcurveto
          -32 3 18 -20 27 hhcurveto
          19 27 28 23 23 -23 27 -24 -2 hvcurveto
          endchar
        </CharString>
        <CharString name="Uhorndotbelow.smcp">
          516 417 -63 callsubr
          -287 -457 -87 callgsubr
        </CharString>
        <CharString name="Uhorngrave">
          84 295 704 -20 callgsubr
          136 -391 -73 callgsubr
        </CharString>
        <CharString name="Uhorngrave.smcp">
          245 504 -20 callgsubr
          271 -87 -63 callsubr
          endchar
        </CharString>
        <CharString name="Uhornhookabove">
          84 213 786 -37 callsubr
          218 -473 -73 callgsubr
        </CharString>
        <CharString name="Uhornhookabove.smcp">
          163 586 -37 callsubr
          353 -169 -63 callsubr
          endchar
        </CharString>
        <CharString name="Uhorntilde">
          84 170 716 -18 callgsubr
          261 -403 -73 callgsubr
        </CharString>
        <CharString name="Uhorntilde.smcp">
          120 516 -18 callgsubr
          396 -99 -63 callsubr
          endchar
        </CharString>
        <CharString name="Uhungarumlaut">
          84 176 713 -69 callgsubr
          97 -555 -94 callgsubr
        </CharString>
        <CharString name="Uhungarumlaut.smcp">
          126 513 -69 callgsubr
          83 -205 -78 callsubr
        </CharString>
        <CharString name="Umacron">
          84 397 3 callsubr
          34 -485 -94 callgsubr
        </CharString>
        <CharString name="Umacron.smcp">
          347 -27 callgsubr
          20 -135 -78 callsubr
        </CharString>
        <CharString name="Uogonek">
          84 431 313 -93 callsubr
          36 -70 59 -58 58 -19 -9 -15 -6 -17 -3 -21 -36 callgsubr
          35 25 17 16 15 hvcurveto
          53 14 52 40 32 60 -37 callgsubr
          74 -6 65 -11 56 vhcurveto
          -44 callsubr
          endchar
        </CharString>
        <CharString name="Uogonek.smcp">
          243 hmoveto
          161 8 20 133 -27 296 rrcurveto
          24 callsubr
          -77 callgsubr
          -15 -187 19 -187 124 -42 -8 -14 -6 -18 -3 -20 -36 callgsubr
          28 17 17 15 13 hvcurveto
          endchar
        </CharString>
        <CharString name="Uring">
          84 277 860 -71 callgsubr
          156 -497 -94 callgsubr
        </CharString>
        <CharString name="Uring.smcp">
          227 660 -71 callgsubr
          142 -147 -78 callsubr
        </CharString>
        <CharString name="Utilde">
          84 226 -23 callsubr
          205 -517 -94 callgsubr
        </CharString>
        <CharString name="Utilde.smcp">
          176 -45 callsubr
          191 -167 -78 callsubr
        </CharString>
        <CharString name="V">
          96 211 238 rmoveto
          -57 130 -73 160 -11 25 rrcurveto
          -6 12 -3 11 10 vvcurveto
          20 24 26 25 13 11 -6 -13 9 vhcurveto
          48 -110 67 -155 48 -113 29 -71 rlinecurve
          18 70 15 63 12 48 19 71 rlinecurve
          127 35 48 119 51 hhcurveto
          16 13 -10 -16 -8 -4 -11 -8 -14 hvcurveto
          -8 -15 -11 -28 -13 -41 -13 -41 -9 -26 -4 -9 -8 -27 -16 -59 -25 -90 -25 -91 -23 -78 -23 -67 rrcurveto
          -21 -7 -20 -16 -23 hhcurveto
          -12 -9 8 17 -6 hvcurveto
          -27 81 -28 73 -29 65 rrcurveto
          endchar
        </CharString>
        <CharString name="V.smcp">
          -6 392 460 rmoveto
          -25 8 -16 -19 -20 -48 -31 -73 -51 -155 -12 -33 -16 38 -18 52 -32 64 rrcurveto
          84 -43 -15 66 -38 hhcurveto
          -22 -21 -21 -15 -19 -1 9 44 -84 hvcurveto
          53 -102 29 -63 38 -92 rrcurveto
          -30 12 13 -27 18 hhcurveto
          22 11 16 19 7 hvcurveto
          16 43 24 65 30 98 33 110 26 43 7 16 14 35 -21 10 -15 5 rrcurveto
          endchar
        </CharString>
        <CharString name="W">
          150 486 319 -83 callsubr
        </CharString>
        <CharString name="W.smcp">
          34 26 413 -63 callgsubr
        </CharString>
        <CharString name="Wacute">
          150 342 -53 callgsubr
          144 -558 -83 callsubr
        </CharString>
        <CharString name="Wacute.smcp">
          34 274 -86 callsubr
          -248 -264 -63 callgsubr
        </CharString>
        <CharString name="Wcircumflex">
          150 311 -38 callgsubr
          175 -533 -83 callsubr
        </CharString>
        <CharString name="Wcircumflex.smcp">
          34 243 -66 callsubr
          -217 -239 -63 callgsubr
        </CharString>
        <CharString name="Wdieresis">
          150 175 -34 callgsubr
          86 -489 -83 callsubr
        </CharString>
        <CharString name="Wdieresis.smcp">
          34 107 -62 callsubr
          -306 -195 -63 callgsubr
        </CharString>
        <CharString name="Wgrave">
          150 272 -25 callsubr
          214 -551 -83 callsubr
        </CharString>
        <CharString name="Wgrave.smcp">
          34 204 -52 callsubr
          -178 -257 -63 callgsubr
        </CharString>
        <CharString name="X">
          135 63 -5 rmoveto
          -23 -11 10 19 11 3 11 5 10 hvcurveto
          11 13 29 32 45 50 45 49 39 46 34 42 -85 133 -58 92 -30 52 rrcurveto
          -3 7 -2 8 10 vvcurveto
          20 22 26 26 13 9 -6 -11 7 vhcurveto
          59 -97 53 -86 49 -76 69 81 66 91 62 100 rrcurveto
          20 11 16 10 21 hhcurveto
          16 13 -11 -15 -8 -2 -9 -4 -11 hvcurveto
          -63 -104 -53 -72 -108 -137 58 -93 53 -74 48 -56 rrcurveto
          5 -10 3 -10 -9 vvcurveto
          -20 -23 -25 -24 -12 -10 3 7 -9 vhcurveto
          -30 38 -50 72 -70 106 -40 -47 -64 -73 -87 -97 rrcurveto
          -8 -11 -10 -4 -8 hhcurveto
          endchar
        </CharString>
        <CharString name="X.smcp">
          34 168 259 rmoveto
          -57 78 -46 56 28 vvcurveto
          17 20 22 21 35 32 -73 -118 82 vhcurveto
          57 60 26 47 41 62 rrcurveto
          15 11 14 8 16 hhcurveto
          17 14 -22 -12 -2 hvcurveto
          -5 -43 -54 -70 -90 -102 rrcurveto
          51 -72 74 -64 -32 vvcurveto
          -20 -21 -17 -20 -19 -63 69 78 -57 vhcurveto
          -28 -30 -54 -56 -61 -59 -22 -12 -20 2 -11 11 -14 11 0 23 15 15 69 68 19 20 63 65 rrcurveto
          endchar
        </CharString>
        <CharString name="Y">
          -24 59 665 -75 callgsubr
        </CharString>
        <CharString name="Y.smcp">
          -86 314 464 -62 callgsubr
        </CharString>
        <CharString name="Yacute">
          -24 255 -53 callgsubr
          -196 -212 -75 callgsubr
        </CharString>
        <CharString name="Yacute.smcp">
          -86 218 -86 callsubr
          96 -213 -62 callgsubr
        </CharString>
        <CharString name="Ycircumflex">
          -24 224 -38 callgsubr
          -165 -187 -75 callgsubr
        </CharString>
        <CharString name="Ycircumflex.smcp">
          -86 187 -66 callsubr
          127 -188 -62 callgsubr
        </CharString>
        <CharString name="Ydieresis">
          -24 88 -34 callgsubr
          -254 -143 -75 callgsubr
        </CharString>
        <CharString name="Ydieresis.smcp">
          -86 51 -62 callsubr
          38 -144 -62 callgsubr
        </CharString>
        <CharString name="Ydotbelow">
          -24 59 665 -82 callsubr
          159 -703 -87 callgsubr
        </CharString>
        <CharString name="Ydotbelow.smcp">
          -86 314 464 -67 callgsubr
          -135 -504 -87 callgsubr
        </CharString>
        <CharString name="Ygrave">
          -24 185 -25 callsubr
          -126 -205 -75 callgsubr
        </CharString>
        <CharString name="Ygrave.smcp">
          -86 148 -52 callsubr
          166 -206 -62 callgsubr
        </CharString>
        <CharString name="Yhookabove">
          -24 221 -28 callgsubr
          -162 -194 -75 callgsubr
        </CharString>
        <CharString name="Yhookabove.smcp">
          -86 184 -55 callgsubr
          130 -195 -62 callgsubr
        </CharString>
        <CharString name="Ytilde">
          -24 176 -23 callsubr
          -117 -165 -75 callgsubr
        </CharString>
        <CharString name="Ytilde.smcp">
          -86 139 -45 callsubr
          175 -166 -62 callgsubr
        </CharString>
        <CharString name="Z">
          41 84 661 -58 callgsubr
        </CharString>
        <CharString name="Z.smcp">
          223 282 -50 callsubr
        </CharString>
        <CharString name="Zacute">
          41 297 -53 callgsubr
          -213 -216 -58 callgsubr
        </CharString>
        <CharString name="Zacute.smcp">
          255 -86 callsubr
          -32 -395 -50 callsubr
        </CharString>
        <CharString name="Zcaron">
          41 177 -55 callsubr
          -93 -194 -58 callgsubr
        </CharString>
        <CharString name="Zcaron.smcp">
          135 -78 callgsubr
          88 -373 -50 callsubr
        </CharString>
        <CharString name="Zdotaccent">
          41 263 28 callgsubr
          -179 -167 -58 callgsubr
        </CharString>
        <CharString name="Zdotaccent.smcp">
          221 -16 callsubr
          2 -346 -50 callsubr
        </CharString>
        <CharString name="a">
          -74 361 375 -100 callgsubr
        </CharString>
        <CharString name="aacute">
          -74 237 680 -103 callsubr
          124 -305 -100 callgsubr
        </CharString>
        <CharString name="abreve">
          -74 112 640 -69 callsubr
        </CharString>
        <CharString name="abreveacute">
          -74 239 817 -103 callsubr
          -127 -177 -69 callsubr
        </CharString>
        <CharString name="abrevedotbelow">
          -74 112 40 callgsubr
          249 -265 -33 callsubr
        </CharString>
        <CharString name="abrevegrave">
          -74 169 810 -96 callsubr
          -57 -170 -69 callsubr
        </CharString>
        <CharString name="abrevehookabove">
          -74 205 799 -98 callsubr
          -93 -159 -69 callsubr
        </CharString>
        <CharString name="abrevetilde">
          -74 160 770 -93 callgsubr
          -48 -130 -69 callsubr
        </CharString>
        <CharString name="acaron">
          -74 117 658 -95 callsubr
          244 -283 -100 callgsubr
        </CharString>
        <CharString name="acircumflex">
          -74 206 655 -65 callgsubr
        </CharString>
        <CharString name="acircumflexacute">
          -74 398 786 -103 callsubr
          -192 -131 -65 callgsubr
        </CharString>
        <CharString name="acircumflexdotbelow">
          -74 206 47 callsubr
          155 -280 -33 callsubr
        </CharString>
        <CharString name="acircumflexgrave">
          -74 275 757 -96 callsubr
          -69 -102 -65 callgsubr
        </CharString>
        <CharString name="acircumflexhookabove">
          -74 314 787 -98 callsubr
          -108 -132 -65 callgsubr
        </CharString>
        <CharString name="acircumflextilde">
          -74 160 785 -93 callgsubr
          46 -130 -65 callgsubr
        </CharString>
        <CharString name="acute">
          43 callgsubr
        </CharString>
        <CharString name="acutecomb">
          -466 -364 -86 callsubr
          endchar
        </CharString>
        <CharString name="adieresis">
          -74 70 554 -89 callgsubr
          66 -236 -100 callgsubr
        </CharString>
        <CharString name="adotbelow">
          -74 361 375 -33 callsubr
        </CharString>
        <CharString name="ae">
          216 224 297 -14 callsubr
        </CharString>
        <CharString name="aeacute">
          216 335 -86 callsubr
          -111 -380 -14 callsubr
        </CharString>
        <CharString name="agrave">
          -74 167 673 -96 callsubr
          194 -298 -100 callgsubr
        </CharString>
        <CharString name="ahookabove">
          -74 203 662 -98 callsubr
          158 -287 -100 callgsubr
        </CharString>
        <CharString name="amacron">
          -74 329 601 -74 callgsubr
          32 -226 -100 callgsubr
        </CharString>
        <CharString name="ampersand">
          64 373 209 rmoveto
          18 29 13 24 4 21 rrcurveto
          20 5 13 10 23 hhcurveto
          22 17 -14 -21 -26 -26 -44 -52 -63 hvcurveto
          22 -42 15 -35 9 -27 rrcurveto
          -21 -3 -20 -16 -15 hhcurveto
          -14 -10 6 6 -6 hvcurveto
          -6 9 -5 12 -5 15 -5 15 -6 12 -3 7 rrcurveto
          -64 -60 -33 -20 -56 hhcurveto
          -55 -60 50 61 -28 hvcurveto
          -15 30 -6 28 26 vvcurveto
          97 59 45 75 43 vhcurveto
          -32 58 -15 48 41 vvcurveto
          82 59 50 71 69 57 -71 -71 -71 -41 -39 -77 -48 vhcurveto
          8 -12 12 -17 16 -22 17 -23 12 -16 7 -11 rrcurveto
          -80 325 rmoveto
          -35 -18 -28 -56 -1 hvcurveto
          3 -27 9 -29 17 -30 rrcurveto
          48 29 22 29 27 vvcurveto
          27 -5 21 -10 15 vhcurveto
          15 -9 -11 7 -10 hhcurveto
          -49 -262 rmoveto
          -18 -13 -15 -11 -12 -11 rrcurveto
          -31 -27 -14 -29 -31 vvcurveto
          -35 19 -79 66 33 40 21 43 42 vhcurveto
          -8 13 -17 25 -23 35 -25 35 -18 29 -11 21 rrcurveto
          endchar
        </CharString>
        <CharString name="ampersand.smcp">
          77 286 263 rmoveto
          7 -11 10 -14 12 -18 11 -18 8 -12 4 -5 11 16 7 14 3 11 rrcurveto
          23 5 13 11 21 hhcurveto
          20 16 -13 -21 -21 -19 -35 -39 -49 hvcurveto
          12 -23 11 -25 10 -29 rrcurveto
          -24 -3 -17 -14 -12 hhcurveto
          -13 -5 3 2 -4 hvcurveto
          -5 2 -5 6 -3 4 -3 4 -3 10 -2 5 -2 5 -5 13 -3 5 rrcurveto
          -48 -47 -27 -13 -36 hhcurveto
          -76 -64 90 69 69 40 39 65 36 hvcurveto
          -24 43 -12 35 28 vvcurveto
          55 31 60 69 68 47 -57 -58 -58 -33 -32 -57 -36 vhcurveto
          -53 111 rmoveto
          3 -23 6 -20 11 -17 rrcurveto
          33 20 14 15 29 vvcurveto
          29 -16 23 -18 -18 -14 -20 -36 -1 vhcurveto
          -4 -148 rmoveto
          -41 -31 -21 -26 -23 vvcurveto
          -55 31 -30 31 vhcurveto
          25 3 27 14 27 25 -9 16 -12 20 -17 24 rrcurveto
          endchar
        </CharString>
        <CharString name="aogonek">
          -74 361 375 -87 callsubr
          6 -15 -4 -15 -11 vvcurveto
          -15 -17 -11 -23 -4 -30 -36 callgsubr
          51 54 14 2 23 hvcurveto
          2 0 2 3 vvcurveto
          -9 callgsubr
          -97 -169 rmoveto
          -46 callsubr
          -26 callsubr
          endchar
        </CharString>
        <CharString name="approxequal">
          105 455 431 rmoveto
          24 12 -11 -23 -46 -73 -34 -37 -32 -31 10 21 -31 hvcurveto
          20 -31 -24 10 -17 hhcurveto
          -18 -16 -10 -20 -14 hvcurveto
          -17 -7 -13 -9 -19 hhcurveto
          -16 -14 10 16 60 52 30 47 45 51 -18 -37 56 hvcurveto
          -3 5 7 -2 10 hhcurveto
          20 21 22 18 18 hvcurveto
          9 9 8 4 8 hhcurveto
          -147 -264 rmoveto
          20 -28 -25 24 -32 hhcurveto
          -33 -14 -24 -20 -15 hvcurveto
          -10 -8 -9 -5 -11 hhcurveto
          -21 -17 15 26 26 35 34 40 16 hvcurveto
          7 19 18 4 17 hhcurveto
          32 26 -11 -22 21 hvcurveto
          -23 22 19 -11 16 hhcurveto
          26 20 10 21 15 hvcurveto
          21 14 16 10 19 hhcurveto
          19 9 -7 -14 -39 -53 -33 -38 -17 hvcurveto
          -9 -19 -18 -4 -17 hhcurveto
          -17 -15 5 10 -13 hvcurveto
          endchar
        </CharString>
        <CharString name="aring">
          -74 209 663 -71 callgsubr
          154 -238 -100 callgsubr
        </CharString>
        <CharString name="aringacute">
          -74 233 846 -9 callsubr
          154 -238 -100 callgsubr
        </CharString>
        <CharString name="aringbelow">
          -74 361 375 -104 callgsubr
          -2 -413 -28 callsubr
        </CharString>
        <CharString name="asciicircum">
          -96 180 653 rmoveto
          -4 -4 -61 -61 -23 hhcurveto
          -22 1 -12 18 21 vvcurveto
          20 1 96 73 29 hhcurveto
          29 -1 91 -68 -1 -33 rrcurveto
          -20 -1 -21 -13 -12 hhcurveto
          -13 1 -52 37 -24 29 rrcurveto
          endchar
        </CharString>
        <CharString name="asciitilde">
          63 184 469 rmoveto
          -17 -18 -10 -20 -19 hvcurveto
          -21 -19 -19 -10 -18 hhcurveto
          -17 -31 14 23 44 103 64 47 23 31 -10 -21 38 hvcurveto
          38 -21 26 -12 15 -5 rrcurveto
          11 19 11 21 26 hvcurveto
          21 26 19 11 13 hhcurveto
          24 14 -21 -13 -44 -105 -62 -43 -43 -33 15 16 -23 hvcurveto
          20 -29 -23 10 -16 hhcurveto
          endchar
        </CharString>
        <CharString name="asterisk">
          -62 242 624 rmoveto
          24 14 25 12 26 11 rrcurveto
          5 hlineto
          21 15 -15 -16 -16 -23 -20 -23 -12 hvcurveto
          -11 -7 -14 -7 -16 -9 -16 -9 -12 -6 -7 -5 11 -9 15 -8 21 -9 rrcurveto
          41 -18 26 -15 -19 vvcurveto
          -20 -13 -14 -23 -23 -29 12 25 -35 vhcurveto
          -1 -3 0 -5 -6 vvcurveto
          -1 -7 0 -5 -3 vvcurveto
          -1 -3 0 -5 -5 vvcurveto
          -1 -11 -1 -3 -3 -8 rrcurveto
          -14 -4 -9 -7 -15 hhcurveto
          -17 -14 13 23 -4 hvcurveto
          24 1 24 3 24 vhcurveto
          -25 -36 -25 -13 -13 hhcurveto
          -14 -10 5 11 -7 hvcurveto
          -3 5 -2 6 6 vvcurveto
          12 14 14 12 9 vhcurveto
          12 8 30 17 9 5 -31 29 -23 22 -17 13 rrcurveto
          -9 9 -4 9 10 vvcurveto
          19 16 15 15 15 10 -7 -13 16 vhcurveto
          7 -7 7 -6 6 -6 37 -39 rcurveline
          1 7 0 10 13 vvcurveto
          52 3 3 42 34 hhcurveto
          17 11 -10 -20 6 hvcurveto
          endchar
        </CharString>
        <CharString name="at">
          84 288 145 rmoveto
          -1 -7 -10 0 -14 hhcurveto
          -48 -32 10 19 -16 hvcurveto
          -10 13 -5 14 16 vvcurveto
          32 29 46 41 25 vhcurveto
          13 21 18 6 15 hhcurveto
          15 14 -2 -4 12 hvcurveto
          8 16 6 16 19 9 -6 -11 -25 -10 -67 -1 -9 vhcurveto
          39 21 25 37 37 vvcurveto
          19 -7 15 -14 11 vhcurveto
          19 -23 -33 10 -41 hhcurveto
          -84 -65 -43 -56 -32 hvcurveto
          -16 -29 -8 -31 -33 vvcurveto
          -68 56 -60 111 68 61 36 36 25 vhcurveto
          18 13 12 9 11 hhcurveto
          23 11 -13 -13 -7 0 -4 -1 -2 hvcurveto
          -87 -21 -87 -48 -91 hhcurveto
          -92 -76 30 65 -51 hvcurveto
          -25 33 -13 39 45 vvcurveto
          91 64 86 88 44 vhcurveto
          22 43 43 11 43 hhcurveto
          43 38 -10 -21 35 hvcurveto
          36 -21 24 -42 -52 vvcurveto
          -52 -27 -48 -43 -32 vhcurveto
          -21 -16 -24 -11 -25 -7 -3 -24 -12 -12 -8 -2 rrcurveto
          -1 -5 -5 -1 -6 hhcurveto
          -17 -8 9 17 hvcurveto
          5 62 rmoveto
          5 27 2 21 16 vvcurveto
          10 -6 5 -12 -25 -19 -8 -23 -15 vhcurveto
          -8 -11 -4 -14 -16 vvcurveto
          -5 9 15 -3 20 hhcurveto
          19 13 0 1 6 hvcurveto
          endchar
        </CharString>
        <CharString name="atilde">
          -74 158 633 -93 callgsubr
          203 -258 -100 callgsubr
        </CharString>
        <CharString name="b">
          -54 40 676 rmoveto
          36 29 4 21 15 9 -9 -19 3 vhcurveto
          1 -38 -1 -50 -27 vvcurveto
          -41 0 -36 1 -42 vhcurveto
          4 13 16 2 22 hhcurveto
          136 67 -108 -113 -143 -97 -97 -119 -70 -35 19 37 hvcurveto
          129 -11 286 206 vvcurveto
          258 -450 rmoveto
          117 -93 60 -84 -29 vhcurveto
          3 -41 3 -157 -93 vvcurveto
          67 -22 104 51 114 vvcurveto
          endchar
        </CharString>
        <CharString name="backslash">
          -46 312 -12 rmoveto
          -33 77 -46 116 -59 155 -59 155 -49 122 -38 88 rrcurveto
          -2 6 -1 6 7 vvcurveto
          12 12 12 13 15 13 -8 -15 11 vhcurveto
          39 -91 50 -123 62 -157 61 -157 39 -98 16 -39 rrcurveto
          16 -39 8 -24 -7 vvcurveto
          -15 -12 -9 -15 -18 -14 9 17 -9 vhcurveto
          endchar
        </CharString>
        <CharString name="bar">
          -290 46 697 rmoveto
          23 10 21 19 20 hhcurveto
          15 9 -10 -20 5 hvcurveto
          -716 vlineto
          -25 -8 -25 -21 -21 hhcurveto
          -17 -9 11 23 hvcurveto
          endchar
        </CharString>
        <CharString name="braceleft">
          -127 261 22 rmoveto
          26 1 13 -9 -19 vvcurveto
          -19 -20 -24 -21 -5 vhcurveto
          -73 -46 22 43 -18 hvcurveto
          -5 11 -2 12 12 vvcurveto
          11 5 21 9 31 vhcurveto
          9 31 5 25 21 vvcurveto
          40 -22 42 -21 23 vhcurveto
          -29 31 -15 22 15 vvcurveto
          15 11 18 23 21 vhcurveto
          9 9 10 11 10 11 rrcurveto
          22 26 11 33 40 vvcurveto
          13 -3 23 -7 33 vhcurveto
          -7 33 -3 19 3 vvcurveto
          7 2 11 5 10 vhcurveto
          5 10 7 8 11 8 5 4 7 3 7 3 rrcurveto
          5 15 15 3 17 hhcurveto
          18 hlineto
          25 41 -1 -32 -30 -18 -15 -37 -7 -10 1 2 -13 hvcurveto
          -8 -4 -5 -11 -11 2 -17 5 -23 hvcurveto
          4 -23 2 -19 -13 vvcurveto
          -65 -17 -51 -63 -63 vhcurveto
          5 -7 26 -33 4 -5 28 -40 5 -29 4 -35 rrcurveto
          -9 -4 -22 -9 -37 vhcurveto
          -9 -37 -5 -27 -17 vvcurveto
          -33 26 -11 21 vhcurveto
          endchar
        </CharString>
        <CharString name="braceright">
          -138 116 22 rmoveto
          23 24 11 33 17 -4 26 -8 36 hvcurveto
          -9 35 -4 23 11 vvcurveto
          21 7 28 4 13 vhcurveto
          4 12 16 25 4 6 2 3 6 7 10 12 9 12 6 8 3 3 rrcurveto
          -63 61 -18 48 80 vvcurveto
          7 2 15 5 23 vhcurveto
          5 23 2 17 11 vvcurveto
          11 -3 5 -7 vhcurveto
          -31 -3 rlineto
          -38 -19 15 30 hvcurveto
          22 4 25 11 47 hhcurveto
          1 hlineto
          72 31 -34 -41 -1 -3 -18 -7 -33 hvcurveto
          -7 -33 -3 -25 -17 vvcurveto
          -33 15 -38 19 -22 vhcurveto
          9 -11 10 -11 9 -9 rrcurveto
          23 -21 11 -17 -11 vvcurveto
          -24 -22 -26 -21 -23 vhcurveto
          -21 -23 -21 -42 -40 vvcurveto
          -21 4 -25 9 -31 vhcurveto
          9 -31 4 -20 -10 vvcurveto
          -57 -41 -45 -103 vhcurveto
          -21 5 -20 24 21 vvcurveto
          17 14 9 29 vhcurveto
          endchar
        </CharString>
        <CharString name="bracketleft">
          -163 157 679 rmoveto
          -6 1 -6 0 -5 -1 rrcurveto
          2 -49 1 -60 -70 vvcurveto
          -140 -1 -98 -1 -107 vhcurveto
          -1 -53 0 -48 -41 vvcurveto
          1 4 9 0 13 hhcurveto
          49 25 -9 -19 -35 -32 -18 -64 -39 -25 5 11 -9 hvcurveto
          -5 6 -2 7 9 vvcurveto
          341 vlineto
          -3 85 rlineto
          304 vlineto
          48 3 29 11 63 hhcurveto
          16 hlineto
          31 54 -1 -35 -44 -42 -1 -25 hvcurveto
          endchar
        </CharString>
        <CharString name="bracketright">
          -170 145 760 rmoveto
          64 30 -11 -48 hvcurveto
          -730 vlineto
          -36 -42 -2 -40 -64 -32 17 34 20 25 10 50 13 8 0 -1 4 vhcurveto
          444 vlineto
          -1 99 0 74 1 49 -9 1 -10 1 -11 -1 rrcurveto
          -43 -3 -44 4 40 vvcurveto
          26 30 13 59 vhcurveto
          endchar
        </CharString>
        <CharString name="breve">
          -166 59 -44 callgsubr
          endchar
        </CharString>
        <CharString name="brokenbar">
          -296 43 698 rmoveto
          -76 -2 -150 -46 vvcurveto
          -25 13 -9 15 21 25 12 26 6 vhcurveto
          1 282 rlineto
          21 -6 -12 9 -12 hhcurveto
          -21 -23 -20 -24 -5 hvcurveto
          -425 vmoveto
          -77 -2 -172 -47 vvcurveto
          -24 13 -9 15 21 25 18 27 6 vhcurveto
          1 290 rlineto
          22 -6 -12 8 -12 hhcurveto
          -21 -23 -13 -23 -5 hvcurveto
          endchar
        </CharString>
        <CharString name="bullet">
          -114 192 323 rmoveto
          32 -4 32 -46 -20 vvcurveto
          -51 -34 -38 -44 -45 -33 39 48 48 40 24 41 vhcurveto
          endchar
        </CharString>
        <CharString name="c">
          -78 268 466 -39 callsubr
        </CharString>
        <CharString name="cacute">
          -78 265 -86 callsubr
          3 -211 -39 callsubr
        </CharString>
        <CharString name="caron">
          -141 72 -78 callgsubr
          endchar
        </CharString>
        <CharString name="ccaron">
          -78 145 -78 callgsubr
          123 -189 -39 callsubr
        </CharString>
        <CharString name="ccedilla">
          -78 276 16 rmoveto
          -21 callgsubr
          34 callsubr
          -136 57 -89 97 -9 vhcurveto
          -14 vlineto
          -48 callgsubr
          rrcurveto
          -9 -3 -3 3 22 vvcurveto
          13 3 13 4 14 5 rrcurveto
          endchar
        </CharString>
        <CharString name="ccircumflex">
          -78 234 -66 callsubr
          34 -186 -39 callsubr
        </CharString>
        <CharString name="cdotaccent">
          -78 231 -16 callsubr
          37 -162 -39 callsubr
        </CharString>
        <CharString name="cedilla">
          -66 171 29 rmoveto
          -32 -4 -30 -31 -35 16 -18 29 hvcurveto
          -47 callgsubr
          60 callsubr
          33 rrcurveto
          21 -8 10 -15 vhcurveto
          endchar
        </CharString>
        <CharString name="cent">
          -42 275 -47 rmoveto
          -25 -3 -13 -12 -24 hhcurveto
          -21 -11 28 56 hvcurveto
          -113 -65 90 145 113 79 84 100 25 hvcurveto
          5 31 2 22 1 14 rrcurveto
          21 5 16 13 16 hhcurveto
          16 12 -12 -20 hvcurveto
          -6 vlineto
          -5 -53 rlineto
          67 -5 34 -13 -21 vvcurveto
          -24 -15 -44 -27 -7 -11 3 6 -15 vhcurveto
          -15 5 -10 4 -5 1 rrcurveto
          -3 -62 -1 -48 -33 vvcurveto
          -33 0 -28 1 -22 vhcurveto
          -50 vlineto
          7 3 8 5 10 5 rrcurveto
          10 19 24 14 20 hhcurveto
          19 11 -12 -16 -35 -53 -41 -61 -23 hvcurveto
          -69 359 rmoveto
          -52 -21 -36 -47 -80 vvcurveto
          -80 19 -50 68 -5 vhcurveto
          -1 29 -1 41 53 vvcurveto
          53 1 53 2 54 vhcurveto
          endchar
        </CharString>
        <CharString name="circumflex">
          -141 160 -66 callsubr
          endchar
        </CharString>
        <CharString name="colon">
          -234 168 359 rmoveto
          -29 -26 -30 -27 -27 -29 15 30 30 19 44 37 20 29 -20 -40 4 vhcurveto
          -24 -251 rmoveto
          8 -5 16 -28 -24 vvcurveto
          -25 -27 -25 -28 -28 -20 23 32 38 20 19 39 6 7 -2 -3 7 vhcurveto
          endchar
        </CharString>
        <CharString name="comma">
          -264 38 callsubr
        </CharString>
        <CharString name="commaaccentcomb">
          -466 161 -39 -82 callgsubr
        </CharString>
        <CharString name="copyright">
          293 379 667 rmoveto
          87 -4 59 -10 33 -17 18 -9 16 -11 15 -15 rrcurveto
          60 -59 30 -88 -119 vvcurveto
          -201 -106 -130 -196 -5 vhcurveto
          -137 -155 59 169 -45 hvcurveto
          -9 32 -5 35 38 vvcurveto
          117 70 106 102 60 vhcurveto
          51 30 54 17 58 5 rrcurveto
          -71 vmoveto
          -147 -15 -111 -116 -140 vvcurveto
          -140 114 -109 152 151 82 92 161 129 -41 82 -81 35 vhcurveto
          -33 13 -39 7 -47 1 rrcurveto
          -87 -253 rmoveto
          -85 24 -42 48 2 17 7 14 32 vhcurveto
          13 31 24 7 16 hhcurveto
          19 10 -10 -19 -35 -43 -32 -44 -14 hvcurveto
          -7 -23 -20 -4 -17 hhcurveto
          -84 -69 80 97 79 24 62 49 45 hvcurveto
          24 26 30 12 35 hhcurveto
          28 50 -17 -32 38 hvcurveto
          19 -16 9 -15 -14 vvcurveto
          -29 -23 -16 -19 -14 -17 10 21 -20 vhcurveto
          -27 18 -22 10 -16 2 rrcurveto
          -45 -28 -58 -56 hvcurveto
          endchar
        </CharString>
        <CharString name="currency">
          226 592 91 rmoveto
          4 -6 2 -8 -11 vvcurveto
          -21 -22 -22 -21 -11 -9 4 8 -8 vhcurveto
          -76 77 rlineto
          -20 -37 -39 -10 -42 hhcurveto
          -43 -37 9 17 -33 hvcurveto
          -45 -47 -27 -25 -9 -4 rrcurveto
          -5 -9 -7 -2 -6 hhcurveto
          -19 -10 10 20 19 24 34 49 47 hvcurveto
          -35 40 -20 55 -3 70 1 68 22 57 41 46 -18 19 -16 18 -13 15 -27 29 rcurveline
          -5 4 -2 8 11 vvcurveto
          22 24 21 22 22 21 -20 -40 32 vhcurveto
          16 -21 10 -12 3 -4 rrcurveto
          19 38 39 9 40 hhcurveto
          39 38 -11 -22 37 hvcurveto
          11 13 27 34 16 20 rrcurveto
          19 16 24 19 18 hhcurveto
          18 11 -13 -17 -17 -8 -10 -7 -7 hvcurveto
          -18 -19 -24 -28 -30 -37 rrcurveto
          39 -44 20 -55 -65 vvcurveto
          -66 -21 -55 -42 -45 vhcurveto
          -337 169 rmoveto
          -109 5 79 -66 84 hhcurveto
          84 68 56 105 105 -77 68 -86 -86 -67 -56 -103 -4 hvcurveto
          endchar
        </CharString>
        <CharString name="d">
          -76 310 27 callsubr
          -68 -336 54 callgsubr
        </CharString>
        <CharString name="dagger">
          -69 160 468 rmoveto
          -93 73 callgsubr
          17 23 20 24 25 80 callgsubr
          23 19 20 hhcurveto
          15 10 -10 -20 3 hvcurveto
          -141 100 vlineto
          19 -5 69 callgsubr
          -20 -18 -23 -23 -5 vhcurveto
          -88 -423 hlineto
          -25 -4 -25 -20 -21 75 callgsubr
          endchar
        </CharString>
        <CharString name="daggerdbl">
          -55 161 468 rmoveto
          -93 73 callgsubr
          19 19 21 26 24 80 callgsubr
          24 19 19 hhcurveto
          14 10 -10 -20 6 hvcurveto
          -141 98 vlineto
          20 -5 69 callgsubr
          -20 -19 -24 -23 -4 vhcurveto
          -86 -240 98 hlineto
          20 -6 10 -10 -14 vvcurveto
          -19 -19 -24 -23 -5 vhcurveto
          -86 -105 hlineto
          -24 -4 -27 -21 -21 75 callgsubr
          119 -93 vlineto
          -23 -10 12 14 7 2 7 4 7 hvcurveto
          9 17 13 10 17 3 rrcurveto
          81 hlineto
          endchar
        </CharString>
        <CharString name="dblgravecmb">
          -466 -470 679 -96 callsubr
          137 hmoveto
          -95 callgsubr
          endchar
        </CharString>
        <CharString name="dcaron">
          84 315 27 callsubr
          169 -1 rmoveto
          35 callgsubr
          -237 -335 54 callgsubr
        </CharString>
        <CharString name="dcroat">
          434 590 rmoveto
          24 callgsubr
          -46 -3 rcurveline
          -1 37 -1 29 -1 7 65 callgsubr
          -23 -11 -18 -36 hvcurveto
          -51 vlineto
          -39 -1 -40 1 -47 3 rrcurveto
          -20 callsubr
          -3 55 41 -2 45 hhcurveto
          -61 vlineto
          25 callsubr
          -1 16 -1 72 -2 71 41 3 rcurveline
          28 2 13 14 -2 40 rrcurveto
          -241 -508 rmoveto
          61 callsubr
          hvcurveto
          62 callgsubr
          vhcurveto
          endchar
        </CharString>
        <CharString name="degree">
          -234 155 563 rmoveto
          -8 -13 -14 -4 -16 hhcurveto
          -32 -49 27 52 51 40 32 53 34 22 -17 -33 10 hvcurveto
          4 -11 2 -13 -14 vvcurveto
          -3 -27 -14 -21 -24 -14 rrcurveto
          -17 101 rmoveto
          5 -7 -8 2 -7 hhcurveto
          -16 -20 -16 -19 -19 11 -13 21 24 12 11 22 13 -3 9 -7 5 hvcurveto
          endchar
        </CharString>
        <CharString name="dieresis">
          -62 70 -62 callsubr
          endchar
        </CharString>
        <CharString name="divide">
          53 205 422 rmoveto
          28 25 18 24 24 22 -20 -24 -25 -22 -26 -27 -28 -18 20 29 vhcurveto
          -14 -194 rmoveto
          -71 -43 3 7 -13 hvcurveto
          -13 7 -7 9 11 vvcurveto
          22 15 13 24 1 vhcurveto
          -3 36 38 -2 39 hhcurveto
          241 8 rlineto
          20 -8 10 -12 -15 vvcurveto
          -16 -12 -14 -19 -4 vhcurveto
          -172 -83 rmoveto
          23 -5 13 -16 1 -27 rrcurveto
          -30 -9 -19 -15 -28 hhcurveto
          -28 -15 18 25 33 21 17 41 hvcurveto
          endchar
        </CharString>
        <CharString name="dollar">
          41 311 569 rmoveto
          -3 -102 -3 -106 rlineto
          111 -41 59 -68 -109 vvcurveto
          -49 -24 -39 -39 -21 vhcurveto
          -20 -38 -43 -10 -47 hhcurveto
          -24 vlineto
          -23 -2 -17 -16 -16 hhcurveto
          -17 -14 13 23 -3 hvcurveto
          28 vlineto
          -71 19 -84 53 51 vvcurveto
          21 14 14 17 8 11 -6 -13 15 vhcurveto
          28 -25 39 -38 28 -9 2 26 2 40 1 54 1 53 3 42 3 29 -79 30 -50 31 -20 31 rrcurveto
          -8 13 -4 19 24 vvcurveto
          47 26 65 50 45 vhcurveto
          25 22 28 14 33 7 rrcurveto
          28 vlineto
          20 3 15 12 16 hhcurveto
          17 11 -10 -19 6 hvcurveto
          -28 vlineto
          84 -7 71 -44 20 -68 -1 -15 -6 -11 -12 -7 rrcurveto
          -3 -5 -6 -1 -6 hhcurveto
          -14 -10 8 16 -7 hvcurveto
          -9 36 -40 20 -49 5 rrcurveto
          -72 -128 rmoveto
          3 90 rlineto
          15 0 12 -1 8 vhcurveto
          -59 -15 -42 -65 -53 vvcurveto
          2 -29 33 -25 64 -21 rrcurveto
          48 -324 rmoveto
          78 6 39 24 41 vvcurveto
          83 -32 38 -76 35 vhcurveto
          -3 -27 -1 -39 -1 -51 -1 -51 -2 -36 -1 -23 rrcurveto
          endchar
        </CharString>
        <CharString name="dollar.smcp">
          27 220 545 rmoveto
          19 3 16 11 17 hhcurveto
          15 12 -9 -18 7 hvcurveto
          -16 vlineto
          71 -9 64 -37 17 -52 rrcurveto
          -24 -1 -15 -15 -24 hhcurveto
          -15 -9 7 13 -5 hvcurveto
          -9 24 -25 15 -41 6 rrcurveto
          -1 -11 0 -16 -19 vvcurveto
          -1 -19 0 -16 -1 -11 -2 -74 rcurveline
          55 -18 41 -30 26 -41 rrcurveto
          17 -26 8 -27 -29 vvcurveto
          -29 -9 -24 -17 -18 vhcurveto
          -31 -32 -46 -17 -62 -1 rrcurveto
          -19 -6 -14 -12 -9 vhcurveto
          -4 -5 -7 -2 -7 hhcurveto
          -16 -16 14 21 -3 hvcurveto
          16 vlineto
          -45 12 -37 20 -29 28 rrcurveto
          -16 15 -8 13 12 vvcurveto
          24 16 14 18 9 16 -10 -20 23 vhcurveto
          23 -21 20 -13 16 -6 3 75 rcurveline
          2 55 2 32 1 10 rrcurveto
          -87 29 -52 33 49 vvcurveto
          79 57 75 85 17 vhcurveto
          7 -87 rmoveto
          16 vlineto
          -45 -11 -32 -46 -37 vvcurveto
          3 -19 25 -16 45 -11 rrcurveto
          144 -206 rmoveto
          77 -42 17 -41 17 vhcurveto
          -1 -19 -1 -26 -34 vvcurveto
          -1 -35 -1 -26 -2 -17 rrcurveto
          59 5 30 16 25 vvcurveto
          endchar
        </CharString>
        <CharString name="dong">
          -26 277 660 rmoveto
          -28 -1 -29 0 -46 1 70 callsubr
          -1 49 32 0 34 hhcurveto
          1 -15 1 -18 -24 vvcurveto
          -27 13 -94 5 -35 -25 rrcurveto
          -75 -55 -22 -51 28 callsubr
          159 -4 80 vhcurveto
          -1 17 -2 59 -1 56 rrcurveto
          23 hlineto
          77 callgsubr
          -30 hlineto
          -1 16 0 12 -1 5 65 callgsubr
          -23 -10 -9 -36 -1 hvcurveto
          -43 -223 rmoveto
          47 -9 4 -47 -52 vvcurveto
          -85 -34 -64 -66 -55 -32 59 71 75 38 71 98 -19 vhcurveto
          108 -378 rmoveto
          -88 1 -84 -3 -88 2 70 callsubr
          -2 90 88 2 90 hhcurveto
          77 callgsubr
          endchar
        </CharString>
        <CharString name="dotaccent">
          -326 70 -16 callsubr
          endchar
        </CharString>
        <CharString name="dotbelowcomb">
          -466 76 -40 -87 callgsubr
        </CharString>
        <CharString name="dotlessi">
          -242 146 332 -68 callgsubr
        </CharString>
        <CharString name="dotlessj">
          -231 125 468 -32 callgsubr
        </CharString>
        <CharString name="e">
          -68 182 463 -97 callsubr
        </CharString>
        <CharString name="eacute">
          -68 221 -86 callsubr
          -39 -214 -97 callsubr
        </CharString>
        <CharString name="ebreve">
          -68 96 -44 callgsubr
          86 -174 -97 callsubr
        </CharString>
        <CharString name="ecaron">
          -68 101 -78 callgsubr
          81 -192 -97 callsubr
        </CharString>
        <CharString name="ecircumflex">
          -68 190 652 -68 callsubr
        </CharString>
        <CharString name="ecircumflexacute">
          -68 382 783 -103 callsubr
          -192 -131 -68 callsubr
        </CharString>
        <CharString name="ecircumflexdotbelow">
          -68 190 -66 callsubr
          -8 -189 1 callsubr
        </CharString>
        <CharString name="ecircumflexgrave">
          -68 259 754 -96 callsubr
          -69 -102 -68 callsubr
        </CharString>
        <CharString name="ecircumflexhookabove">
          -68 298 784 -98 callsubr
          -108 -132 -68 callsubr
        </CharString>
        <CharString name="ecircumflextilde">
          -68 144 782 -93 callgsubr
          46 -130 -68 callsubr
        </CharString>
        <CharString name="edieresis">
          -68 54 -62 callsubr
          -97 -145 -97 callsubr
        </CharString>
        <CharString name="edotaccent">
          -68 187 -16 callsubr
          -5 -165 -97 callsubr
        </CharString>
        <CharString name="edotbelow">
          -68 182 463 1 callsubr
        </CharString>
        <CharString name="egrave">
          -68 151 -52 callsubr
          31 -207 -97 callsubr
        </CharString>
        <CharString name="ehookabove">
          -68 187 -55 callgsubr
          -5 -196 -97 callsubr
        </CharString>
        <CharString name="eight">
          6 callsubr
        </CharString>
        <CharString name="eight.osf">
          6 callsubr
        </CharString>
        <CharString name="eight.smcp">
          -146 157 459 rmoveto
          -65 -3 -52 -34 3 -59 2 -42 29 -47 36 -23 -50 -42 -24 -48 1 -55 1 -62 47 -45 74 3 73 3 55 42 -2 70 -3 59 -23 33 -44 49 36 23 28 34 -1 50 rrcurveto
          61 -57 35 -64 -2 vhcurveto
          2 -57 rmoveto
          27 1 30 -15 1 -25 rrcurveto
          -26 -15 -11 -41 -32 vhcurveto
          -23 16 -37 18 -1 29 rrcurveto
          32 26 10 33 3 vhcurveto
          -1 -185 rmoveto
          40 -42 21 -27 2 -33 rrcurveto
          -27 -13 -23 -34 -2 vhcurveto
          -47 -2 -30 19 -1 32 -2 36 21 39 43 30 rrcurveto
          endchar
        </CharString>
        <CharString name="eightsuperior">
          -229 120 720 rmoveto
          -45 -1 -24 -24 1 -39 2 -21 15 -23 15 -15 -21 -23 -20 -25 2 -34 1 -36 37 -22 46 2 45 2 31 24 -2 44 -1 22 -20 28 -17 21 19 19 15 27 -1 15 rrcurveto
          -1 38 -28 22 -49 -1 rrcurveto
          2 -46 rmoveto
          15 1 8 -8 -12 vvcurveto
          -10 -12 -10 -8 -6 vhcurveto
          -7 5 -15 9 11 vvcurveto
          14 7 6 12 vhcurveto
          3 -110 rmoveto
          12 -9 11 -14 -10 vvcurveto
          -9 -6 -12 -18 -16 -6 11 11 8 10 15 13 9 vhcurveto
          endchar
        </CharString>
        <CharString name="ellipsis">
          105 57 callgsubr
          153 hmoveto
          55 callgsubr
          20 43 33 33 20 -32 -28 3 vhcurveto
          156 hmoveto
          55 callgsubr
          19 43 37 20 29 -19 -41 4 vhcurveto
          endchar
        </CharString>
        <CharString name="emacron">
          -68 313 -27 callgsubr
          -131 -135 -97 callsubr
        </CharString>
        <CharString name="emdash">
          182 576 274 rmoveto
          -160 1 -224 -3 -107 2 rrcurveto
          -34 1 -15 -21 -23 vvcurveto
          -19 13 -14 24 vhcurveto
          166 -2 167 0 166 2 rrcurveto
          21 20 8 29 25 -19 14 -18 hvcurveto
          endchar
        </CharString>
        <CharString name="endash">
          -46 344 199 rmoveto
          -90 -91 -2 2 -90 hvcurveto
          -24 1 -13 13 19 vvcurveto
          23 16 21 33 -1 vhcurveto
          88 -2 87 3 88 -1 rrcurveto
          33 4 -16 -23 -29 -21 -8 -20 hvcurveto
          endchar
        </CharString>
        <CharString name="eng">
          -15 155 151 rmoveto
          107 8 110 92 35 31 -59 -49 4 vhcurveto
          6 -82 -3 -85 -60 vvcurveto
          -32 1 -38 -21 -23 vhcurveto
          53 callsubr
          81 52 -19 120 4 146 3 104 -17 77 -27 51 rrcurveto
          34 -18 -28 17 -37 hhcurveto
          -54 -45 -24 -47 -36 hvcurveto
          29 callgsubr
          -15 -24 -16 -27 -54 2 -67 4 -81 hvcurveto
          3 -81 2 -68 -55 35 callsubr
          endchar
        </CharString>
        <CharString name="eogonek">
          -68 338 168 rmoveto
          -13 -21 -15 -27 -28 hvcurveto
          -64 callsubr
          -7 callsubr
          vhcurveto
          5 -3 6 -3 5 -2 -7 -14 -6 -17 -3 -20 -36 callgsubr
          31 20 17 16 14 hvcurveto
          38 8 41 20 28 22 rrcurveto
          -7 callgsubr
          vhcurveto
          -216 183 rmoveto
          29 18 22 14 25 hhcurveto
          -34 callsubr
          endchar
        </CharString>
        <CharString name="equal">
          106 140 372 rmoveto
          74 callsubr
          190 -4 rlineto
          29 40 1 3 51 hvcurveto
          13 -3 6 -6 -11 vvcurveto
          -21 -13 -19 -13 -5 vhcurveto
          -3 -49 -40 -1 -29 hhcurveto
          -198 -164 rmoveto
          -15 -8 8 17 19 12 20 16 3 hvcurveto
          1 95 105 0 115 hhcurveto
          72 callsubr
          endchar
        </CharString>
        <CharString name="eth">
          -3 259 563 rmoveto
          5 -7 32 -39 20 -27 68 -89 24 -68 4 -100 rrcurveto
          -67 -36 -78 -62 -51 vhcurveto
          -26 -31 -33 -13 -35 hhcurveto
          -69 -56 54 61 -24 hvcurveto
          -12 31 -6 30 29 vvcurveto
          58 19 57 32 47 vhcurveto
          47 32 55 32 61 hhcurveto
          -50 64 -22 -27 rlineto
          -6 -11 -10 -3 -8 hhcurveto
          -17 -13 12 17 8 4 9 7 11 hvcurveto
          29 31 rlineto
          -13 13 -17 22 4 vvcurveto
          1 hlineto
          -7 7 -4 9 10 vvcurveto
          20 24 21 17 8 8 -2 -4 8 vhcurveto
          36 -44 35 36 rlineto
          9 11 9 4 9 hhcurveto
          21 11 -10 -20 -12 -4 -10 -9 -9 hvcurveto
          -20 -508 rmoveto
          37 31 18 46 61 vvcurveto
          60 -42 79 -55 -55 -59 -43 -90 -90 42 -73 67 17 16 6 13 14 vhcurveto
          endchar
        </CharString>
        <CharString name="etilde">
          -68 142 -45 callsubr
          40 -167 -97 callsubr
        </CharString>
        <CharString name="exclam">
          -219 155 347 rmoveto
          -31 0 -24 1 -17 vhcurveto
          -17 -5 -17 -16 -19 hhcurveto
          -9 -8 7 15 -6 hvcurveto
          -10 168 -5 141 115 vvcurveto
          19 7 27 6 15 hhcurveto
          22 13 -8 -17 3 hvcurveto
          -84 -604 rmoveto
          21 18 27 32 31 15 -6 -42 -42 -24 -11 -20 -31 -21 32 21 vhcurveto
          endchar
        </CharString>
        <CharString name="exclamdown">
          -252 167 420 rmoveto
          -44 -16 -5 -31 -32 -17 27 18 18 10 17 13 12 vhcurveto
          6 7 6 3 7 hhcurveto
          27 26 -8 -44 hvcurveto
          -100 -605 rmoveto
          133 5 142 11 149 vhcurveto
          13 5 7 7 9 hhcurveto
          19 18 -15 -16 4 hvcurveto
          -1 -16 0 -26 -36 vvcurveto
          -36 2 -54 4 -71 vhcurveto
          3 -72 2 -58 -44 vvcurveto
          -17 -5 -13 -9 -21 hhcurveto
          -21 -23 11 15 -5 hvcurveto
          endchar
        </CharString>
        <CharString name="f">
          -107 240 715 rmoveto
          -2 callsubr
          29 1 31 10 33 vvcurveto
          19 -15 11 -29 1 vhcurveto
          -70 hlineto
          50 callsubr
          hvcurveto
          endchar
        </CharString>
        <CharString name="f_f.liga">
          59 377 459 rmoveto
          50 callsubr
          -35 -27 1 -32 -19 hvcurveto
          26 -13 -38 6 -54 hhcurveto
          -2 callsubr
          4 4 0 1 4 hvcurveto
          45 -2 2 -54 3 -59 5 -63 rlinecurve
          15 callsubr
          25 -1 13 0 14 1 rrcurveto
          29 1 31 10 33 vvcurveto
          19 -15 11 -29 1 vhcurveto
          -256 1 rmoveto
          70 callgsubr
          15 42 -21 13 hhcurveto
          6 1 -5 -36 -3 -52 -1 -70 rlinecurve
          -29 1 -22 -1 -16 -2 rrcurveto
          endchar
        </CharString>
        <CharString name="f_i.liga">
          -66 293 342 rmoveto
          -1 -43 4 -108 9 -172 rrcurveto
          -17 5 9 -8 74 callgsubr
          24 14 32 hvcurveto
          -1 14 0 25 29 vvcurveto
          35 5 257 -4 30 vhcurveto
          31 -4 -22 4 -29 -24 -52 -5 -40 hhcurveto
          44 -5 63 7 31 vhcurveto
          24 5 13 18 24 hhcurveto
          5 21 -4 -5 9 hvcurveto
          -4 -9 -4 -6 -11 vvcurveto
          -34 16 -19 40 -4 vhcurveto
          28 -2 28 32 28 vvcurveto
          15 -2 30 -19 26 vhcurveto
          23 -17 -44 15 -68 hhcurveto
          -18 callsubr
          31 -1 33 1 20 3 rrcurveto
          endchar
        </CharString>
        <CharString name="f_l.liga">
          46 473 149 rmoveto
          -5 callgsubr
          -9 -8 -1 -3 -6 vhcurveto
          8 -19 -28 3 -34 hhcurveto
          -2 callsubr
          13 14 3 5 11 hvcurveto
          1 -62 1 -60 1 -42 rrcurveto
          19 callgsubr
          -287 311 rmoveto
          70 callgsubr
          hhcurveto
          10 21 -9 -6 17 hvcurveto
          -1 -42 0 -62 -64 vvcurveto
          2 -6 -7 1 -8 hhcurveto
          endchar
        </CharString>
        <CharString name="five">
          -43 63 652 17 callsubr
        </CharString>
        <CharString name="five.osf">
          -43 63 452 17 callsubr
        </CharString>
        <CharString name="five.smcp">
          -136 55 456 rmoveto
          -12 -6 -5 -19 -89 vvcurveto
          -23 1 -66 15 -13 vhcurveto
          -15 16 33 17 45 hhcurveto
          45 34 -18 -70 -40 -28 -41 -38 -49 -27 58 -17 -33 hvcurveto
          -18 -10 -1 -10 -16 vvcurveto
          -40 63 -38 66 71 63 70 91 135 -113 37 -81 -26 vhcurveto
          -1 22 -1 30 35 vvcurveto
          54 2 59 -6 31 -7 rrcurveto
          14 -3 19 17 22 vvcurveto
          13 -7 10 -10 6 vhcurveto
          -66 21 -124 -8 -15 -5 rrcurveto
          endchar
        </CharString>
        <CharString name="fivesuperior">
          -244 94 662 rmoveto
          33 -2 34 -3 8 -1 14 -2 13 8 2 23 1 10 -4 13 -14 4 -23 7 -80 4 -19 -8 -23 -8 -2 -32 1 -22 1 -24 6 -40 19 -7 rrcurveto
          -7 16 20 7 13 hhcurveto
          19 12 -6 -25 -13 -15 -17 -13 -22 -27 28 -18 -18 hvcurveto
          -34 -32 43 -40 62 1 rrcurveto
          47 1 39 40 54 vvcurveto
          70 -62 15 -44 -8 vhcurveto
          endchar
        </CharString>
        <CharString name="florin">
          111 223 389 rmoveto
          -151 hlineto
          -25 -12 11 21 19 17 23 24 4 hvcurveto
          148 hlineto
          -2 93 rlineto
          124 58 32 92 73 46 -11 -22 21 vhcurveto
          7 -7 3 -7 -7 vvcurveto
          -8 -2 -7 -3 -6 vhcurveto
          -14 -7 -12 -7 -16 hhcurveto
          -6 -14 2 4 -22 hvcurveto
          3 -22 -17 2 -13 hhcurveto
          -25 -21 -4 -6 -12 hvcurveto
          -13 -6 -8 -16 -4 -11 -5 -11 -1 -25 1 -15 1 -70 rcurveline
          159 hlineto
          19 -5 9 -9 -15 vvcurveto
          -15 -7 -12 -13 -11 vhcurveto
          -6 -5 -7 -4 -7 -2 rrcurveto
          -148 -508 hlineto
          -64 -6 -36 -24 -33 vhcurveto
          -32 -22 -48 -16 -74 hhcurveto
          -43 -27 6 11 -10 hvcurveto
          -5 6 -3 9 11 vvcurveto
          22 21 35 19 19 20 -5 -4 20 vhcurveto
          -2 9 10 -1 11 hhcurveto
          10 9 4 7 9 hvcurveto
          18 17 9 52 86 vvcurveto
          1 59 rlineto
          endchar
        </CharString>
        <CharString name="four">
          -91 250 115 20 callgsubr
        </CharString>
        <CharString name="four.osf">
          -91 247 -91 20 callgsubr
        </CharString>
        <CharString name="four.smcp">
          -186 96 462 rmoveto
          -13 -19 -4 -26 -9 hvcurveto
          -11 -38 -13 -93 -73 vvcurveto
          -65 22 -16 60 27 21 1 3 16 vhcurveto
          -21 -1 -35 -11 vvcurveto
          -39 -5 -43 35 -2 vhcurveto
          17 20 9 27 32 1 153 3 59 hvcurveto
          38 2 -6 10 -35 hhcurveto
          -24 -3 -11 -31 -1 hvcurveto
          -2 -21 2 -22 -1 -24 -18 -2 -36 -3 -23 3 -3 46 11 77 8 63 rrcurveto
          31 5 6 28 -33 hhcurveto
          endchar
        </CharString>
        <CharString name="foursuperior">
          -246 124 512 rmoveto
          -24 -1 -27 29 -1 vhcurveto
          10 26 0 26 -1 hvcurveto
          -2 58 2 47 24 vvcurveto
          15 0 22 -33 -24 -2 -19 -10 -1 vhcurveto
          -1 -9 -1 -16 -9 vvcurveto
          -28 1 rlineto
          10 1 21 5 29 vhcurveto
          21 4 17 49 -43 hhcurveto
          -41 -4 -90 -43 -40 18 -14 38 hvcurveto
          32 hlineto
          endchar
        </CharString>
        <CharString name="fraction">
          146 517 713 rmoveto
          12 12 12 6 11 hhcurveto
          23 11 -8 -17 -7 -3 -9 -7 -11 hvcurveto
          -50 -71 -76 -112 -103 -153 -103 -153 -78 -115 -54 -75 rrcurveto
          -9 -10 -10 -4 -11 hhcurveto
          -21 -11 8 17 8 2 8 4 7 hvcurveto
          56 77 79 115 101 153 101 153 76 111 49 69 rrcurveto
          endchar
        </CharString>
        <CharString name="franc">
          84 127 577 rmoveto
          52 callsubr
          -38 2 -4 -28 -7 -45 2 -358 7 -189 rrcurveto
          -29 1 18 66 callsubr
          37 6 43 0 40 -6 14 -38 -15 -179 8 -60 rrcurveto
          -24 3 11 -12 15 hhcurveto
          19 26 3 45 90 -13 134 142 38 hvcurveto
          36 10 12 6 1 29 1 28 -25 16 -55 -10 -66 -12 -21 -26 -23 -47 rrcurveto
          73 7 -20 14 -23 hhcurveto
          -69 -18 -5 5 -67 hvcurveto
          endchar
        </CharString>
        <CharString name="g">
          -21 259 464 -57 callsubr
        </CharString>
        <CharString name="gbreve">
          -21 144 -44 callgsubr
          115 -173 -57 callsubr
        </CharString>
        <CharString name="gcircumflex">
          -21 238 -66 callsubr
          21 -188 -57 callsubr
        </CharString>
        <CharString name="gcommaaccent">
          -21 249 506 rmoveto
          10 5 6 10 13 vvcurveto
          2 76 39 31 -13 33 -7 16 -19 10 -22 -9 -12 -6 -12 -16 -11 -28 -12 -28 -11 -35 8 -42 5 -29 28 -11 21 10 rrcurveto
          10 -42 -57 callsubr
        </CharString>
        <CharString name="gdotaccent">
          -21 235 -16 callsubr
          24 -164 -57 callsubr
        </CharString>
        <CharString name="germandbls">
          63 43 -151 rmoveto
          108 -2 100 108 vvcurveto
          -6 333 8 31 40 79 rrcurveto
          63 32 59 25 60 hhcurveto
          92 78 -65 -91 -76 -13 -81 -91 -25 hvcurveto
          123 13 49 -92 3 -89 rrcurveto
          -121 4 -26 -110 -149 hhcurveto
          -67 -45 32 71 -15 hvcurveto
          29 -6 25 24 24 49 -14 -76 60 hhcurveto
          55 27 58 76 108 -63 6 -71 -48 -36 10 33 -1 hvcurveto
          16 9 22 17 3 vhcurveto
          77 29 39 48 81 vvcurveto
          55 -29 32 -58 -89 -29 -154 -104 -189 11 -377 5 -48 vhcurveto
          -28 3 -14 -26 -38 hhcurveto
          -46 7 85 74 hvcurveto
          endchar
        </CharString>
        <CharString name="germandbls.smcp">
          334 213 462 rmoveto
          -98 -77 -52 -67 -99 93 -10 89 -22 hvcurveto
          36 -9 28 -24 1 -36 rrcurveto
          -49 -9 -25 -23 -41 hhcurveto
          -32 -45 14 23 -52 hvcurveto
          -22 -20 -16 -19 -29 88 -44 60 96 76 72 85 45 -20 33 -29 17 hvcurveto
          -50 31 -147 7 60 vvcurveto
          25 52 25 46 vhcurveto
          42 37 -32 25 78 callgsubr
          12 18 38 -54 26 -78 hvcurveto
          271 -22 rmoveto
          -54 -29 -23 -43 -53 vvcurveto
          -102 81 -14 91 -18 vhcurveto
          36 -8 28 -24 -28 vvcurveto
          -28 -51 -32 -43 vhcurveto
          -36 -54 32 -17 hhcurveto
          -15 -15 -13 -17 -37 55 -27 78 97 78 52 68 49 -28 50 -36 14 hvcurveto
          -73 27 -102 -5 73 vvcurveto
          48 25 15 41 30 48 -16 -22 57 vhcurveto
          28 -10 9 28 19 vvcurveto
          45 -161 46 -74 -40 vhcurveto
          endchar
        </CharString>
        <CharString name="grave">
          -246 74 -52 callsubr
          endchar
        </CharString>
        <CharString name="gravecomb">
          -466 -440 679 -96 callsubr
          endchar
        </CharString>
        <CharString name="greater">
          -66 72 466 rmoveto
          32 46 -40 -52 77 hvcurveto
          61 -41 38 -31 28 -23 rrcurveto
          13 -11 9 -15 -9 vvcurveto
          -37 -72 -44 30 callsubr
          13 13 17 vhcurveto
          endchar
        </CharString>
        <CharString name="greaterequal">
          -54 75 467 rmoveto
          34 41 -39 -53 78 hvcurveto
          61 -41 41 -30 28 -23 rrcurveto
          13 -11 5 -22 -9 vvcurveto
          -37 -72 -39 30 callsubr
          16 14 17 vhcurveto
          8 -566 rmoveto
          -24 2 -12 9 18 vvcurveto
          21 13 16 24 4 vhcurveto
          265 hlineto
          20 -4 12 -6 -16 vvcurveto
          -19 -15 -18 -23 -7 vhcurveto
          endchar
        </CharString>
        <CharString name="guillemotleft">
          12 22 callsubr
          121 -28 rmoveto
          15 13 4 7 20 hhcurveto
          19 16 -10 -15 -22 -38 -52 -77 -83 hvcurveto
          5 -11 12 -13 19 -16 rrcurveto
          37 -33 36 -34 -18 vvcurveto
          -18 -8 -19 -21 -21 -14 10 7 79 callgsubr
          -16 19 5 -6 -21 19 -21 19 -15 13 -16 28 rrcurveto
          -8 14 -4 11 8 vvcurveto
          16 7 11 10 14 vhcurveto
          10 14 16 21 13 16 12 15 20 23 11 12 rrcurveto
          endchar
        </CharString>
        <CharString name="guillemotright">
          42 256 416 rmoveto
          9 30 -11 -12 10 hvcurveto
          10 -13 30 -26 21 -18 11 -9 10 -10 11 -11 rrcurveto
          23 -23 11 -25 -25 vvcurveto
          -29 -16 -16 -34 -31 vhcurveto
          -17 -15 -13 -14 -7 -11 rrcurveto
          -23 -16 -32 -22 -14 hhcurveto
          -14 -16 14 20 19 8 15 21 23 hvcurveto
          21 23 3 3 31 27 23 20 rcurveline
          -5 6 -13 13 -23 20 -58 49 -30 37 -3 23 rrcurveto
          21 9 11 19 vhcurveto
          -151 -349 26 callsubr
        </CharString>
        <CharString name="guilsinglleft">
          -162 22 callsubr
          endchar
        </CharString>
        <CharString name="guilsinglright">
          -166 105 67 26 callsubr
        </CharString>
        <CharString name="h">
          -46 88 716 11 callsubr
        </CharString>
        <CharString name="hbar">
          401 367 rmoveto
          58 callsubr
          -2 28 0 25 -1 23 51 2 54 4 33 3 28 2 13 10 -2 40 -1 15 -16 13 -19 -2 -31 -3 -59 -4 -52 -2 -1 21 -2 22 -2 23 rrcurveto
          37 -5 -14 16 -16 hhcurveto
          -24 -23 -15 -30 -13 1 -27 1 -34 hvcurveto
          -2 hlineto
          -31 2 -16 -9 -37 vvcurveto
          -18 18 -16 21 -1 vhcurveto
          13 hlineto
          2 -54 3 -60 4 -51 2 callgsubr
          endchar
        </CharString>
        <CharString name="hcircumflex">
          -46 75 912 48 callgsubr
          -196 11 callsubr
        </CharString>
        <CharString name="heart">
          183 443 469 rmoveto
          -72 -40 -41 -45 -11 hvcurveto
          11 -5 12 -10 13 vhcurveto
          25 -20 -44 23 -49 hhcurveto
          -77 -36 -44 -72 -73 40 -59 36 -35 hvcurveto
          35 -35 123 -142 3 -7 1 2 14 18 29 33 30 35 29 29 27 23 rrcurveto
          55 47 51 104 69 vvcurveto
          73 -36 36 -73 vhcurveto
          -127 -469 rmoveto
          0 0 0 0 vhcurveto
          endchar
        </CharString>
        <CharString name="hookabovecomb">
          -466 144 -55 callgsubr
          endchar
        </CharString>
        <CharString name="horncomb">
          -466 77 651 rmoveto
          -11 -14 -21 -13 -2 hvcurveto
          -10 -81 -54 22 -19 -26 -11 -14 0 -21 19 -15 rrcurveto
          24 -17 117 28 114 vvcurveto
          23 -4 21 -35 vhcurveto
          endchar
        </CharString>
        <CharString name="hungarumlaut">
          -159 66 446 -69 callgsubr
          endchar
        </CharString>
        <CharString name="hyphen">
          39 callsubr
        </CharString>
        <CharString name="i">
          -242 39 callgsubr
          44 -300 -68 callgsubr
        </CharString>
        <CharString name="iacute">
          -242 136 681 -103 callsubr
          10 -349 -68 callgsubr
        </CharString>
        <CharString name="ibreve">
          -242 11 641 -96 callgsubr
          135 -309 -68 callgsubr
        </CharString>
        <CharString name="icaron">
          -242 16 659 -95 callsubr
          130 -327 -68 callgsubr
        </CharString>
        <CharString name="icircumflex">
          -242 105 656 -106 callgsubr
          41 -324 -68 callgsubr
        </CharString>
        <CharString name="idieresis">
          -242 -31 555 -89 callgsubr
          -48 -280 -68 callgsubr
        </CharString>
        <CharString name="idotbelow">
          -242 39 callgsubr
          44 -300 -77 callsubr
          -33 -148 -87 callgsubr
        </CharString>
        <CharString name="igrave">
          -242 66 674 -96 callsubr
          80 -342 -68 callgsubr
        </CharString>
        <CharString name="ihookabove">
          -242 105 665 -98 callsubr
          41 -333 -68 callgsubr
        </CharString>
        <CharString name="ij">
          -7 39 callgsubr
          231 -5 -56 callgsubr
          -187 -295 -77 callsubr
          203 360 -32 callgsubr
        </CharString>
        <CharString name="imacron">
          -242 228 602 -74 callgsubr
          -82 -270 -68 callgsubr
        </CharString>
        <CharString name="infinity">
          509 692 472 rmoveto
          104 -7 65 -39 27 -71 rrcurveto
          11 -28 5 -32 -36 vvcurveto
          -72 -18 -58 -34 -47 vhcurveto
          -48 -34 -58 -30 -78 hhcurveto
          -78 -64 50 95 -76 hvcurveto
          -123 -79 -54 -33 -72 hhcurveto
          -99 -80 105 106 106 96 103 105 65 48 -46 -83 73 hvcurveto
          79 132 59 44 87 12 rrcurveto
          28 -393 rmoveto
          67 11 46 73 79 vvcurveto
          79 -48 64 -93 7 vhcurveto
          -85 -12 -34 -52 -28 -51 -29 -53 rcurveline
          2 -2 6 -7 10 -13 10 -13 7 -8 4 -4 4 -5 7 -7 10 -11 23 -25 rcurveline
          -39 48 28 -11 37 hhcurveto
          -433 -5 rmoveto
          68 36 62 72 37 hvcurveto
          86 -64 -52 43 -40 hhcurveto
          -64 -45 -65 -63 -64 56 -71 68 hvcurveto
          endchar
        </CharString>
        <CharString name="integral">
          94 299 -224 rmoveto
          -49 -6 -55 -26 -67 hhcurveto
          -68 -51 27 37 36 24 27 20 10 10 -3 -6 9 hvcurveto
          -12 18 20 -15 17 hhcurveto
          17 18 16 25 5 hvcurveto
          3 427 1 173 1 105 1 36 rlinecurve
          1 35 4 29 7 22 1 1 rcurveline
          39 12 33 20 54 hhcurveto
          52 60 -32 -52 23 hvcurveto
          3 -7 1 -8 -8 vvcurveto
          -16 -19 -26 -19 -9 -9 4 8 -8 vhcurveto
          37 -23 -29 27 -23 hhcurveto
          -26 -13 -29 -58 hvcurveto
          endchar
        </CharString>
        <CharString name="iogonek">
          -242 103 523 rmoveto
          -8 callgsubr
          hvcurveto
          -13 callgsubr
          vhcurveto
          43 -191 -51 callsubr
          -42 6 -102 6 -163 vhcurveto
          -20 -17 -17 -27 -5 -38 -36 callgsubr
          34 24 17 16 15 hvcurveto
          11 7 9 13 -1 16 rrcurveto
          14 -1 23 31 vvcurveto
          endchar
        </CharString>
        <CharString name="itilde">
          -242 57 634 -93 callgsubr
          89 -302 -68 callgsubr
        </CharString>
        <CharString name="j">
          -231 109 627 -56 callgsubr
          16 -159 -32 callgsubr
        </CharString>
        <CharString name="jcaron">
          -231 23 654 -95 callsubr
          102 -186 -32 callgsubr
        </CharString>
        <CharString name="jcircumflex">
          -231 112 651 48 callgsubr
          -183 -32 callgsubr
        </CharString>
        <CharString name="k">
          11 callgsubr
          endchar
        </CharString>
        <CharString name="kcommaaccent">
          11 callgsubr
          106 -83 -82 callgsubr
        </CharString>
        <CharString name="kgreenlandic">
          40 77 32 rmoveto
          -19 -1 10 -12 21 hhcurveto
          10 36 1 33 hvcurveto
          40 -2 53 39 vvcurveto
          15 9 19 16 27 22 21 -16 20 -19 19 -24 rrcurveto
          -55 46 45 -98 32 hhcurveto
          20 17 13 23 24 -74 124 -85 74 hvcurveto
          49 48 86 91 41 vvcurveto
          16 -14 10 -19 -19 -13 -7 -14 -9 vhcurveto
          -57 -80 -44 -45 -85 -66 rrcurveto
          53 -4 102 -18 38 vhcurveto
          12 -7 -6 6 -16 hhcurveto
          -15 -31 -8 -38 6 hvcurveto
          9 -74 11 -195 -64 vvcurveto
          endchar
        </CharString>
        <CharString name="l">
          -200 31 callgsubr
          endchar
        </CharString>
        <CharString name="l_l.liga">
          -35 401 149 rmoveto
          44 callgsubr
          -21 1 -28 3 -31 vhcurveto
          -2 hlineto
          44 callgsubr
          -69 1 3 -165 113 hhcurveto
          42 41 30 32 17 hvcurveto
          -36 17 28 -26 45 32 callgsubr
          endchar
        </CharString>
        <CharString name="lacute">
          -200 114 925 -103 callsubr
          -34 -217 -30 callsubr
          endchar
        </CharString>
        <CharString name="lambda">
          118 160 24 rmoveto
          -17 -11 -14 -9 -19 hhcurveto
          -21 -17 14 19 9 2 10 5 9 hvcurveto
          5 9 11 22 18 37 35 73 31 66 60 95 -36 75 -19 27 -33 36 -17 17 -13 16 -11 13 rrcurveto
          -7 7 -3 10 12 vvcurveto
          23 19 26 23 29 104 -147 -84 43 vhcurveto
          41 -81 50 -110 58 -137 rrcurveto
          3 -8 2 -9 -10 vvcurveto
          -20 -20 -19 -24 -12 -10 6 12 -9 vhcurveto
          -9 22 -14 37 -20 52 -20 52 -22 51 -25 50 -23 -37 -24 -47 -27 -55 -27 -56 -20 -39 -12 -22 rrcurveto
          endchar
        </CharString>
        <CharString name="lcaron">
          -116 253 709 50 callgsubr
          -194 -1 -30 callsubr
          endchar
        </CharString>
        <CharString name="lcommaaccent">
          -200 31 callgsubr
          108 -747 -82 callgsubr
        </CharString>
        <CharString name="ldot">
          -116 31 callgsubr
          173 -357 29 callsubr
        </CharString>
        <CharString name="less">
          19 callsubr
          endchar
        </CharString>
        <CharString name="lessequal">
          19 callsubr
          -244 -573 rmoveto
          -22 1 -11 9 17 vvcurveto
          23 20 24 25 5 vhcurveto
          258 -3 rlineto
          20 -3 10 -10 -15 vvcurveto
          -20 -19 -23 -23 -5 vhcurveto
          endchar
        </CharString>
        <CharString name="lira">
          84 222 337 rmoveto
          46 1 26 3 56 1 rrcurveto
          41 1 5 23 20 vvcurveto
          23 -14 13 -32 -48 -43 -2 -1 -39 vhcurveto
          -1 51 1 49 5 16 rrcurveto
          34 10 35 19 49 callsubr
          -89 -77 -52 -122 -18 0 -26 1 -28 hvcurveto
          -66 hlineto
          -19 -1 -15 -17 -21 vvcurveto
          -29 13 -13 26 -1 vhcurveto
          -1 23 21 2 21 hhcurveto
          1 -12 2 -30 -1 -9 rrcurveto
          -70 hlineto
          -19 -15 -17 -21 -29 13 -14 26 hvcurveto
          67 hlineto
          -27 0 -28 -2 -13 vhcurveto
          -27 -21 -78 -43 40 callsubr
          -12 -45 hhcurveto
          -49 -47 29 32 -26 hvcurveto
          2 21 -2 22 26 vvcurveto
          127 2 rlineto
          41 1 5 25 20 vvcurveto
          23 -14 13 -32 -48 -42 -2 -1 -38 vhcurveto
          endchar
        </CharString>
        <CharString name="logicalnot">
          18 73 callsubr
          13 -2 8 -6 2 -10 rrcurveto
          3 -8 0 -11 -4 vvcurveto
          -163 vlineto
          -23 -4 -14 -14 -16 hhcurveto
          -17 -15 13 23 -3 hvcurveto
          57 0 42 1 29 vhcurveto
          -297 61 callgsubr
        </CharString>
        <CharString name="longs">
          -146 168 715 rmoveto
          -41 -29 1 -51 -20 hvcurveto
          -32 -83 16 -270 8 -103 rrcurveto
          18 callsubr
          -7 102 -10 203 8 54 45 callgsubr
          hvcurveto
          endchar
        </CharString>
        <CharString name="lozenge">
          -15 53 235 rmoveto
          87 41 91 150 39 hhcurveto
          10 22 -21 -43 34 hvcurveto
          34 -43 38 -56 42 -68 rrcurveto
          2 -8 1 -7 -6 vvcurveto
          -6 -2 -7 -4 -8 vhcurveto
          -46 -71 -31 -45 -15 -18 -15 -18 -15 -15 -14 -13 rrcurveto
          -14 -11 -11 -7 -10 hhcurveto
          -30 -60 67 134 -90 hvcurveto
          -3 6 -1 6 5 vvcurveto
          5 1 6 3 8 vhcurveto
          278 -12 rmoveto
          -5 7 -13 24 -22 39 -23 39 -22 32 -22 27 -15 -20 -18 -31 -22 -43 -23 -43 -15 -27 -7 -11 12 -17 18 -23 23 -28 23 -29 19 -25 13 -22 rrcurveto
          endchar
        </CharString>
        <CharString name="lslash">
          -86 281 153 rmoveto
          -50 10 -62 -37 hhcurveto
          -17 -23 57 160 -1 hvcurveto
          30 19 32 24 45 35 71 callgsubr
          -28 -23 -23 -17 -19 -14 rrcurveto
          2 128 6 81 66 vvcurveto
          23 -18 12 -23 55 callsubr
          vhcurveto
          -3 -52 1 -141 2 -118 -36 -22 rcurveline
          71 callsubr
          3 2 4 1 3 2 1 -33 rcurveline
          19 callgsubr
          endchar
        </CharString>
        <CharString name="m">
          214 136 271 7 callsubr
        </CharString>
        <CharString name="macron">
          -66 324 -27 callgsubr
          endchar
        </CharString>
        <CharString name="macute">
          214 366 -86 callsubr
          -230 -406 7 callsubr
        </CharString>
        <CharString name="minus">
          6 73 callsubr
          57 callsubr
          -327 61 callgsubr
        </CharString>
        <CharString name="mu">
          27 440 227 rmoveto
          -163 -59 -63 -141 -43 -37 8 15 -32 vhcurveto
          -1 -72 0 -90 -109 vvcurveto
          -27 -4 -30 -33 -17 hhcurveto
          -19 -9 12 23 hvcurveto
          703 vlineto
          -1 1 2 3 1 hvcurveto
          12 4 10 21 36 hhcurveto
          17 11 -11 -22 5 hvcurveto
          -83 -1 -97 -3 -111 vhcurveto
          -44 34 40 -22 45 hhcurveto
          69 30 31 41 8 hvcurveto
          4 21 2 24 28 vvcurveto
          27 -2 36 -4 45 vhcurveto
          -4 44 -2 33 22 vvcurveto
          23 5 11 13 28 hhcurveto
          23 15 -10 -20 6 hvcurveto
          endchar
        </CharString>
        <CharString name="multiply">
          24 389 167 rmoveto
          23 -18 12 -18 -19 vvcurveto
          -19 -14 -9 -28 -7 -7 4 7 -7 vhcurveto
          -8 7 -14 13 -20 21 -37 37 -26 27 -16 17 -12 -15 rcurveline
          -43 -35 -60 -74 -32 hhcurveto
          -20 -14 15 20 9 9 15 17 20 hvcurveto
          17 19 20 21 24 23 24 23 13 12 2 3 -67 66 -38 42 -11 17 rrcurveto
          -11 17 -6 12 9 vvcurveto
          16 14 16 18 9 12 -8 -16 17 vhcurveto
          17 -17 20 -22 25 -29 24 -29 16 -18 7 -8 42 46 rcurveline
          31 35 25 25 18 15 rrcurveto
          18 26 14 9 2 hhcurveto
          11 hlineto
          5 5 -2 -5 3 hvcurveto
          3 -5 1 -8 -13 vvcurveto
          -26 -34 -33 -53 -43 vhcurveto
          -27 -22 -20 -19 -14 -17 11 -12 16 -15 21 -18 21 -18 13 -11 5 -5 5 -5 8 -7 12 -10 rrcurveto
          endchar
        </CharString>
        <CharString name="n">
          -14 104 480 -53 callsubr
          endchar
        </CharString>
        <CharString name="nacute">
          -14 260 -86 callsubr
          -156 -197 -53 callsubr
          endchar
        </CharString>
        <CharString name="napostrophe">
          -14 100 -86 callsubr
          4 -197 -53 callsubr
          endchar
        </CharString>
        <CharString name="ncaron">
          -14 140 -78 callgsubr
          -36 -175 -53 callsubr
          endchar
        </CharString>
        <CharString name="ncommaaccent">
          -14 104 480 -53 callsubr
          165 -519 -82 callgsubr
        </CharString>
        <CharString name="nine">
          -99 215 666 20 callsubr
        </CharString>
        <CharString name="nine.osf">
          -99 214 459 20 callsubr
        </CharString>
        <CharString name="nine.smcp">
          -176 162 460 rmoveto
          -67 -64 -40 -85 -55 34 -70 55 21 28 3 14 17 hvcurveto
          1 -73 3 -95 1 -26 rrcurveto
          -17 1 12 -16 9 hhcurveto
          17 22 13 21 -1 hvcurveto
          -1 40 1 148 -1 68 -1 42 5 64 -9 19 rrcurveto
          35 -18 -28 10 -37 hhcurveto
          26 -166 rmoveto
          -15 -9 -25 -7 -12 -3 rrcurveto
          -24 -6 -21 24 42 vvcurveto
          54 74 22 15 -12 69 callsubr
          -3 -18 -32 vvcurveto
          endchar
        </CharString>
        <CharString name="ninesuperior">
          -267 112 720 rmoveto
          -46 -2 -37 -25 -50 vvcurveto
          -16 4 -17 8 -15 vhcurveto
          11 -24 35 -9 27 5 -1 -27 -1 -24 3 -29 2 -18 7 -7 10 -2 rrcurveto
          22 -4 16 12 25 vvcurveto
          48 -2 92 1 37 vhcurveto
          1 40 -40 11 -20 -1 rrcurveto
          4 -54 rmoveto
          2 -12 -1 -18 -1 -10 rrcurveto
          -3 -6 -8 -1 -4 hhcurveto
          -7 -9 7 15 8 2 9 8 5 hvcurveto
          6 5 13 -2 5 -3 rrcurveto
          endchar
        </CharString>
        <CharString name="notequal">
          141 227 272 rmoveto
          4 9 17 32 29 55 -137 4 rcurveline
          74 callsubr
          171 -4 3 7 5 9 5 12 rlinecurve
          11 24 9 19 9 15 rrcurveto
          14 8 9 7 10 hhcurveto
          19 12 -14 -21 hvcurveto
          -5 vlineto
          -25 -67 64 4 rlineto
          13 -3 6 -6 -11 vvcurveto
          -22 -11 -12 -12 -6 vhcurveto
          -6 -12 -24 -4 -13 hhcurveto
          -7 -8 0 1 -10 hvcurveto
          -18 hlineto
          -1 -1 -17 -32 -34 -63 rrcurveto
          145 hlineto
          72 callsubr
          -83 -59 -1 -2 -34 hvcurveto
          -1 -5 -3 -8 -5 -11 rrcurveto
          -39 -13 -16 -34 -21 hhcurveto
          -21 -14 12 23 11 6 21 12 29 hvcurveto
          -64 hlineto
          -15 -8 10 20 39 48 1 28 hvcurveto
          endchar
        </CharString>
        <CharString name="nsuperior">
          -196 241 565 rmoveto
          69 -11 80 -67 -22 -26 -6 -13 -18 vhcurveto
          11 -3 -10 14 -22 hhcurveto
          -12 -25 -13 -23 hvcurveto
          -61 6 -69 -63 vvcurveto
          -16 12 -15 17 19 24 14 22 vhcurveto
          103 2 0 37 39 hhcurveto
          28 -2 -96 -49 -17 14 -14 15 41 2 26 79 -1 hvcurveto
          endchar
        </CharString>
        <CharString name="ntilde">
          -14 181 -45 callsubr
          -77 -150 -53 callsubr
          endchar
        </CharString>
        <CharString name="numbersign">
          -9 359 172 rmoveto
          17 -8 9 -11 -14 vvcurveto
          -16 -10 -13 -19 -3 vhcurveto
          -49 hlineto
          -1 -5 -1 -10 -1 -13 rrcurveto
          -44 -4 -6 -39 -32 hhcurveto
          -17 -9 9 18 -3 hvcurveto
          11 81 -92 -4 -5 -31 -5 -29 -1 -13 -11 -15 rlinecurve
          -7 -6 -7 -4 -8 hhcurveto
          -16 -15 13 21 -1 hvcurveto
          4 32 2 14 1 11 1 8 rlinecurve
          -17 hlineto
          -20 3 -13 14 16 vvcurveto
          16 15 15 21 vhcurveto
          32 hlineto
          8 33 13 37 19 43 rrcurveto
          -1 -26 -20 -1 -14 hhcurveto
          -21 1 -13 15 16 vvcurveto
          16 10 10 19 5 vhcurveto
          19 5 15 2 28 3 14 1 11 2 7 1 4 9 4 15 3 21 rrcurveto
          42 6 11 25 25 hhcurveto
          24 10 -11 -27 -13 -5 -23 -10 -31 hvcurveto
          9 24 -1 -3 39 hvcurveto
          2 7 2 8 2 11 rrcurveto
          52 11 5 30 29 hhcurveto
          20 10 -14 -27 -16 -6 -25 -11 -33 hvcurveto
          4 21 -4 -3 11 hvcurveto
          13 -4 7 -9 -15 vvcurveto
          -15 -13 -15 -6 vhcurveto
          -1 -3 -5 0 -5 hhcurveto
          -44 2 -10 -23 -8 -23 -6 -21 rlinecurve
          -7 -22 -5 -15 -4 -8 rrcurveto
          -105 116 rmoveto
          -7 -13 -15 -40 -25 -68 rrcurveto
          21 29 1 1 39 hvcurveto
          3 13 3 11 3 11 11 45 8 29 4 14 rrcurveto
          -29 -25 -1 -3 -20 hvcurveto
          endchar
        </CharString>
        <CharString name="o">
          -63 211 466 -84 callsubr
        </CharString>
        <CharString name="oacute">
          -63 236 680 -103 callsubr
          -25 -214 -84 callsubr
        </CharString>
        <CharString name="obreve">
          -63 111 40 callgsubr
          100 -174 -84 callsubr
        </CharString>
        <CharString name="ocaron">
          -63 116 658 -95 callsubr
          95 -192 -84 callsubr
        </CharString>
        <CharString name="ocircumflex">
          -63 205 655 -49 callgsubr
        </CharString>
        <CharString name="ocircumflexacute">
          -63 397 786 -103 callsubr
          -192 -131 -49 callgsubr
        </CharString>
        <CharString name="ocircumflexdotbelow">
          -63 205 47 callsubr
          6 -189 23 callgsubr
        </CharString>
        <CharString name="ocircumflexgrave">
          -63 274 757 -96 callsubr
          -69 -102 -49 callgsubr
        </CharString>
        <CharString name="ocircumflexhookabove">
          -63 313 787 -98 callsubr
          -108 -132 -49 callgsubr
        </CharString>
        <CharString name="ocircumflextilde">
          -63 159 785 -93 callgsubr
          46 -130 -49 callgsubr
        </CharString>
        <CharString name="odieresis">
          -63 69 554 -89 callgsubr
          -83 -145 -84 callsubr
        </CharString>
        <CharString name="odotbelow">
          -63 211 466 23 callgsubr
        </CharString>
        <CharString name="oe">
          221 332 397 rmoveto
          -29 40 -41 24 -49 -1 rrcurveto
          -41 callgsubr
          56 44 31 45 30 vhcurveto
          -48 25 36 -25 48 hhcurveto
          51 56 25 29 37 hvcurveto
          36 28 26 28 19 vvcurveto
          19 -31 24 -9 -14 -21 -14 -28 -28 vhcurveto
          -28 -29 -29 -14 -29 hhcurveto
          -16 -13 4 8 -11 hvcurveto
          -21 16 -13 27 -9 73 rrcurveto
          93 133 48 99 59 -77 45 -79 -51 -40 -22 -44 -29 hvcurveto
          52 -89 rmoveto
          51 9 35 35 36 hhcurveto
          -1 callgsubr
          2 13 1 8 1 4 rrcurveto
          -177 -223 rmoveto
          -14 callgsubr
          -15 callsubr
          hvcurveto
          endchar
        </CharString>
        <CharString name="ogonek">
          -166 138 57 rmoveto
          -32 -5 -42 -34 -8 -62 45 callsubr
          14 -8 17 -23 -4 vhcurveto
          endchar
        </CharString>
        <CharString name="ograve">
          -63 166 673 -96 callsubr
          45 -207 -84 callsubr
        </CharString>
        <CharString name="ohookabove">
          -63 202 662 -98 callsubr
          9 -196 -84 callsubr
        </CharString>
        <CharString name="ohorn">
          -63 449 420 -59 callsubr
          endchar
        </CharString>
        <CharString name="ohornacute">
          -63 162 511 -16 callgsubr
          287 -91 -59 callsubr
          endchar
        </CharString>
        <CharString name="ohorndotbelow">
          -63 449 420 -59 callsubr
          9 -132 -87 callgsubr
        </CharString>
        <CharString name="ohorngrave">
          -63 226 507 -20 callgsubr
          223 -87 -59 callsubr
          endchar
        </CharString>
        <CharString name="ohornhookabove">
          -63 144 589 -37 callsubr
          305 -169 -59 callsubr
          endchar
        </CharString>
        <CharString name="ohorntilde">
          -63 101 519 -18 callgsubr
          348 -99 -59 callsubr
          endchar
        </CharString>
        <CharString name="ohungarumlaut">
          -63 107 516 -69 callgsubr
          -54 -205 -84 callsubr
        </CharString>
        <CharString name="omacron">
          -63 328 601 -74 callgsubr
          -117 -135 -84 callsubr
        </CharString>
        <CharString name="one">
          -103 161 450 rmoveto
          -45 -36 -28 -36 -37 hhcurveto
          -21 -13 17 21 10 1 7 19 22 hvcurveto
          61 71 53 53 63 67 rrcurveto
          14 15 20 7 23 hhcurveto
          23 17 -17 -18 -1 hvcurveto
          -4 -75 -3 -98 -94 -94 3 -103 -112 vvcurveto
          -38 -28 -11 -25 -13 -15 10 29 vhcurveto
          95 -3 75 84 vvcurveto
          84 1 79 2 74 vhcurveto
          -25 -22 -24 -26 -25 -30 rrcurveto
          endchar
        </CharString>
        <CharString name="one.osf">
          -186 209 462 rmoveto
          -18 -16 -6 -12 -12 hvcurveto
          -42 -44 -35 -36 -42 -47 rrcurveto
          -14 -18 -2 -8 -7 vvcurveto
          -16 13 -19 21 30 20 28 30 24 vhcurveto
          11 14 10 11 10 10 rrcurveto
          -136 vlineto
          -55 1 -51 -62 vvcurveto
          -27 18 -11 11 19 26 12 32 vhcurveto
          74 -2 69 64 vvcurveto
          62 2 65 3 50 vhcurveto
          17 -18 17 -18 vhcurveto
          endchar
        </CharString>
        <CharString name="one.smcp">
          -186 209 460 rmoveto
          -17 -15 -5 -11 -11 hvcurveto
          -43 -45 -35 -37 -43 -48 rrcurveto
          -14 -17 -1 -6 -7 vvcurveto
          -15 11 -16 18 28 19 27 31 25 vhcurveto
          14 17 13 15 14 12 rrcurveto
          -1 -47 0 -50 -53 -57 1 -51 -64 vvcurveto
          -24 15 -9 10 18 23 10 29 vhcurveto
          76 -2 70 65 vvcurveto
          64 2 66 3 51 vhcurveto
          15 -15 14 -17 vhcurveto
          endchar
        </CharString>
        <CharString name="onehalf">
          120 -1 callsubr
          -20 -405 rmoveto
          -52 1 -26 12 25 vvcurveto
          24 23 23 21 15 vhcurveto
          30 19 15 18 16 vvcurveto
          5 -1 6 -3 6 vhcurveto
          -5 -8 -2 -5 -12 hvcurveto
          -5 -12 -9 -2 -7 hhcurveto
          -14 -17 11 27 27 46 27 41 41 39 -18 -54 -27 -28 -37 -55 -46 hvcurveto
          68 8 rlineto
          19 10 -16 -15 -15 -4 -9 -9 -6 hvcurveto
          -5 -3 -4 -3 -4 -2 rrcurveto
          -3 -7 -15 -2 -21 hhcurveto
          endchar
        </CharString>
        <CharString name="onequarter">
          69 -1 callsubr
          -44 -331 rmoveto
          -24 hlineto
          -28 -19 2 5 -9 hvcurveto
          -10 5 -5 8 13 47 callgsubr
          15 -3 8 -9 -13 vvcurveto
          -13 -5 -9 -9 -5 vhcurveto
          -2 -1 -3 -2 -5 -2 -1 -6 0 -9 -1 -11 -1 -24 -1 -10 -9 -11 rrcurveto
          -6 -5 -6 -3 -7 hhcurveto
          -16 -12 12 20 -3 hvcurveto
          -25 100 rmoveto
          14 2 8 3 3 4 rrcurveto
          2 3 1 3 2 vvcurveto
          10 vlineto
          -1 4 0 3 3 vvcurveto
          -11 -11 -9 -13 -7 -13 rrcurveto
          endchar
        </CharString>
        <CharString name="onesuperior">
          -266 51 595 rmoveto
          -19 -4 -10 14 20 vvcurveto
          29 73 67 43 24 12 -23 -33 -42 -11 -69 -5 -44 vhcurveto
          -26 -3 -14 -24 -23 hhcurveto
          -23 -13 21 18 1 hvcurveto
          2 32 11 69 3 16 -13 -8 -20 -10 -15 -3 rrcurveto
          endchar
        </CharString>
        <CharString name="ordfeminine">
          -177 228 663 rmoveto
          -11 -9 -5 -7 -6 hvcurveto
          6 -18 -19 3 -17 hhcurveto
          -79 -46 -58 -114 -95 30 -58 71 31 26 9 18 21 hvcurveto
          -17 -2 2 -18 24 hhcurveto
          24 22 5 19 -2 hvcurveto
          -10 60 -1 86 2 99 rrcurveto
          29 1 -1 38 -33 hhcurveto
          -72 -71 rmoveto
          32 11 -22 -58 -54 -17 -64 -48 -36 -16 36 61 83 28 18 46 hvcurveto
          endchar
        </CharString>
        <CharString name="ordmasculine">
          -167 158 660 rmoveto
          -89 -4 -37 -71 -94 vvcurveto
          -70 44 -85 80 75 45 81 74 93 -46 78 -72 -2 vhcurveto
          -6 -65 rmoveto
          49 12 -49 -57 -74 -32 -7 -27 -29 -32 28 72 38 22 49 37 hvcurveto
          endchar
        </CharString>
        <CharString name="oslash">
          -46 311 482 2 callsubr
        </CharString>
        <CharString name="oslashacute">
          -46 244 -86 callsubr
          67 -195 2 callsubr
        </CharString>
        <CharString name="otilde">
          -63 157 633 -93 callgsubr
          54 -167 -84 callsubr
        </CharString>
        <CharString name="p">
          -38 120 -265 rmoveto
          -27 -8 -22 -20 -23 hhcurveto
          -17 -9 12 23 hvcurveto
          697 vlineto
          32 7 9 16 25 hhcurveto
          13 8 -3 -6 4 hvcurveto
          4 -6 4 -15 5 -25 rrcurveto
          23 5 34 31 68 hhcurveto
          68 52 -30 -48 28 hvcurveto
          27 -47 13 -56 -67 vvcurveto
          -134 -82 -84 -137 -23 -21 8 15 -19 vhcurveto
          -13 11 rlineto
          80 vmoveto
          2 -1 5 -3 7 -6 rrcurveto
          -17 19 21 -9 23 53 callgsubr
        </CharString>
        <CharString name="paragraph">
          34 312 605 rmoveto
          -43 hlineto
          -5 -63 -2 -95 -127 vvcurveto
          0 0 -93 1 -186 vhcurveto
          -23 -16 -15 -31 -7 vhcurveto
          -11 2 -6 3 -1 5 rrcurveto
          -4 8 0 0 9 vvcurveto
          -1 8 -5 149 71 vvcurveto
          35 1 34 3 32 vhcurveto
          -64 6 -45 23 -26 41 rrcurveto
          -14 22 -7 27 32 vvcurveto
          103 80 58 149 vhcurveto
          87 hlineto
          36 26 -2 -4 15 hvcurveto
          15 -4 8 -7 -9 vvcurveto
          -20 -5 -16 -32 -16 -12 1 1 -7 vhcurveto
          -4 -171 -2 -153 -135 vvcurveto
          2 -104 rlineto
          -27 -18 -19 -17 -25 -13 42 83 vhcurveto
          endchar
        </CharString>
        <CharString name="parenleft">
          -132 158 690 rmoveto
          29 44 32 37 14 9 rrcurveto
          4 7 7 2 9 hhcurveto
          17 21 -18 -9 -7 -17 -27 -33 -47 hvcurveto
          -67 -94 -25 -33 -8 -85 rrcurveto
          -5 -43 -2 -43 -45 vvcurveto
          -90 34 -140 37 -40 vhcurveto
          57 -62 28 -38 -14 vvcurveto
          -16 -25 -8 -21 -11 -10 4 8 -9 vhcurveto
          -124 124 -33 109 155 vvcurveto
          155 19 67 33 61 vhcurveto
          16 31 15 26 15 23 rrcurveto
          endchar
        </CharString>
        <CharString name="parenright">
          -102 174 -7 rmoveto
          -24 -33 -16 -19 -9 -6 rrcurveto
          -6 -9 -10 -3 -9 hhcurveto
          -19 -19 17 15 2 17 25 34 49 hvcurveto
          67 97 26 36 10 84 rrcurveto
          5 42 2 44 46 vvcurveto
          92 -35 140 -37 40 vhcurveto
          -59 61 -29 39 17 vvcurveto
          13 24 8 24 12 8 -3 -6 5 vhcurveto
          133 -132 29 -109 -171 vvcurveto
          -172 -26 -76 -95 -131 vhcurveto
          endchar
        </CharString>
        <CharString name="percent">
          177 539 599 rmoveto
          -11 -18 -32 -37 -53 vhcurveto
          -7 -9 -15 -22 -23 -34 -48 -69 -140 -220 41 callgsubr
          34 55 21 33 21 33 13 23 7 15 13 31 17 23 19 16 rrcurveto
          9 13 11 4 11 hhcurveto
          20 4 -10 -21 hvcurveto
          -472 -46 27 callgsubr
          74 49 callgsubr
          endchar
        </CharString>
        <CharString name="percent.smcp">
          148 497 470 rmoveto
          -17 -49 -62 -3 -3 vhcurveto
          1 vlineto
          -7 -11 -41 -52 -45 -61 -48 -69 rlinecurve
          -48 -70 -35 -49 -23 -28 rrcurveto
          -29 -23 -17 -14 -13 hhcurveto
          -26 -17 17 19 19 18 25 36 37 hvcurveto
          36 40 24 33 28 39 31 44 rlinecurve
          31 44 34 47 37 51 4 6 7 13 9 19 9 19 13 15 18 13 rrcurveto
          8 13 11 4 8 hhcurveto
          15 10 -4 -12 2 hvcurveto
          1 -6 0 -8 -9 vvcurveto
          -443 -93 rmoveto
          76 70 54 72 72 49 -31 -67 -68 -73 -81 -80 -56 -54 41 76 vhcurveto
          187 20 rmoveto
          33 -11 16 -22 -52 -26 -34 -35 -35 10 -7 25 25 23 9 20 16 vhcurveto
          8 9 4 11 13 vvcurveto
          284 -200 rmoveto
          21 -23 10 -28 -33 vvcurveto
          -68 -64 -48 -72 -73 -48 34 70 70 75 60 69 34 27 -11 -23 21 vhcurveto
          -38 -81 rmoveto
          39 -18 6 -27 -27 -39 -20 -37 -5 0 -3 1 -3 vhcurveto
          -19 5 13 -9 19 hhcurveto
          39 34 28 23 hvcurveto
          endchar
        </CharString>
        <CharString name="period">
          -252 57 callgsubr
          endchar
        </CharString>
        <CharString name="periodcentered">
          -266 105 300 29 callsubr
        </CharString>
        <CharString name="perthousand">
          492 511 649 rmoveto
          45 -4 -24 -59 -32 hvcurveto
          -16 -30 -23 -37 -31 -45 -62 -90 -137 -215 41 callgsubr
          33 55 20 31 20 31 17 27 14 25 rrcurveto
          48 27 20 25 25 hhcurveto
          -444 -77 27 callgsubr
          313 hmoveto
          84 84 73 75 75 49 -61 -81 -81 -70 -59 -80 -80 -53 40 85 vhcurveto
          -239 49 callgsubr
          451 46 rmoveto
          23 -9 -14 11 -21 hhcurveto
          -65 -28 -46 -40 -41 25 -18 36 36 47 43 29 15 -2 13 -5 11 hvcurveto
          endchar
        </CharString>
        <CharString name="perthousand.smcp">
          432 401 455 rmoveto
          -1 vlineto
          51 31 11 13 33 hhcurveto
          8 hlineto
          14 -5 7 -7 -9 vvcurveto
          -10 -6 -16 -12 -22 vhcurveto
          -13 -23 -20 -29 -29 -37 -29 -37 -39 -55 -49 -71 -49 -71 -36 -50 -23 -28 rrcurveto
          -28 -23 -17 -14 -13 hhcurveto
          -25 -18 17 20 19 21 25 34 36 hvcurveto
          34 35 33 45 61 88 30 44 31 43 31 43 rrcurveto
          -323 -38 rmoveto
          80 71 53 72 71 49 -34 -55 -55 -29 -48 -47 -31 vhcurveto
          -16 -24 -23 -8 -22 hhcurveto
          -45 -32 14 36 -23 hvcurveto
          -12 18 -6 21 25 vvcurveto
          188 23 rmoveto
          33 -11 16 -23 -52 -26 -33 -39 -39 17 0 27 27 41 25 37 vhcurveto
          57 -296 rmoveto
          70 76 60 68 68 45 -51 -67 -68 -63 -48 -73 -73 -48 34 70 vhcurveto
          296 65 rmoveto
          41 30 46 24 55 hhcurveto
          55 47 -54 -55 -28 -6 -23 -13 -18 hvcurveto
          -37 -25 -41 -19 -57 hhcurveto
          -63 -51 37 58 29 8 24 15 21 hvcurveto
          161 -24 rmoveto
          13 -8 -10 7 -13 hhcurveto
          -27 -22 -8 -17 -15 hvcurveto
          -9 -10 -5 -8 -6 vvcurveto
          -7 0 -5 1 -3 vhcurveto
          11 -17 12 -11 15 -5 rrcurveto
          40 35 28 23 11 -2 9 -3 6 hvcurveto
          -380 -38 rmoveto
          -26 1 13 -13 26 hhcurveto
          26 21 10 19 15 hvcurveto
          16 21 -8 17 -4 11 rrcurveto
          12 -5 -11 6 -17 hhcurveto
          -33 -40 -20 -37 hvcurveto
          endchar
        </CharString>
        <CharString name="peseta">
          104 437 515 rmoveto
          102 -8 -105 44 -109 hhcurveto
          -68 -71 -5 -48 -8 hvcurveto
          -3 -16 -1 -34 -43 vvcurveto
          -36 -11 -24 -22 -19 13 -14 24 hvcurveto
          9 hlineto
          1 -141 5 -174 1 -19 59 callgsubr
          118 -20 138 -6 29 158 rrcurveto
          20 hlineto
          21 20 8 29 25 -13 17 -18 hvcurveto
          -249 71 rmoveto
          59 68 -25 -46 12 hvcurveto
          -77 -69 -1 -62 hhcurveto
          22 1 22 1 19 vhcurveto
          5 11 23 4 33 hhcurveto
          -67 -207 rmoveto
          -1 12 -1 20 24 vvcurveto
          74 -1 56 0 71 1 -26 -80 -82 12 -91 12 rrcurveto
          endchar
        </CharString>
        <CharString name="pi">
          150 347 359 rmoveto
          -38 -5 -34 -4 -27 -1 rrcurveto
          -308 vlineto
          -31 -1 -20 -18 -23 hhcurveto
          -23 -21 17 31 -4 hvcurveto
          313 vlineto
          -11 1 -25 4 -37 7 rrcurveto
          -22 9 -11 14 20 vvcurveto
          20 10 14 21 9 vhcurveto
          7 3 6 1 7 1 rrcurveto
          -9 45 40 -4 36 hhcurveto
          35 49 4 8 61 hvcurveto
          61 7 51 5 41 2 rrcurveto
          26 -8 13 -16 -23 vvcurveto
          -20 -15 -20 -27 -5 vhcurveto
          -22 -1 -26 -2 -29 -3 rrcurveto
          -319 vlineto
          -32 -4 -21 -19 -19 hhcurveto
          -29 -17 16 31 -3 hvcurveto
          endchar
        </CharString>
        <CharString name="plus">
          14 21 callgsubr
          endchar
        </CharString>
        <CharString name="plusminus">
          9 21 callgsubr
          -131 -405 rmoveto
          -24 -13 15 17 24 16 15 33 5 hvcurveto
          306 hlineto
          25 -8 12 -13 -18 vvcurveto
          -23 -11 -6 -29 -8 vhcurveto
          endchar
        </CharString>
        <CharString name="q">
          -3 437 -265 rmoveto
          -27 -6 -27 -20 -16 hhcurveto
          -9 -6 1 2 -4 hvcurveto
          -10 5 -5 11 1 16 4 158 rcurveline
          29 -1 36 -3 41 vhcurveto
          -6 78 rlineto
          -41 -21 -51 -24 -68 hhcurveto
          -35 -31 11 22 -29 hvcurveto
          -56 43 -28 65 86 vvcurveto
          147 69 90 126 63 46 -17 -33 30 vhcurveto
          21 -23 12 -17 11 -32 12 -43 7 -51 1 -60 rrcurveto
          -37 vlineto
          8 -207 rlineto
          1 -31 0 -29 -26 vvcurveto
          -242 527 rmoveto
          -56 -29 -40 -105 -105 54 -61 56 56 47 42 77 24 hvcurveto
          144 -7 -44 48 -101 hhcurveto
          endchar
        </CharString>
        <CharString name="question">
          -98 278 570 rmoveto
          33 -43 29 -35 -35 -31 -19 -20 -13 vhcurveto
          -27 -19 -14 -13 -10 hhcurveto
          -20 -23 9 33 49 85 68 79 55 43 -22 -45 32 hvcurveto
          17 -24 9 -25 -26 vvcurveto
          -52 -24 -41 -30 -34 vhcurveto
          -15 -17 -16 -17 -15 -15 rrcurveto
          -37 -37 -18 -24 -12 vvcurveto
          -13 5 -13 9 -14 vhcurveto
          9 -15 4 -10 -5 vvcurveto
          -6 -2 -6 -3 -6 vhcurveto
          -12 -8 -11 -6 -15 hhcurveto
          -30 -39 47 51 51 21 37 28 30 hvcurveto
          14 15 14 14 15 13 rrcurveto
          45 42 22 32 23 vvcurveto
          -135 -486 rmoveto
          21 17 27 32 31 16 -6 -42 -42 -24 -11 -24 -25 -23 32 21 vhcurveto
          endchar
        </CharString>
        <CharString name="questiondown">
          -91 244 422 rmoveto
          -27 -21 -24 -21 -39 -15 4 44 43 24 10 22 22 28 -23 -27 vhcurveto
          -137 -490 rmoveto
          -32 44 -31 35 35 29 20 20 15 vhcurveto
          26 19 15 13 12 hhcurveto
          24 17 -16 -24 -49 -86 -68 -79 -55 -43 22 44 -32 hvcurveto
          -17 23 -9 25 27 vvcurveto
          52 25 42 30 34 vhcurveto
          15 17 15 16 15 15 rrcurveto
          36 36 18 24 13 vvcurveto
          12 -4 14 -9 15 vhcurveto
          -9 15 -5 11 7 vvcurveto
          14 18 18 17 36 39 -47 -51 -51 -22 -36 -28 -30 vhcurveto
          -14 -15 -14 -15 -15 -13 rrcurveto
          -45 -42 -23 -32 -23 vvcurveto
          endchar
        </CharString>
        <CharString name="quotedbl">
          -163 52 732 44 callsubr
          191 17 rmoveto
          -24 -17 -13 -15 -22 -12 11 22 -2 vhcurveto
          32 1 21 2 11 vhcurveto
          2 10 1 20 31 vvcurveto
          21 3 15 13 16 hhcurveto
          15 14 -11 -19 4 hvcurveto
          endchar
        </CharString>
        <CharString name="quotedblbase">
          -168 67 73 rmoveto
          42 callgsubr
          120 hmoveto
          42 callgsubr
          endchar
        </CharString>
        <CharString name="quotedblleft">
          -151 59 733 rmoveto
          20 6 11 10 17 hhcurveto
          16 15 -11 -20 3 hvcurveto
          66 callgsubr
          -22 -11 -10 4 9 -8 vhcurveto
          -29 28 -12 73 48 vvcurveto
          188 -1 rmoveto
          66 callgsubr
          -24 -24 -21 24 54 -13 vhcurveto
          -7 27 -3 28 29 vvcurveto
          20 6 11 10 16 hhcurveto
          17 15 -11 -20 3 hvcurveto
          endchar
        </CharString>
        <CharString name="quotedblright">
          -163 120 775 rmoveto
          72 callgsubr
          11 23 6 1 7 75 callsubr
          20 4 15 11 16 hhcurveto
          120 hmoveto
          72 callgsubr
          15 16 8 1 8 75 callsubr
          3 13 6 10 11 5 rrcurveto
          2 5 5 1 5 hhcurveto
          endchar
        </CharString>
        <CharString name="quoteleft">
          -276 108 728 rmoveto
          -47 6 -31 25 -27 vhcurveto
          3 -7 1 -7 -6 vvcurveto
          -7 -1 -6 -3 -5 vhcurveto
          -11 -5 -10 -6 -14 hhcurveto
          -28 -19 24 54 -13 hvcurveto
          -7 27 -3 28 30 vvcurveto
          19 7 11 10 15 hhcurveto
          17 14 -12 -20 4 hvcurveto
          endchar
        </CharString>
        <CharString name="quoteright">
          -246 113 760 rmoveto
          35 callgsubr
          endchar
        </CharString>
        <CharString name="quotesinglbase">
          -258 38 callsubr
        </CharString>
        <CharString name="quotesingle">
          -302 52 840 44 callsubr
          endchar
        </CharString>
        <CharString name="r">
          -81 86 473 -22 callgsubr
          endchar
        </CharString>
        <CharString name="racute">
          -81 227 -86 callsubr
          -141 -204 -22 callgsubr
          endchar
        </CharString>
        <CharString name="radical">
          87 441 667 rmoveto
          47 24 -12 -24 -16 -11 -14 -20 -5 hvcurveto
          2 -16 -18 1 -19 hhcurveto
          -17 -27 -14 -29 -11 -32 -11 -33 -17 -65 -22 -98 -22 -98 -26 -97 -31 -97 rrcurveto
          -17 -6 -10 -8 -15 hhcurveto
          -29 -28 78 70 -12 hvcurveto
          -13 78 -12 2 -50 -6 rlineto
          -10 -10 2 5 -9 hvcurveto
          -4 4 -2 6 8 vvcurveto
          16 6 14 23 12 vhcurveto
          5 11 15 3 17 hhcurveto
          64 14 -15 -108 27 hvcurveto
          63 241 33 131 30 79 26 28 rlinecurve
          11 10 15 5 21 hhcurveto
          endchar
        </CharString>
        <CharString name="rcaron">
          -81 107 -78 callgsubr
          -21 -182 -22 callgsubr
          endchar
        </CharString>
        <CharString name="rcommaaccent">
          -81 86 473 -22 callgsubr
          157 -512 -82 callgsubr
        </CharString>
        <CharString name="registered">
          294 379 665 rmoveto
          82 -1 59 -10 37 -18 17 -9 16 -12 15 -14 rrcurveto
          61 -59 30 -89 -117 vvcurveto
          -201 -105 -128 -196 -7 vhcurveto
          -124 -88 49 47 -49 hvcurveto
          -49 47 -38 84 110 vvcurveto
          110 68 107 101 60 vhcurveto
          51 30 54 17 58 4 rrcurveto
          1 -69 rmoveto
          -147 -16 -109 -115 -140 vvcurveto
          -141 111 -107 152 151 81 93 159 130 -40 82 -81 34 vhcurveto
          -32 13 -39 7 -47 1 rrcurveto
          -9 -79 rmoveto
          87 50 -40 -64 -39 -21 -38 -36 -20 hvcurveto
          3 -5 9 -14 17 -24 17 -25 10 -19 5 -14 2 -9 rcurveline
          -15 -7 -13 -15 -10 vhcurveto
          -4 -7 -7 -2 -8 hhcurveto
          -8 -7 6 13 -6 hvcurveto
          -5 17 -11 21 -17 26 -17 25 -11 17 -4 9 rrcurveto
          -29 -21 1 2 -14 hvcurveto
          -5 0 -9 1 -11 vhcurveto
          -12 0 -9 -7 vvcurveto
          -27 vlineto
          -42 -2 -15 -21 -27 hhcurveto
          -16 -8 10 19 hvcurveto
          4 291 rlineto
          40 13 47 1 28 hhcurveto
          -22 -149 rmoveto
          -5 7 13 -3 19 hhcurveto
          38 45 17 28 27 -55 18 -33 -17 -11 0 -1 -6 hvcurveto
          endchar
        </CharString>
        <CharString name="ring">
          -264 109 657 -28 callsubr
        </CharString>
        <CharString name="ringbelowcomb">
          -466 301 -37 -28 callsubr
        </CharString>
        <CharString name="s">
          -81 204 469 -43 callgsubr
          endchar
        </CharString>
        <CharString name="sacute">
          -81 233 -86 callsubr
          -29 -208 -43 callgsubr
          endchar
        </CharString>
        <CharString name="scaron">
          -81 113 -78 callgsubr
          91 -186 -43 callgsubr
          endchar
        </CharString>
        <CharString name="scedilla">
          -81 236 -26 79 callsubr
          65 5 66 35 111 vvcurveto
          83 -52 14 -87 17 vhcurveto
          4 callgsubr
          43 callsubr
          vhcurveto
          18 callgsubr
          -41 52 -20 58 -5 hvcurveto
          -2 -9 0 -10 -10 vvcurveto
          -48 callgsubr
          rrcurveto
          endchar
        </CharString>
        <CharString name="scircumflex">
          -81 202 -66 callsubr
          2 -183 -43 callgsubr
          endchar
        </CharString>
        <CharString name="scommaaccent">
          -81 204 469 -43 callgsubr
          43 -498 -82 callgsubr
        </CharString>
        <CharString name="section">
          -82 164 77 rmoveto
          29 17 9 17 4 hvcurveto
          1 4 0 4 4 vvcurveto
          25 -16 22 -31 19 vhcurveto
          -63 38 -62 32 68 vvcurveto
          34 14 32 27 30 vhcurveto
          13 13 14 12 16 11 rrcurveto
          -36 17 -18 26 35 vvcurveto
          54 20 38 40 22 vhcurveto
          16 25 27 8 30 hhcurveto
          53 26 -14 -29 -21 -15 -22 -19 hvcurveto
          -40 5 rlineto
          -43 -25 -21 -32 -32 29 -20 37 -14 hvcurveto
          36 -14 39 -15 25 -37 rrcurveto
          13 -19 6 -22 -27 vvcurveto
          -54 -24 -48 -48 -43 vhcurveto
          19 -24 5 -20 -40 vvcurveto
          -71 -55 -33 -63 -63 -56 14 32 25 13 13 25 vhcurveto
          163 193 rmoveto
          13 17 6 18 17 vvcurveto
          35 -39 39 -36 -37 -51 -37 -35 -36 35 -24 25 -14 vhcurveto
          12 -7 13 -8 14 -7 17 10 15 14 13 18 rrcurveto
          endchar
        </CharString>
        <CharString name="semicolon">
          -234 168 356 rmoveto
          -28 -27 -29 -22 -22 -16 5 12 -12 vhcurveto
          -7 6 -3 8 10 vvcurveto
          19 6 24 18 19 vhcurveto
          9 9 10 5 11 hhcurveto
          23 28 -19 -41 4 hvcurveto
          -317 vmoveto
          -73 -51 -52 -29 -15 -7 5 10 5 7 11 14 17 vhcurveto
          14 17 8 14 3 12 rrcurveto
          -29 -27 26 30 30 19 28 32 15 12 -3 -6 9 hvcurveto
          17 -11 8 -23 -37 vvcurveto
          endchar
        </CharString>
        <CharString name="seven">
          29 393 432 15 callgsubr
        </CharString>
        <CharString name="seven.osf">
          29 405 224 15 callgsubr
        </CharString>
        <CharString name="seven.smcp">
          -116 279 243 rmoveto
          40 1 12 11 22 vvcurveto
          15 -9 12 -37 -2 vhcurveto
          -29 -2 4 45 12 66 -12 11 rlinecurve
          15 -17 -178 24 -13 hhcurveto
          -15 -12 -16 -12 -12 4 -16 18 -3 hvcurveto
          22 -5 102 -13 33 -12 -4 -44 2 6 -4 -35 rrcurveto
          -24 -14 -1 -24 hhcurveto
          -26 -7 -16 -12 -13 12 -18 14 1 hvcurveto
          22 1 21 2 21 1 rrcurveto
          -4 -58 -2 -62 -69 vvcurveto
          -35 7 -20 17 15 22 8 26 20 4 155 1 34 vhcurveto
          endchar
        </CharString>
        <CharString name="sevensuperior">
          -224 100 576 rmoveto
          -1 -26 -1 -19 -29 vvcurveto
          -30 7 -12 17 10 21 4 28 11 0 43 2 30 vhcurveto
          23 hlineto
          7 1 15 7 19 vvcurveto
          17 -6 13 -16 -1 vhcurveto
          -19 -1 3 25 3 21 -8 15 rlinecurve
          18 -8 -99 10 -9 hhcurveto
          -15 -9 -18 -10 -7 3 -18 17 -2 hvcurveto
          11 -3 38 -6 20 -3 -1 -8 0 -7 -1 -8 -11 -1 -11 0 -10 -1 rrcurveto
          -10 -1 -9 -11 -15 vvcurveto
          -16 11 -11 12 vhcurveto
          endchar
        </CharString>
        <CharString name="six">
          -67 139 341 26 callgsubr
        </CharString>
</ttFont>
